<?xml version="1.0" encoding="UTF-8" standalone="no"?>
<svg
   xmlns:dc="http://purl.org/dc/elements/1.1/"
   xmlns:cc="http://creativecommons.org/ns#"
   xmlns:rdf="http://www.w3.org/1999/02/22-rdf-syntax-ns#"
   xmlns:svg="http://www.w3.org/2000/svg"
   xmlns="http://www.w3.org/2000/svg"
   xmlns:xlink="http://www.w3.org/1999/xlink"
   xmlns:sodipodi="http://sodipodi.sourceforge.net/DTD/sodipodi-0.dtd"
   xmlns:inkscape="http://www.inkscape.org/namespaces/inkscape"
   width="210mm"
   height="297mm"
   viewBox="0 0 210 297"
   version="1.1"
   id="svg8"
   sodipodi:docname="sets.svg"
   inkscape:version="1.0.2 (1.0.2+r75+1)"
   inkscape:export-filename="/home/decencie/Documents/DeepLearningForImageAnalysis/lectures/Anomaly/graphics/sets.png"
   inkscape:export-xdpi="300"
   inkscape:export-ydpi="300">
  <defs
     id="defs2">
    <inkscape:path-effect
       effect="bspline"
       id="path-effect884"
       is_visible="true"
       lpeversion="1"
       weight="33.333333"
       steps="2"
       helper_size="0"
       apply_no_weight="true"
       apply_with_weight="true"
       only_selected="false" />
    <inkscape:path-effect
       effect="bspline"
       id="path-effect872"
       is_visible="true"
       lpeversion="1"
       weight="33.333333"
       steps="2"
       helper_size="0"
       apply_no_weight="true"
       apply_with_weight="true"
       only_selected="false" />
    <inkscape:path-effect
       effect="bspline"
       id="path-effect849"
       is_visible="true"
       lpeversion="1"
       weight="33.333333"
       steps="2"
       helper_size="0"
       apply_no_weight="true"
       apply_with_weight="true"
       only_selected="false" />
    <inkscape:path-effect
       effect="bspline"
       id="path-effect845"
       is_visible="true"
       lpeversion="1"
       weight="33.333333"
       steps="2"
       helper_size="0"
       apply_no_weight="true"
       apply_with_weight="true"
       only_selected="false" />
    <inkscape:path-effect
       effect="bspline"
       id="path-effect841"
       is_visible="true"
       lpeversion="1"
       weight="33.333333"
       steps="2"
       helper_size="0"
       apply_no_weight="true"
       apply_with_weight="true"
       only_selected="false" />
    <inkscape:path-effect
       effect="bspline"
       id="path-effect837"
       is_visible="true"
       lpeversion="1"
       weight="33.333333"
       steps="2"
       helper_size="0"
       apply_no_weight="true"
       apply_with_weight="true"
       only_selected="false" />
    <g
       id="g4376">
      <symbol
         overflow="visible"
         id="symbol4596">
        <path
           style="stroke:none;"
           d=""
           id="path2108" />
      </symbol>
      <symbol
         overflow="visible"
         id="symbol2428">
        <path
           style="stroke:none;"
           d="M 6.75 -1.609375 L 6.5 -1.609375 C 6.453125 -1.359375 6.40625 -1.125 6.3125 -0.890625 C 6.265625 -0.734375 6.234375 -0.640625 5.65625 -0.640625 L 4.859375 -0.640625 C 5 -1.203125 5.296875 -1.6875 5.75 -2.34375 C 6.21875 -3.046875 6.625 -3.734375 6.625 -4.53125 C 6.625 -5.90625 5.28125 -7.03125 3.59375 -7.03125 C 1.890625 -7.03125 0.5625 -5.890625 0.5625 -4.53125 C 0.5625 -3.734375 0.96875 -3.046875 1.4375 -2.34375 C 1.875 -1.6875 2.1875 -1.203125 2.328125 -0.640625 L 1.53125 -0.640625 C 0.953125 -0.640625 0.921875 -0.734375 0.875 -0.875 C 0.78125 -1.109375 0.734375 -1.359375 0.6875 -1.609375 L 0.4375 -1.609375 L 0.765625 0 L 2.359375 0 C 2.578125 0 2.609375 0 2.609375 -0.203125 C 2.609375 -0.90625 2.296875 -1.78125 2.078125 -2.421875 C 1.859375 -3 1.578125 -3.78125 1.578125 -4.53125 C 1.578125 -6.125 2.6875 -6.8125 3.59375 -6.8125 C 4.546875 -6.8125 5.609375 -6.09375 5.609375 -4.53125 C 5.609375 -3.78125 5.328125 -3.03125 5.046875 -2.21875 C 4.890625 -1.796875 4.578125 -0.890625 4.578125 -0.203125 C 4.578125 0 4.609375 0 4.828125 0 L 6.421875 0 Z M 6.75 -1.609375 "
           id="path3336" />
      </symbol>
    </g>
    <g
       id="g3427">
      <symbol
         overflow="visible"
         id="symbol2177">
        <path
           style="stroke:none;"
           d=""
           id="path4433" />
      </symbol>
      <symbol
         overflow="visible"
         id="symbol2564">
        <path
           style="stroke:none;"
           d="M 3.046875 -5.71875 C 3.234375 -5.203125 3.453125 -4.453125 3.890625 -3.234375 C 4.53125 -1.53125 4.8125 -0.921875 5.40625 0.03125 C 5.546875 0.234375 5.5625 0.25 5.65625 0.25 C 5.796875 0.25 6 0.125 6.109375 0.046875 C 6.25 -0.078125 6.265625 -0.09375 6.375 -0.578125 C 6.96875 -3.203125 7.71875 -5.9375 7.921875 -6.390625 C 7.9375 -6.40625 8.140625 -6.78125 9.359375 -6.8125 C 9.5625 -6.8125 9.75 -7.34375 9.75 -7.5625 C 9.75 -7.71875 9.6875 -7.71875 9.546875 -7.71875 C 8.546875 -7.71875 8.109375 -7.3125 7.984375 -7.171875 C 7.703125 -6.8125 7.46875 -6.09375 7.015625 -4.421875 C 6.65625 -3.15625 6.34375 -1.859375 6.03125 -0.5625 C 5.484375 -1.390625 5.171875 -2.1875 4.6875 -3.46875 C 4.171875 -4.890625 3.84375 -5.921875 3.578125 -6.8125 C 3.515625 -7.015625 3.515625 -7.03125 3.421875 -7.03125 C 3.40625 -7.03125 3.203125 -7.03125 2.90625 -6.78125 C 2.8125 -6.703125 2.796875 -6.609375 2.796875 -6.5 C 2.515625 -3.84375 1.578125 -1.21875 1.3125 -0.75 C 1.21875 -0.59375 1.109375 -0.421875 0.90625 -0.421875 C 0.8125 -0.421875 0.421875 -0.46875 0.15625 -0.703125 C 0.109375 -0.75 0.09375 -0.75 0.078125 -0.75 C -0.078125 -0.75 -0.296875 -0.25 -0.296875 -0.015625 C -0.296875 0.296875 0.3125 0.5 0.59375 0.5 C 1.234375 0.5 1.75 -0.90625 1.90625 -1.359375 C 2.546875 -3.171875 2.859375 -4.65625 3.046875 -5.71875 Z M 3.046875 -5.71875 "
           id="path8943" />
      </symbol>
    </g>
    <g
       id="g9482">
      <symbol
         overflow="visible"
         id="symbol8">
        <path
           style="stroke:none;"
           d=""
           id="path4487" />
      </symbol>
      <symbol
         overflow="visible"
         id="symbol4628">
        <path
           style="stroke:none;"
           d="M 4.828125 -4.09375 L 4 -6.078125 C 3.96875 -6.15625 3.953125 -6.203125 3.953125 -6.203125 C 3.953125 -6.265625 4.109375 -6.453125 4.53125 -6.5 C 4.640625 -6.515625 4.734375 -6.515625 4.734375 -6.6875 C 4.734375 -6.8125 4.609375 -6.8125 4.578125 -6.8125 C 4.171875 -6.8125 3.75 -6.78125 3.328125 -6.78125 C 3.078125 -6.78125 2.46875 -6.8125 2.21875 -6.8125 C 2.15625 -6.8125 2.03125 -6.8125 2.03125 -6.609375 C 2.03125 -6.5 2.140625 -6.5 2.265625 -6.5 C 2.859375 -6.5 2.921875 -6.40625 3.015625 -6.1875 L 4.1875 -3.40625 L 2.078125 -1.140625 L 1.953125 -1.03125 C 1.46875 -0.5 1 -0.34375 0.484375 -0.3125 C 0.359375 -0.296875 0.265625 -0.296875 0.265625 -0.109375 C 0.265625 -0.09375 0.265625 0 0.40625 0 C 0.703125 0 1.03125 -0.03125 1.328125 -0.03125 C 1.703125 -0.03125 2.09375 0 2.453125 0 C 2.515625 0 2.625 0 2.625 -0.203125 C 2.625 -0.296875 2.53125 -0.3125 2.515625 -0.3125 C 2.421875 -0.3125 2.109375 -0.34375 2.109375 -0.625 C 2.109375 -0.78125 2.265625 -0.9375 2.375 -1.0625 L 3.40625 -2.140625 L 4.296875 -3.125 L 5.296875 -0.734375 C 5.34375 -0.625 5.359375 -0.625 5.359375 -0.59375 C 5.359375 -0.515625 5.15625 -0.34375 4.78125 -0.3125 C 4.671875 -0.296875 4.578125 -0.296875 4.578125 -0.125 C 4.578125 0 4.6875 0 4.71875 0 C 5 0 5.703125 -0.03125 5.984375 -0.03125 C 6.234375 -0.03125 6.84375 0 7.09375 0 C 7.15625 0 7.28125 0 7.28125 -0.1875 C 7.28125 -0.3125 7.171875 -0.3125 7.09375 -0.3125 C 6.4375 -0.3125 6.40625 -0.34375 6.234375 -0.75 C 5.859375 -1.671875 5.1875 -3.234375 4.953125 -3.828125 C 5.625 -4.53125 6.671875 -5.71875 7 -5.984375 C 7.28125 -6.234375 7.671875 -6.46875 8.265625 -6.5 C 8.390625 -6.515625 8.484375 -6.515625 8.484375 -6.703125 C 8.484375 -6.703125 8.484375 -6.8125 8.359375 -6.8125 C 8.0625 -6.8125 7.71875 -6.78125 7.421875 -6.78125 C 7.046875 -6.78125 6.671875 -6.8125 6.3125 -6.8125 C 6.25 -6.8125 6.125 -6.8125 6.125 -6.609375 C 6.125 -6.546875 6.171875 -6.515625 6.234375 -6.5 C 6.328125 -6.484375 6.640625 -6.46875 6.640625 -6.1875 C 6.640625 -6.046875 6.53125 -5.921875 6.453125 -5.828125 Z M 4.828125 -4.09375 "
           id="path63" />
      </symbol>
    </g>
  </defs>
  <sodipodi:namedview
     id="base"
     pagecolor="#ffffff"
     bordercolor="#666666"
     borderopacity="1.0"
     inkscape:pageopacity="0.0"
     inkscape:pageshadow="2"
     inkscape:zoom="0.35"
     inkscape:cx="400"
     inkscape:cy="560"
     inkscape:document-units="mm"
     inkscape:current-layer="layer1"
     inkscape:document-rotation="0"
     showgrid="true"
     showborder="false"
     inkscape:window-width="1867"
     inkscape:window-height="1145"
     inkscape:window-x="53"
     inkscape:window-y="27"
     inkscape:window-maximized="1">
    <inkscape:grid
       type="xygrid"
       id="grid833" />
  </sodipodi:namedview>
  <metadata
     id="metadata5">
    <rdf:RDF>
      <cc:Work
         rdf:about="">
        <dc:format>image/svg+xml</dc:format>
        <dc:type
           rdf:resource="http://purl.org/dc/dcmitype/StillImage" />
        <dc:title></dc:title>
      </cc:Work>
    </rdf:RDF>
  </metadata>
  <g
     inkscape:label="Calque 1"
     inkscape:groupmode="layer"
     id="layer1">
    <path
       style="fill:#ff0000;fill-rule:evenodd;stroke:#000000;stroke-width:0.264583px;stroke-linecap:butt;stroke-linejoin:miter;stroke-opacity:1"
       d="m -243.41666,-31.75 c -1.77664,0.191159 -3.55562,0.38257 -4.44628,1.109684 -0.89065,0.727115 -0.89065,1.987034 -1.26875,6.270615 -0.3781,4.283581 -1.13405,11.59112 -1.88997,20.1586211 -0.75593,8.5675011 -1.51188,18.3948819 -1.63676,23.6868619 -0.12488,5.29198 0.37908,6.047928 5.7972,10.331246 5.41812,4.283318 15.74947,12.09482 27.71883,19.149992 11.96936,7.055171 25.57651,13.354777 32.88378,16.503839 7.30726,3.149062 8.3152,3.149062 12.09501,3.275107 3.77981,0.126045 10.3314,0.37803 18.77282,0.503969 8.44142,0.12594 18.77277,0.12594 26.71033,0.251995 7.93755,0.126055 13.4812,0.378039 18.39509,1.134392 4.91389,0.756353 9.19762,2.016273 15.38635,3.910167 6.188735,1.893894 14.282464,4.421702 19.367166,6.204315 5.084702,1.782613 7.160363,2.819433 9.780412,3.732787 2.620049,0.913354 5.784545,1.70405 8.985328,2.639911 3.200783,0.935861 6.437789,2.016606 13.12323,3.378054 6.685441,1.361448 16.819496,3.004175 27.934307,4.245833 11.1148108,1.241659 23.210556,2.082539 36.306734,1.938904 C 33.694344,96.532658 47.791351,95.404897 61.648211,89.572402 75.50507,83.739906 89.123824,73.202773 97.032095,66.69756 104.94037,60.192347 107.13868,57.7186 108.64977,55.519957 c 1.5111,-2.198644 2.33539,-4.123299 3.82198,-9.320976 1.4866,-5.197677 3.63544,-13.668949 4.58414,-21.935897 0.9487,-8.266949 0.69671,-16.3304405 -4.21582,-26.0317679 C 107.92754,-11.470011 98.352144,-22.809297 86.112371,-33.150942 73.872597,-43.492586 58.96776,-52.835677 49.102038,-58.652434 c -9.865723,-5.816757 -14.692425,-8.106753 -17.610013,-9.252506 -2.917589,-1.145753 -3.925524,-1.145753 -9.721191,-1.019792 -5.795667,0.125962 -16.3790006,0.377946 -25.1990971,2.015599 -8.8200969,1.637654 -15.8756519,4.661462 -22.0499309,8.945497 -6.174279,4.284035 -11.465947,9.827687 -14.993056,12.977184 -3.527109,3.149496 -5.290998,3.905448 -8.566775,5.291361 -3.275778,1.385912 -8.063469,3.401785 -19.659205,5.165849 -11.595737,1.764064 -30.000627,3.275968 -44.37116,4.032019 -14.37054,0.756051 -24.70696,0.756051 -34.0328,0.378205 -9.32583,-0.377845 -17.64131,-1.133797 -25.57884,-1.763794 -7.93753,-0.629997 -15.49705,-1.133965 -20.41082,-1.386043 -4.91377,-0.252078 -7.18163,-0.252078 -9.57528,-0.503757 -2.39364,-0.251679 -4.91348,-0.755647 -9.57539,-1.007936 -4.66191,-0.25229 -11.46548,-0.25229 -16.37917,-0.25229 -4.91369,0 -7.9375,0 -10.08929,0.547046 -2.15179,0.547046 -3.42913,1.641327 -4.70668,2.735792"
       id="path835"
       inkscape:path-effect="#path-effect837"
       inkscape:original-d="m -243.41666,-31.75 c -1.77633,0.194056 -3.55531,0.385467 -5.33693,0.574231 0.003,1.262568 0.003,2.522487 0,3.779763 -0.75331,7.310185 -1.50926,14.617724 -2.26786,21.9226183 -0.75331,9.8300266 -1.50926,19.6574077 -2.26786,29.4821427 0.50662,0.758598 1.01058,1.51455 1.51191,2.267857 10.33399,7.814146 20.66534,15.625646 30.99404,23.4345 13.60979,6.302251 27.21694,12.601853 40.82143,18.898809 1.01058,0.0026 2.01852,0.0026 3.02381,0 6.55423,0.25463 13.10582,0.506613 19.65476,0.755954 10.334,0.0026 20.66535,0.0026 30.99405,0 5.5463,0.25463 11.08995,0.506614 16.63095,0.755952 4.28638,1.262565 8.57011,2.522487 12.851193,3.77976 8.096374,2.530454 16.190103,5.058262 24.281188,7.583424 2.078307,1.039466 4.153969,2.076286 6.226987,3.110461 3.167142,0.793342 6.331638,1.584036 9.493491,2.372087 3.239651,1.083389 6.476656,2.164136 9.711015,3.242233 10.136703,1.645372 20.270758,3.288099 30.402168,4.92818 12.0983915,0.843526 24.1941367,1.684406 36.287236,2.52264 14.099653,-1.125117 28.19666,-2.252877 42.291022,-3.383282 13.621401,-10.534489 27.240156,-21.071621 40.85626,-31.611398 2.20096,-2.471102 4.39927,-4.944848 6.59493,-7.421242 0.82693,-1.92201 1.65122,-3.846664 2.47286,-5.773965 2.15148,-8.46863 4.30031,-16.939903 6.4465,-25.413824 C 118.00715,15.996055 117.75516,7.9325636 117.50053,-0.13357435 107.92778,-11.470214 98.352384,-22.8095 88.774343,-34.151432 73.872153,-43.491877 58.967316,-52.834968 44.059834,-62.180705 c -4.824058,-2.287349 -9.650759,-4.577347 -14.480106,-6.869988 -1.005292,0.0026 -2.013227,0.0026 -3.023809,0 -10.580688,0.25463 -21.1640211,0.506614 -31.7500001,0.755952 -7.0529099,3.026455 -14.1084649,6.050264 -21.1666669,9.071427 -5.289019,5.546296 -10.580686,11.089949 -15.874999,16.630954 -1.761243,0.758598 -3.525133,1.514549 -5.291666,2.267855 -4.785045,2.018519 -9.572736,4.034393 -14.363073,6.047621 -18.402247,1.514549 -36.807137,3.026455 -55.214674,4.535712 -10.33377,0.0026 -20.67019,0.0026 -31.00925,0 -8.31283,-0.753306 -16.62831,-1.509257 -24.94643,-2.267855 -7.55688,-0.501324 -15.1164,-1.005292 -22.67857,-1.511906 -2.26521,0.0026 -4.53307,0.0026 -6.80357,0 -2.5172,-0.501321 -5.03704,-1.005289 -7.55953,-1.511905 -6.80092,0.0026 -13.60449,0.0026 -20.41071,0 -3.02116,0.0026 -6.04497,0.0026 -9.07143,0 -1.27469,1.096925 -2.55203,2.191205 -3.83201,3.282838"
       inkscape:export-xdpi="300"
       inkscape:export-ydpi="300" />
    <path
       style="fill:#00ff00;fill-rule:evenodd;stroke:#000000;stroke-width:0.264583px;stroke-linecap:butt;stroke-linejoin:miter;stroke-opacity:1"
       d="m -126.34909,1.101529 c -0.38762,1.8915089 -0.12457,4.88169 3.53585,10.282493 3.66043,5.400802 10.71599,13.212312 16.63793,18.503501 5.92193,5.291189 10.70963,8.063022 20.159053,13.102623 9.449423,5.039601 23.560535,12.347141 33.523463,16.885838 9.962928,4.538696 15.777679,6.309228 21.204895,7.95044 5.427216,1.641211 10.466899,3.153116 15.12835,3.908595 4.661451,0.755479 8.9451813,0.755479 15.87470895,0.629453 C 6.6446876,72.238447 16.220085,71.986463 22.64523,71.356279 c 6.425145,-0.630183 9.700938,-1.63812 12.22037,-2.646043 2.519433,-1.007924 4.28332,-2.015859 8.567355,-3.779775 4.284036,-1.763916 11.087606,-4.283757 15.118512,-6.299229 4.030906,-2.015473 5.290826,-3.527377 6.551016,-4.787557 1.26019,-1.26018 2.520111,-2.268116 3.275837,-5.164559 C 69.134046,45.782673 69.38603,40.994967 69.260741,37.9715 69.135453,34.948034 68.631485,33.688114 68.001152,30.916202 67.370819,28.14429 66.614867,23.860559 64.599521,18.442978 62.584175,13.025397 59.308382,6.4738102 56.410362,-0.20376229 53.512342,-6.8813348 50.9925,-13.684906 47.465211,-20.236589 c -3.527289,-6.551683 -8.063004,-12.851288 -11.464546,-17.135193 -3.401541,-4.283905 -5.669399,-6.551762 -7.055311,-7.687012 -1.385912,-1.135251 -1.88988,-1.135251 -3.149568,-1.386846 -1.259688,-0.251596 -3.27556,-0.755564 -5.543651,-1.007938 -2.26809,-0.252373 -4.787932,-0.252373 -6.42731,0.251806 -1.639378,0.50418 -2.395331,1.512117 -3.151236,6.048807 -0.7559051,4.536691 -1.5118574,12.600183 -3.0237164,17.890735 -1.511859,5.290551 -3.779716,7.810393 -14.8658515,10.581978 -11.0861351,2.7715862 -30.9928731,5.7953954 -43.3397421,7.0556347 -12.34687,1.2602394 -17.134566,0.7562713 -21.922265,0.2523031 -4.787699,-0.5039683 -9.575398,-1.0079365 -14.489007,-1.7637356 -4.913609,-0.7557991 -9.953292,-1.763736 -13.355277,-2.2680096 -3.40199,-0.5042736 -5.16588,-0.5042736 -8.06362,-0.6301776 -2.89775,-0.125905 -6.92949,-0.377889 -9.70292,0.6302638 -2.77343,1.0081522 -4.28533,3.2760124 -5.04108,4.6595748 -0.75575,1.3835623 -0.75575,1.880794 -1.27461,2.5227699 -0.51886,0.6419758 -1.55698,1.4316486 -1.94459,3.3231575 z"
       id="path839"
       inkscape:path-effect="#path-effect841"
       inkscape:original-d="m -127,0 c 0.26569,2.9928272 0.52873,5.9830086 0.78913,8.9705441 7.0582,7.8141539 14.11376,15.6256619 21.16667,23.4345239 4.79034,2.774479 9.578037,5.546312 14.36309,8.3155 14.113756,7.310183 28.224868,14.617723 42.333332,21.922618 5.817399,1.773179 11.63215,3.543712 17.444257,5.311597 5.042328,1.514552 10.082011,3.026458 15.119047,4.535715 4.286376,0.0026 8.5701063,0.0026 12.8511905,0 9.5780425,-0.249338 19.1534395,-0.501321 28.7261905,-0.755951 3.27844,-1.005292 6.554233,-2.013228 9.827381,-3.023809 1.766535,-1.005293 3.530422,-2.013228 5.291666,-3.023809 6.806218,-2.517196 13.609788,-5.037037 20.410715,-7.559525 1.262565,-1.50926 2.522487,-3.021163 3.779761,-4.535714 1.262567,-1.00529 2.522487,-2.013228 3.779763,-3.02381 0.25463,-4.785061 0.506614,-9.572767 0.755952,-14.363117 C 69.136823,34.947486 68.632852,33.687567 68.126239,32.424999 67.372933,28.143917 66.616981,23.860186 65.858381,19.57381 62.585234,13.024868 59.309441,6.4732809 56.031002,-0.08095205 53.513807,-6.8818775 50.993965,-13.685449 48.471478,-20.491666 c -4.533069,-6.296957 -9.068784,-12.596562 -13.607142,-18.89881 -2.265212,-2.265211 -4.533069,-4.533069 -6.803573,-6.803569 -0.501321,0.0026 -1.005289,0.0026 -1.511903,0 -2.013228,-0.501325 -4.029101,-1.005293 -6.04762,-1.511906 -2.517195,0.0026 -5.037037,0.0026 -7.559524,0 -0.753306,1.010581 -1.509258,2.018519 -2.267857,3.023809 -0.7533062,8.066137 -1.5092587,16.129629 -2.2678569,24.190476 -2.2652111,2.522487 -4.5330684,5.042328 -6.8035713,7.559524 -19.9040928,3.0264549 -39.8108298,6.0502645 -59.7202148,9.071428 -4.785053,-0.5013224 -9.572749,-1.0052907 -14.363094,-1.5119048 -4.785053,-0.5013222 -9.572752,-1.0052904 -14.363097,-1.5119045 -5.037034,-1.0052907 -10.076717,-2.0132273 -15.119045,-3.0238097 -1.76124,0.00265 -3.52513,0.00265 -5.29167,0 -4.0291,-0.249338 -8.06084,-0.501322 -12.09524,-0.755952 -1.50925,2.2705027 -3.02116,4.5383599 -4.53571,6.803571 0.003,0.4998779 0.003,0.9971096 0,1.4916957 C -124.92111,-1.5766997 -125.95923,-0.78702695 -127,0 Z" />
    <path
       style="fill:#ffff00;fill-rule:evenodd;stroke:#000000;stroke-width:0.264583px;stroke-linecap:butt;stroke-linejoin:miter;stroke-opacity:1"
       d="m 12.208754,11.002052 c -3.4063543,0.17849 -5.188868,0.77623 -6.95672,5.188359 -1.767852,4.412129 -3.519037,12.636125 -3.0096156,18.253318 0.5094215,5.617193 3.2764948,8.626823 8.5659886,10.634419 5.289495,2.007596 13.101002,3.015533 17.762033,3.267063 4.661031,0.251531 6.172937,-0.252438 8.944593,-1.386376 2.771656,-1.133937 6.8034,-2.897825 9.070524,-6.550129 2.267125,-3.652304 2.771092,-9.195954 1.38656,-13.731491 C 46.587585,22.141677 43.311792,18.6139 39.280337,16.219092 35.248882,13.824284 30.461184,12.564363 25.55265,11.81401 20.644117,11.063656 15.615108,10.823561 12.208754,11.002052 Z"
       id="path843"
       inkscape:path-effect="#path-effect845"
       inkscape:original-d="M 10.583333,10.583333 C 8.803465,11.183719 7.0209512,11.781458 5.2357914,12.376551 3.4872522,20.603194 1.7360671,28.82719 -0.01776377,37.04854 2.751955,40.060816 5.5190281,43.070446 8.283455,46.077428 c 7.814154,1.010584 15.625662,2.018519 23.434525,3.023811 1.514549,-0.501324 3.026455,-1.005292 4.535712,-1.511905 4.034393,-1.761244 8.066138,-3.525131 12.095239,-5.291667 0.506614,-5.541005 1.010581,-11.084655 1.511903,-16.630952 -3.273147,-3.525132 -6.54894,-7.05291 -9.827379,-10.583333 C 35.248402,13.826107 30.460704,12.566186 25.67036,11.30362 20.643997,11.06617 15.614988,10.826074 10.583333,10.583333 Z" />
    <g
       inkscape:label=""
       transform="matrix(6.0144003,0,0,5.1927982,-776.4491,-402.65562)"
       id="g908">
      <g
         id="g3053">
        <g
           style="fill:#000000;fill-opacity:1"
           id="g9844">
          <use
             xlink:href="#symbol2428"
             x="91.925003"
             y="81.962997"
             id="use5156"
             width="100%"
             height="100%" />
        </g>
      </g>
    </g>
    <g
       inkscape:label=""
       transform="matrix(3.7940348,0,0,4.2813005,-410.87128,-314.51054)"
       id="g952">
      <g
         id="g9523">
        <g
           style="fill:#000000;fill-opacity:1"
           id="g5696">
          <use
             xlink:href="#symbol2564"
             x="91.925003"
             y="81.962997"
             id="use2189"
             width="100%"
             height="100%" />
        </g>
      </g>
    </g>
    <g
       inkscape:label=""
       transform="matrix(2.7239774,0,0,3.1352937,-240.79419,-216.71863)"
       id="g1005">
      <g
         id="g1071">
        <g
           style="fill:#000000;fill-opacity:1"
           id="g1306">
          <use
             xlink:href="#symbol4628"
             x="91.925003"
             y="81.962997"
             id="use7078"
             width="100%"
             height="100%" />
        </g>
      </g>
    </g>
  </g>
</svg>
