<?xml version="1.0" encoding="UTF-8" standalone="no"?>
<svg
   xmlns:dc="http://purl.org/dc/elements/1.1/"
   xmlns:cc="http://creativecommons.org/ns#"
   xmlns:rdf="http://www.w3.org/1999/02/22-rdf-syntax-ns#"
   xmlns:svg="http://www.w3.org/2000/svg"
   xmlns="http://www.w3.org/2000/svg"
   xmlns:xlink="http://www.w3.org/1999/xlink"
   xmlns:sodipodi="http://sodipodi.sourceforge.net/DTD/sodipodi-0.dtd"
   xmlns:inkscape="http://www.inkscape.org/namespaces/inkscape"
   width="210mm"
   height="297mm"
   viewBox="0 0 210 297"
   version="1.1"
   id="svg8"
   sodipodi:docname="tl_transductive_homo.svg"
   inkscape:version="1.0.1 (1.0.1+r73)"
   inkscape:export-filename="/home/decencie/Documents/DeepLearningForImageAnalysis/slides/Lecture4/graphics/tl_transductive_homo.png"
   inkscape:export-xdpi="300"
   inkscape:export-ydpi="300">
  <defs
     id="defs2">
    <pattern
       inkscape:collect="always"
       xlink:href="#Checkerboard"
       id="pattern7439"
       patternTransform="scale(10.583333,9.2604167)" />
    <pattern
       inkscape:collect="always"
       xlink:href="#Checkerboard"
       id="pattern7437"
       patternTransform="scale(10.583333,9.2604167)" />
    <pattern
       inkscape:collect="always"
       patternUnits="userSpaceOnUse"
       width="2"
       height="2"
       patternTransform="translate(0,0) scale(10,10)"
       id="Checkerboard"
       inkscape:stockid="Checkerboard"
       inkscape:isstock="true">
      <rect
         style="fill:black;stroke:none"
         x="0"
         y="0"
         width="1"
         height="1"
         id="rect2322" />
      <rect
         style="fill:black;stroke:none"
         x="1"
         y="1"
         width="1"
         height="1"
         id="rect2324" />
    </pattern>
    <pattern
       inkscape:collect="always"
       patternUnits="userSpaceOnUse"
       width="30.066020"
       height="5.1805778"
       id="Wavy"
       inkscape:stockid="Wavy"
       inkscape:isstock="true">
      <path
         style="fill:black;stroke:none;"
         d="M 7.597,0.061 C 5.079,-0.187 2.656,0.302 -0.01,1.788 L -0.01,3.061 C 2.773,1.431 5.173,1.052 7.472,1.280 C 9.770,1.508 11.969,2.361 14.253,3.218 C 18.820,4.931 23.804,6.676 30.066,3.061 L 30.062,1.788 C 23.622,5.497 19.246,3.770 14.691,2.061 C 12.413,1.207 10.115,0.311 7.597,0.061 z "
         id="path2875" />
    </pattern>
    <marker
       style="overflow:visible;"
       id="Arrow1Lend"
       refX="0.0"
       refY="0.0"
       orient="auto"
       inkscape:stockid="Arrow1Lend"
       inkscape:isstock="true">
      <path
         transform="scale(0.8) rotate(180) translate(12.5,0)"
         style="fill-rule:evenodd;stroke:#000000;stroke-width:1pt;stroke-opacity:1;fill:#000000;fill-opacity:1"
         d="M 0.0,0.0 L 5.0,-5.0 L -12.5,0.0 L 5.0,5.0 L 0.0,0.0 z "
         id="path948" />
    </marker>
    <inkscape:path-effect
       effect="bspline"
       id="path-effect943"
       is_visible="true"
       lpeversion="1"
       weight="33.333333"
       steps="2"
       helper_size="0"
       apply_no_weight="true"
       apply_with_weight="true"
       only_selected="false" />
    <g
       id="g7517">
      <symbol
         overflow="visible"
         id="symbol891">
        <path
           style="stroke:none;"
           d=""
           id="path3978" />
      </symbol>
      <symbol
         overflow="visible"
         id="symbol7093">
        <path
           style="stroke:none;"
           d="M 1.578125 -0.78125 C 1.484375 -0.390625 1.46875 -0.3125 0.671875 -0.3125 C 0.515625 -0.3125 0.40625 -0.3125 0.40625 -0.125 C 0.40625 0 0.484375 0 0.671875 0 L 3.984375 0 C 6.046875 0 8.015625 -2.109375 8.015625 -4.28125 C 8.015625 -5.6875 7.171875 -6.8125 5.671875 -6.8125 L 2.328125 -6.8125 C 2.140625 -6.8125 2.03125 -6.8125 2.03125 -6.625 C 2.03125 -6.5 2.109375 -6.5 2.3125 -6.5 C 2.4375 -6.5 2.625 -6.484375 2.734375 -6.484375 C 2.90625 -6.453125 2.953125 -6.4375 2.953125 -6.3125 C 2.953125 -6.28125 2.953125 -6.25 2.921875 -6.125 Z M 3.734375 -6.125 C 3.828125 -6.46875 3.84375 -6.5 4.28125 -6.5 L 5.34375 -6.5 C 6.3125 -6.5 7.140625 -5.96875 7.140625 -4.65625 C 7.140625 -4.171875 6.953125 -2.53125 6.09375 -1.4375 C 5.8125 -1.0625 5.03125 -0.3125 3.796875 -0.3125 L 2.671875 -0.3125 C 2.53125 -0.3125 2.515625 -0.3125 2.453125 -0.3125 C 2.359375 -0.328125 2.328125 -0.34375 2.328125 -0.421875 C 2.328125 -0.453125 2.328125 -0.46875 2.375 -0.640625 Z M 3.734375 -6.125 "
           id="path7837" />
      </symbol>
    </g>
    <g
       id="g549">
      <symbol
         overflow="visible"
         id="symbol9814">
        <path
           style="stroke:none;"
           d=""
           id="path1020" />
      </symbol>
      <symbol
         overflow="visible"
         id="symbol2803">
        <path
           style="stroke:none;"
           d="M 4.0625 -0.96875 C 4.09375 -1.34375 4.109375 -1.890625 4.109375 -2.15625 C 4.109375 -3.203125 4.0625 -6.8125 1.96875 -6.8125 C 1.28125 -6.8125 0.671875 -6.203125 0.671875 -6.046875 C 0.671875 -5.96875 0.75 -5.96875 0.78125 -5.96875 C 0.84375 -5.96875 1.140625 -6.015625 1.359375 -6.3125 C 2.25 -6.296875 2.8125 -5.65625 3.109375 -4.390625 C 3.296875 -3.59375 3.375 -2.71875 3.375 -1.796875 C 3.375 -1.203125 3.328125 -0.515625 3.3125 -0.390625 C 3.3125 -0.3125 3.3125 -0.296875 3.296875 -0.28125 C 3.265625 -0.265625 2.265625 0.578125 1.78125 0.578125 C 1.703125 0.578125 0.890625 0.578125 0.703125 -0.25 C 0.6875 -0.3125 0.671875 -0.375 0.625 -0.375 C 0.5 -0.375 0.3125 -0.046875 0.3125 0.203125 C 0.3125 0.625 0.6875 1.34375 1.53125 1.34375 C 2.296875 1.34375 3.9375 -0.125 4.8125 -1.125 C 6.796875 -3.421875 7.140625 -5.140625 7.140625 -5.65625 C 7.140625 -6.5 6.578125 -6.8125 6.203125 -6.8125 C 5.90625 -6.8125 5.828125 -6.3125 5.828125 -6.203125 C 5.828125 -6.0625 5.859375 -6.046875 6.015625 -6.03125 C 6.59375 -5.96875 6.75 -5.5 6.75 -5.203125 C 6.75 -4.890625 6.28125 -3.125 4.0625 -0.96875 Z M 4.0625 -0.96875 "
           id="path2784" />
      </symbol>
    </g>
    <g
       id="g7983">
      <symbol
         overflow="visible"
         id="symbol8216">
        <path
           style="stroke:none;"
           d=""
           id="path2242" />
      </symbol>
      <symbol
         overflow="visible"
         id="symbol8066">
        <path
           style="stroke:none;"
           d="M 3.65625 -3.984375 L 4.515625 -3.984375 C 4.71875 -3.984375 4.8125 -3.984375 4.8125 -4.1875 C 4.8125 -4.296875 4.71875 -4.296875 4.546875 -4.296875 L 3.71875 -4.296875 L 3.921875 -5.4375 C 3.96875 -5.640625 4.109375 -6.34375 4.171875 -6.46875 C 4.25 -6.65625 4.421875 -6.8125 4.640625 -6.8125 C 4.671875 -6.8125 4.9375 -6.8125 5.125 -6.625 C 4.6875 -6.59375 4.578125 -6.234375 4.578125 -6.09375 C 4.578125 -5.859375 4.765625 -5.734375 4.953125 -5.734375 C 5.21875 -5.734375 5.5 -5.96875 5.5 -6.34375 C 5.5 -6.796875 5.046875 -7.03125 4.640625 -7.03125 C 4.296875 -7.03125 3.671875 -6.84375 3.375 -5.859375 C 3.3125 -5.65625 3.28125 -5.546875 3.046875 -4.296875 L 2.359375 -4.296875 C 2.15625 -4.296875 2.046875 -4.296875 2.046875 -4.109375 C 2.046875 -3.984375 2.140625 -3.984375 2.328125 -3.984375 L 2.984375 -3.984375 L 2.25 -0.046875 C 2.0625 0.921875 1.890625 1.828125 1.375 1.828125 C 1.328125 1.828125 1.09375 1.828125 0.890625 1.640625 C 1.359375 1.609375 1.453125 1.25 1.453125 1.109375 C 1.453125 0.875 1.265625 0.75 1.078125 0.75 C 0.8125 0.75 0.53125 0.984375 0.53125 1.359375 C 0.53125 1.796875 0.96875 2.046875 1.375 2.046875 C 1.921875 2.046875 2.328125 1.453125 2.5 1.078125 C 2.828125 0.453125 3.046875 -0.75 3.0625 -0.828125 Z M 3.65625 -3.984375 "
           id="path9762" />
      </symbol>
    </g>
    <g
       id="g9906">
      <symbol
         overflow="visible"
         id="symbol5369">
        <path
           style="stroke:none;"
           d=""
           id="path7107" />
      </symbol>
      <symbol
         overflow="visible"
         id="symbol548">
        <path
           style="stroke:none;"
           d="M 1.578125 -0.78125 C 1.484375 -0.390625 1.46875 -0.3125 0.671875 -0.3125 C 0.515625 -0.3125 0.40625 -0.3125 0.40625 -0.125 C 0.40625 0 0.484375 0 0.671875 0 L 3.984375 0 C 6.046875 0 8.015625 -2.109375 8.015625 -4.28125 C 8.015625 -5.6875 7.171875 -6.8125 5.671875 -6.8125 L 2.328125 -6.8125 C 2.140625 -6.8125 2.03125 -6.8125 2.03125 -6.625 C 2.03125 -6.5 2.109375 -6.5 2.3125 -6.5 C 2.4375 -6.5 2.625 -6.484375 2.734375 -6.484375 C 2.90625 -6.453125 2.953125 -6.4375 2.953125 -6.3125 C 2.953125 -6.28125 2.953125 -6.25 2.921875 -6.125 Z M 3.734375 -6.125 C 3.828125 -6.46875 3.84375 -6.5 4.28125 -6.5 L 5.34375 -6.5 C 6.3125 -6.5 7.140625 -5.96875 7.140625 -4.65625 C 7.140625 -4.171875 6.953125 -2.53125 6.09375 -1.4375 C 5.8125 -1.0625 5.03125 -0.3125 3.796875 -0.3125 L 2.671875 -0.3125 C 2.53125 -0.3125 2.515625 -0.3125 2.453125 -0.3125 C 2.359375 -0.328125 2.328125 -0.34375 2.328125 -0.421875 C 2.328125 -0.453125 2.328125 -0.46875 2.375 -0.640625 Z M 3.734375 -6.125 "
           id="path7787" />
      </symbol>
      <symbol
         overflow="visible"
         id="symbol5004">
        <path
           style="stroke:none;"
           d="M 4.828125 -4.09375 L 4 -6.078125 C 3.96875 -6.15625 3.953125 -6.203125 3.953125 -6.203125 C 3.953125 -6.265625 4.109375 -6.453125 4.53125 -6.5 C 4.640625 -6.515625 4.734375 -6.515625 4.734375 -6.6875 C 4.734375 -6.8125 4.609375 -6.8125 4.578125 -6.8125 C 4.171875 -6.8125 3.75 -6.78125 3.328125 -6.78125 C 3.078125 -6.78125 2.46875 -6.8125 2.21875 -6.8125 C 2.15625 -6.8125 2.03125 -6.8125 2.03125 -6.609375 C 2.03125 -6.5 2.140625 -6.5 2.265625 -6.5 C 2.859375 -6.5 2.921875 -6.40625 3.015625 -6.1875 L 4.1875 -3.40625 L 2.078125 -1.140625 L 1.953125 -1.03125 C 1.46875 -0.5 1 -0.34375 0.484375 -0.3125 C 0.359375 -0.296875 0.265625 -0.296875 0.265625 -0.109375 C 0.265625 -0.09375 0.265625 0 0.40625 0 C 0.703125 0 1.03125 -0.03125 1.328125 -0.03125 C 1.703125 -0.03125 2.09375 0 2.453125 0 C 2.515625 0 2.625 0 2.625 -0.203125 C 2.625 -0.296875 2.53125 -0.3125 2.515625 -0.3125 C 2.421875 -0.3125 2.109375 -0.34375 2.109375 -0.625 C 2.109375 -0.78125 2.265625 -0.9375 2.375 -1.0625 L 3.40625 -2.140625 L 4.296875 -3.125 L 5.296875 -0.734375 C 5.34375 -0.625 5.359375 -0.625 5.359375 -0.59375 C 5.359375 -0.515625 5.15625 -0.34375 4.78125 -0.3125 C 4.671875 -0.296875 4.578125 -0.296875 4.578125 -0.125 C 4.578125 0 4.6875 0 4.71875 0 C 5 0 5.703125 -0.03125 5.984375 -0.03125 C 6.234375 -0.03125 6.84375 0 7.09375 0 C 7.15625 0 7.28125 0 7.28125 -0.1875 C 7.28125 -0.3125 7.171875 -0.3125 7.09375 -0.3125 C 6.4375 -0.3125 6.40625 -0.34375 6.234375 -0.75 C 5.859375 -1.671875 5.1875 -3.234375 4.953125 -3.828125 C 5.625 -4.53125 6.671875 -5.71875 7 -5.984375 C 7.28125 -6.234375 7.671875 -6.46875 8.265625 -6.5 C 8.390625 -6.515625 8.484375 -6.515625 8.484375 -6.703125 C 8.484375 -6.703125 8.484375 -6.8125 8.359375 -6.8125 C 8.0625 -6.8125 7.71875 -6.78125 7.421875 -6.78125 C 7.046875 -6.78125 6.671875 -6.8125 6.3125 -6.8125 C 6.25 -6.8125 6.125 -6.8125 6.125 -6.609375 C 6.125 -6.546875 6.171875 -6.515625 6.234375 -6.5 C 6.328125 -6.484375 6.640625 -6.46875 6.640625 -6.1875 C 6.640625 -6.046875 6.53125 -5.921875 6.453125 -5.828125 Z M 4.828125 -4.09375 "
           id="path37" />
      </symbol>
      <symbol
         overflow="visible"
         id="symbol6195">
        <path
           style="stroke:none;"
           d="M 2.03125 -0.015625 C 2.03125 -0.671875 1.78125 -1.0625 1.390625 -1.0625 C 1.0625 -1.0625 0.859375 -0.8125 0.859375 -0.53125 C 0.859375 -0.265625 1.0625 0 1.390625 0 C 1.5 0 1.640625 -0.046875 1.734375 -0.125 C 1.765625 -0.15625 1.78125 -0.15625 1.78125 -0.15625 C 1.796875 -0.15625 1.796875 -0.15625 1.796875 -0.015625 C 1.796875 0.734375 1.453125 1.328125 1.125 1.65625 C 1.015625 1.765625 1.015625 1.78125 1.015625 1.8125 C 1.015625 1.890625 1.0625 1.921875 1.109375 1.921875 C 1.21875 1.921875 2.03125 1.15625 2.03125 -0.015625 Z M 2.03125 -0.015625 "
           id="path6851" />
      </symbol>
      <symbol
         overflow="visible"
         id="symbol4038">
        <path
           style="stroke:none;"
           d="M 3.015625 -3.15625 L 4.71875 -3.15625 C 6.125 -3.15625 7.515625 -4.1875 7.515625 -5.296875 C 7.515625 -6.078125 6.859375 -6.8125 5.546875 -6.8125 L 2.328125 -6.8125 C 2.140625 -6.8125 2.03125 -6.8125 2.03125 -6.625 C 2.03125 -6.5 2.109375 -6.5 2.3125 -6.5 C 2.4375 -6.5 2.625 -6.484375 2.734375 -6.484375 C 2.90625 -6.453125 2.953125 -6.4375 2.953125 -6.3125 C 2.953125 -6.28125 2.953125 -6.25 2.921875 -6.125 L 1.578125 -0.78125 C 1.484375 -0.390625 1.46875 -0.3125 0.671875 -0.3125 C 0.515625 -0.3125 0.40625 -0.3125 0.40625 -0.125 C 0.40625 0 0.515625 0 0.546875 0 C 0.828125 0 1.53125 -0.03125 1.8125 -0.03125 C 2.03125 -0.03125 2.25 -0.015625 2.453125 -0.015625 C 2.671875 -0.015625 2.890625 0 3.09375 0 C 3.171875 0 3.296875 0 3.296875 -0.203125 C 3.296875 -0.3125 3.203125 -0.3125 3.015625 -0.3125 C 2.65625 -0.3125 2.375 -0.3125 2.375 -0.484375 C 2.375 -0.546875 2.390625 -0.59375 2.40625 -0.65625 Z M 3.734375 -6.125 C 3.828125 -6.46875 3.84375 -6.5 4.28125 -6.5 L 5.234375 -6.5 C 6.0625 -6.5 6.59375 -6.234375 6.59375 -5.546875 C 6.59375 -5.15625 6.390625 -4.296875 6 -3.9375 C 5.5 -3.484375 4.90625 -3.40625 4.46875 -3.40625 L 3.0625 -3.40625 Z M 3.734375 -6.125 "
           id="path8408" />
      </symbol>
      <symbol
         overflow="visible"
         id="symbol9856">
        <path
           style="stroke:none;"
           d=""
           id="path6126" />
      </symbol>
      <symbol
         overflow="visible"
         id="symbol1176">
        <path
           style="stroke:none;"
           d="M 2.015625 -3.296875 C 2.078125 -3.40625 2.078125 -3.46875 2.078125 -3.515625 C 2.078125 -3.734375 1.890625 -3.890625 1.671875 -3.890625 C 1.40625 -3.890625 1.328125 -3.671875 1.296875 -3.5625 L 0.375 -0.546875 C 0.359375 -0.53125 0.328125 -0.453125 0.328125 -0.4375 C 0.328125 -0.359375 0.546875 -0.28125 0.609375 -0.28125 C 0.65625 -0.28125 0.65625 -0.296875 0.703125 -0.40625 Z M 2.015625 -3.296875 "
           id="path3185" />
      </symbol>
      <symbol
         overflow="visible"
         id="symbol4588">
        <path
           style="stroke:none;"
           d=""
           id="path6864" />
      </symbol>
      <symbol
         overflow="visible"
         id="symbol7956">
        <path
           style="stroke:none;"
           d="M 6.84375 -3.265625 C 7 -3.265625 7.1875 -3.265625 7.1875 -3.453125 C 7.1875 -3.65625 7 -3.65625 6.859375 -3.65625 L 0.890625 -3.65625 C 0.75 -3.65625 0.5625 -3.65625 0.5625 -3.453125 C 0.5625 -3.265625 0.75 -3.265625 0.890625 -3.265625 Z M 6.859375 -1.328125 C 7 -1.328125 7.1875 -1.328125 7.1875 -1.53125 C 7.1875 -1.71875 7 -1.71875 6.84375 -1.71875 L 0.890625 -1.71875 C 0.75 -1.71875 0.5625 -1.71875 0.5625 -1.53125 C 0.5625 -1.328125 0.75 -1.328125 0.890625 -1.328125 Z M 6.859375 -1.328125 "
           id="path9794" />
      </symbol>
      <symbol
         overflow="visible"
         id="symbol1743">
        <path
           style="stroke:none;"
           d="M 3.296875 2.390625 C 3.296875 2.359375 3.296875 2.34375 3.125 2.171875 C 1.890625 0.921875 1.5625 -0.96875 1.5625 -2.5 C 1.5625 -4.234375 1.9375 -5.96875 3.171875 -7.203125 C 3.296875 -7.328125 3.296875 -7.34375 3.296875 -7.375 C 3.296875 -7.453125 3.265625 -7.484375 3.203125 -7.484375 C 3.09375 -7.484375 2.203125 -6.796875 1.609375 -5.53125 C 1.109375 -4.4375 0.984375 -3.328125 0.984375 -2.5 C 0.984375 -1.71875 1.09375 -0.515625 1.640625 0.625 C 2.25 1.84375 3.09375 2.5 3.203125 2.5 C 3.265625 2.5 3.296875 2.46875 3.296875 2.390625 Z M 3.296875 2.390625 "
           id="path3364" />
      </symbol>
      <symbol
         overflow="visible"
         id="symbol2596">
        <path
           style="stroke:none;"
           d="M 2.875 -2.5 C 2.875 -3.265625 2.765625 -4.46875 2.21875 -5.609375 C 1.625 -6.828125 0.765625 -7.484375 0.671875 -7.484375 C 0.609375 -7.484375 0.5625 -7.4375 0.5625 -7.375 C 0.5625 -7.34375 0.5625 -7.328125 0.75 -7.140625 C 1.734375 -6.15625 2.296875 -4.578125 2.296875 -2.5 C 2.296875 -0.78125 1.9375 0.96875 0.703125 2.21875 C 0.5625 2.34375 0.5625 2.359375 0.5625 2.390625 C 0.5625 2.453125 0.609375 2.5 0.671875 2.5 C 0.765625 2.5 1.671875 1.8125 2.25 0.546875 C 2.765625 -0.546875 2.875 -1.65625 2.875 -2.5 Z M 2.875 -2.5 "
           id="path966" />
      </symbol>
    </g>
  </defs>
  <sodipodi:namedview
     id="base"
     pagecolor="#ffffff"
     bordercolor="#666666"
     borderopacity="1.0"
     inkscape:pageopacity="0.0"
     inkscape:pageshadow="2"
     inkscape:zoom="1.4"
     inkscape:cx="332.19912"
     inkscape:cy="278.73144"
     inkscape:document-units="mm"
     inkscape:current-layer="layer1"
     inkscape:document-rotation="0"
     showgrid="true"
     inkscape:showpageshadow="false"
     inkscape:window-width="1867"
     inkscape:window-height="1136"
     inkscape:window-x="53"
     inkscape:window-y="27"
     inkscape:window-maximized="1">
    <inkscape:grid
       type="xygrid"
       id="grid833" />
  </sodipodi:namedview>
  <metadata
     id="metadata5">
    <rdf:RDF>
      <cc:Work
         rdf:about="">
        <dc:format>image/svg+xml</dc:format>
        <dc:type
           rdf:resource="http://purl.org/dc/dcmitype/StillImage" />
        <dc:title />
      </cc:Work>
    </rdf:RDF>
  </metadata>
  <g
     inkscape:label="Calque 1"
     inkscape:groupmode="layer"
     id="layer1">
    <rect
       style="fill:#999999;fill-rule:evenodd;stroke:#000000;stroke-width:0.247495px;stroke-linecap:butt;stroke-linejoin:miter;stroke-opacity:1"
       id="rect7463-2-5"
       width="18.520832"
       height="13.229167"
       x="15.875"
       y="55.562504" />
    <rect
       style="fill:#999999;fill-rule:evenodd;stroke:#000000;stroke-width:0.247495px;stroke-linecap:butt;stroke-linejoin:miter;stroke-opacity:1"
       id="rect7463-2-9"
       width="18.520832"
       height="13.229167"
       x="37.041668"
       y="55.5625" />
    <rect
       style="fill:#999999;fill-rule:evenodd;stroke:#000000;stroke-width:0.247495px;stroke-linecap:butt;stroke-linejoin:miter;stroke-opacity:1"
       id="rect7463-2"
       width="18.520832"
       height="13.229167"
       x="47.624996"
       y="39.687496" />
    <rect
       style="fill:url(#pattern7439);fill-opacity:1;fill-rule:evenodd;stroke:#000000;stroke-width:0.225931px;stroke-linecap:butt;stroke-linejoin:miter;stroke-opacity:1"
       id="rect845"
       width="18.520836"
       height="13.229167"
       x="15.875"
       y="23.8125" />
    <rect
       style="fill:url(#Checkerboard);fill-rule:evenodd;stroke:#000000;stroke-width:0.225931px;stroke-linecap:butt;stroke-linejoin:miter;stroke-opacity:1;fill-opacity:1.0"
       id="rect845-0"
       width="18.520836"
       height="13.229167"
       x="37.041664"
       y="23.8125" />
    <rect
       style="fill:url(#Wavy);fill-rule:evenodd;stroke:#000000;stroke-width:0.225931px;stroke-linecap:butt;stroke-linejoin:miter;stroke-opacity:1;fill-opacity:1.0"
       id="rect845-0-2"
       width="18.520836"
       height="13.229167"
       x="26.45833"
       y="39.6875" />
    <rect
       style="fill:url(#Wavy);fill-rule:evenodd;stroke:#000000;stroke-width:0.225931px;stroke-linecap:butt;stroke-linejoin:miter;stroke-opacity:1;fill-opacity:1.0"
       id="rect845-0-2-3"
       width="18.520836"
       height="13.229167"
       x="47.625"
       y="39.6875" />
    <rect
       style="fill:url(#Checkerboard);fill-rule:evenodd;stroke:#000000;stroke-width:0.225931px;stroke-linecap:butt;stroke-linejoin:miter;stroke-opacity:1;fill-opacity:1.0"
       id="rect845-0-2-3-7"
       width="18.520836"
       height="13.229167"
       x="5.2916665"
       y="39.6875" />
    <rect
       style="fill:url(#pattern7437);fill-opacity:1;fill-rule:evenodd;stroke:#000000;stroke-width:0.225931px;stroke-linecap:butt;stroke-linejoin:miter;stroke-opacity:1"
       id="rect845-0-2-3-7-5"
       width="18.520836"
       height="13.229167"
       x="15.875"
       y="55.5625" />
    <rect
       style="fill:url(#Checkerboard);fill-rule:evenodd;stroke:#000000;stroke-width:0.225931px;stroke-linecap:butt;stroke-linejoin:miter;stroke-opacity:1;fill-opacity:1.0"
       id="rect845-0-2-3-7-5-9"
       width="18.520836"
       height="13.229167"
       x="37.041664"
       y="55.5625" />
    <path
       style="fill:none;fill-rule:evenodd;stroke:#000000;stroke-width:0.465;stroke-linecap:butt;stroke-linejoin:miter;stroke-miterlimit:4;stroke-dasharray:none;stroke-opacity:1;marker-end:url(#Arrow1Lend)"
       d="m 71.437499,46.302083 c 8.819708,0 17.639154,0 26.458333,0"
       id="path941"
       inkscape:path-effect="#path-effect943"
       inkscape:original-d="m 71.437499,46.302083 c 8.819708,2.65e-4 17.639154,2.65e-4 26.458333,0" />
    <text
       xml:space="preserve"
       style="font-style:normal;font-variant:normal;font-weight:normal;font-stretch:normal;font-size:7.7611px;line-height:125%;font-family:Chandas;-inkscape-font-specification:'Chandas, Normal';font-variant-ligatures:normal;font-variant-caps:normal;font-variant-numeric:normal;font-variant-east-asian:normal;letter-spacing:0px;word-spacing:0px;writing-mode:lr-tb;fill:#010204;fill-opacity:0.999872;stroke:#000000;stroke-width:0.264583px;stroke-linecap:butt;stroke-linejoin:miter;stroke-opacity:1"
       x="110.27455"
       y="49.504295"
       id="text3336"
       inkscape:transform-center-x="67.191854"
       inkscape:transform-center-y="47.248546"><tspan
         sodipodi:role="line"
         id="tspan3382"
         x="110.27455"
         y="49.504295">b</tspan></text>
    <text
       xml:space="preserve"
       style="font-style:normal;font-variant:normal;font-weight:normal;font-stretch:normal;font-size:7.7611px;line-height:125%;font-family:Chandas;-inkscape-font-specification:'Chandas, Normal';font-variant-ligatures:normal;font-variant-caps:normal;font-variant-numeric:normal;font-variant-east-asian:normal;letter-spacing:0px;word-spacing:0px;writing-mode:lr-tb;fill:#010204;fill-opacity:0.999872;stroke:#000000;stroke-width:0.264583px;stroke-linecap:butt;stroke-linejoin:miter;stroke-opacity:1;"
       x="120.70663"
       y="64.602425"
       id="text3336-7"><tspan
         sodipodi:role="line"
         id="tspan7441">b</tspan></text>
    <text
       xml:space="preserve"
       style="font-style:normal;font-variant:normal;font-weight:normal;font-stretch:normal;font-size:7.7611px;line-height:125%;font-family:Chandas;-inkscape-font-specification:'Chandas, Normal';font-variant-ligatures:normal;font-variant-caps:normal;font-variant-numeric:normal;font-variant-east-asian:normal;letter-spacing:0px;word-spacing:0px;writing-mode:lr-tb;fill:#010204;fill-opacity:0.999872;stroke:#000000;stroke-width:0.264583px;stroke-linecap:butt;stroke-linejoin:miter;stroke-opacity:1"
       x="152.6499"
       y="48.727428"
       id="text3336-8"><tspan
         sodipodi:role="line"
         id="tspan3338-8"
         style="fill:#010204;fill-opacity:0.999872;stroke-width:0.264583px"
         x="152.6499"
         y="48.727428">a</tspan></text>
    <text
       xml:space="preserve"
       style="font-style:normal;font-variant:normal;font-weight:normal;font-stretch:normal;font-size:7.7611px;line-height:125%;font-family:Chandas;-inkscape-font-specification:'Chandas, Normal';font-variant-ligatures:normal;font-variant-caps:normal;font-variant-numeric:normal;font-variant-east-asian:normal;letter-spacing:0px;word-spacing:0px;writing-mode:lr-tb;fill:#010204;fill-opacity:0.999872;stroke:#000000;stroke-width:0.264583px;stroke-linecap:butt;stroke-linejoin:miter;stroke-opacity:1"
       x="132.57872"
       y="48.727428"
       id="text3336-4"><tspan
         sodipodi:role="line"
         id="tspan3338-3"
         style="fill:#010204;fill-opacity:0.999872;stroke-width:0.264583px"
         x="132.57872"
         y="48.727428">a</tspan></text>
    <text
       xml:space="preserve"
       style="font-style:normal;font-variant:normal;font-weight:normal;font-stretch:normal;font-size:7.7611px;line-height:125%;font-family:Chandas;-inkscape-font-specification:'Chandas, Normal';font-variant-ligatures:normal;font-variant-caps:normal;font-variant-numeric:normal;font-variant-east-asian:normal;letter-spacing:0px;word-spacing:0px;writing-mode:lr-tb;fill:#010204;fill-opacity:0.999872;stroke:#000000;stroke-width:0.264583px;stroke-linecap:butt;stroke-linejoin:miter;stroke-opacity:1;"
       x="120.94608"
       y="32.852436"
       id="text3336-71"><tspan
         sodipodi:role="line"
         id="tspan7443">b</tspan></text>
    <text
       xml:space="preserve"
       style="font-style:normal;font-variant:normal;font-weight:normal;font-stretch:normal;font-size:7.7611px;line-height:125%;font-family:Chandas;-inkscape-font-specification:'Chandas, Normal';font-variant-ligatures:normal;font-variant-caps:normal;font-variant-numeric:normal;font-variant-east-asian:normal;letter-spacing:0px;word-spacing:0px;writing-mode:lr-tb;fill:#010204;fill-opacity:0.999872;stroke:#000000;stroke-width:0.264583px;stroke-linecap:butt;stroke-linejoin:miter;stroke-opacity:1"
       x="142.55382"
       y="65.379295"
       id="text3336-1"
       inkscape:transform-center-x="67.191854"
       inkscape:transform-center-y="47.248546"><tspan
         sodipodi:role="line"
         id="tspan3382-7"
         x="142.55382"
         y="65.379295"
         style="stroke-width:0.264583px">b</tspan></text>
    <text
       xml:space="preserve"
       style="font-style:normal;font-variant:normal;font-weight:normal;font-stretch:normal;font-size:7.7611px;line-height:125%;font-family:Chandas;-inkscape-font-specification:'Chandas, Normal';font-variant-ligatures:normal;font-variant-caps:normal;font-variant-numeric:normal;font-variant-east-asian:normal;letter-spacing:0px;word-spacing:0px;writing-mode:lr-tb;fill:#010204;fill-opacity:0.999872;stroke:#000000;stroke-width:0.264583px;stroke-linecap:butt;stroke-linejoin:miter;stroke-opacity:1"
       x="141.2294"
       y="33.629303"
       id="text3336-5"
       inkscape:transform-center-x="67.191854"
       inkscape:transform-center-y="47.248546"><tspan
         sodipodi:role="line"
         id="tspan3382-1"
         x="141.2294"
         y="33.629303"
         style="stroke-width:0.264583px">b</tspan></text>
    <g
       inkscape:label=""
       transform="translate(36.375,-1.203125)"
       id="g3567">
      <g
         id="g2418">
        <g
           style="fill:#000000;fill-opacity:1"
           id="g6440">
          <use
             xlink:href="#symbol2803"
             x="91.925003"
             y="81.962997"
             id="use7367"
             width="100%"
             height="100%" />
        </g>
      </g>
    </g>
    <g
       inkscape:label=""
       transform="translate(-9.9730863,-42.07244)"
       id="g3660">
      <g
         id="g891">
        <g
           style="fill:#000000;fill-opacity:1"
           id="g3925">
          <use
             xlink:href="#symbol8066"
             x="91.925003"
             y="81.962997"
             id="use3456"
             width="100%"
             height="100%" />
        </g>
      </g>
    </g>
    <g
       inkscape:label=""
       transform="translate(-82.857808,-0.51250903)"
       id="g7389">
      <g
         id="g5076">
        <g
           style="fill:#000000;fill-opacity:1"
           id="g6552">
          <use
             xlink:href="#symbol548"
             x="91.925003"
             y="81.962997"
             id="use3524"
             width="100%"
             height="100%" />
        </g>
        <g
           style="fill:#000000;fill-opacity:1"
           id="g1266">
          <use
             xlink:href="#symbol1176"
             x="100.45"
             y="78.348"
             id="use1446"
             width="100%"
             height="100%" />
        </g>
        <g
           style="fill:#000000;fill-opacity:1"
           id="g6878">
          <use
             xlink:href="#symbol7956"
             x="106.013"
             y="81.962997"
             id="use9456"
             width="100%"
             height="100%" />
        </g>
        <g
           style="fill:#000000;fill-opacity:1"
           id="g2723">
          <use
             xlink:href="#symbol1743"
             x="116.53151"
             y="81.962997"
             id="use1877"
             width="100%"
             height="100%" />
        </g>
        <g
           style="fill:#000000;fill-opacity:1"
           id="g6048">
          <use
             xlink:href="#symbol5004"
             x="120.403"
             y="81.962997"
             id="use3965"
             width="100%"
             height="100%" />
        </g>
        <g
           style="fill:#000000;fill-opacity:1"
           id="g4260">
          <use
             xlink:href="#symbol6195"
             x="128.88615"
             y="81.962997"
             id="use2395"
             width="100%"
             height="100%" />
        </g>
        <g
           style="fill:#000000;fill-opacity:1"
           id="g4350">
          <use
             xlink:href="#symbol4038"
             x="133.31752"
             y="81.962997"
             id="use5087"
             width="100%"
             height="100%" />
        </g>
        <g
           style="fill:#000000;fill-opacity:1"
           id="g1452">
          <use
             xlink:href="#symbol1176"
             x="141.093"
             y="78.348"
             id="use279"
             width="100%"
             height="100%" />
        </g>
        <g
           style="fill:#000000;fill-opacity:1"
           id="g128">
          <use
             xlink:href="#symbol2596"
             x="143.888"
             y="81.962997"
             id="use9796"
             width="100%"
             height="100%" />
        </g>
      </g>
    </g>
  </g>
</svg>
