<?xml version="1.0" encoding="UTF-8" standalone="no"?>
<!-- Created with Inkscape (http://www.inkscape.org/) -->

<svg
   width="297mm"
   height="210mm"
   viewBox="0 0 297 210"
   version="1.1"
   id="svg1"
   inkscape:version="1.3.2 (1:1.3.2+202311252150+091e20ef0f)"
   sodipodi:docname="vit_illustration2.svg"
   inkscape:export-filename="vit_illustration.png"
   inkscape:export-xdpi="96"
   inkscape:export-ydpi="96"
   xmlns:inkscape="http://www.inkscape.org/namespaces/inkscape"
   xmlns:sodipodi="http://sodipodi.sourceforge.net/DTD/sodipodi-0.dtd"
   xmlns="http://www.w3.org/2000/svg"
   xmlns:svg="http://www.w3.org/2000/svg">
  <sodipodi:namedview
     id="namedview1"
     pagecolor="#ffffff"
     bordercolor="#000000"
     borderopacity="0.25"
     inkscape:showpageshadow="2"
     inkscape:pageopacity="0.0"
     inkscape:pagecheckerboard="0"
     inkscape:deskcolor="#d1d1d1"
     inkscape:document-units="mm"
     showgrid="true"
     inkscape:zoom="1"
     inkscape:cx="548"
     inkscape:cy="411.5"
     inkscape:window-width="1920"
     inkscape:window-height="1163"
     inkscape:window-x="0"
     inkscape:window-y="0"
     inkscape:window-maximized="1"
     inkscape:current-layer="layer1">
    <inkscape:grid
       id="grid1"
       units="px"
       originx="0"
       originy="0"
       spacingx="0.26458334"
       spacingy="0.26458333"
       empcolor="#0099e5"
       empopacity="0.30196078"
       color="#0099e5"
       opacity="0.14901961"
       empspacing="5"
       dotted="false"
       gridanglex="30"
       gridanglez="30"
       visible="true" />
  </sodipodi:namedview>
  <defs
     id="defs1">
    <marker
       style="overflow:visible"
       id="Triangle-7"
       refX="0"
       refY="0"
       orient="auto-start-reverse"
       inkscape:stockid="Triangle arrow"
       markerWidth="1"
       markerHeight="1"
       viewBox="0 0 1 1"
       inkscape:isstock="true"
       inkscape:collect="always"
       preserveAspectRatio="xMidYMid">
      <path
         transform="scale(0.5)"
         style="fill:context-stroke;fill-rule:evenodd;stroke:context-stroke;stroke-width:1pt"
         d="M 5.77,0 -2.88,5 V -5 Z"
         id="path135-59" />
    </marker>
    <marker
       style="overflow:visible"
       id="Triangle-1-2"
       refX="0"
       refY="0"
       orient="auto-start-reverse"
       inkscape:stockid="Triangle arrow"
       markerWidth="1"
       markerHeight="1"
       viewBox="0 0 1 1"
       inkscape:isstock="true"
       inkscape:collect="always"
       preserveAspectRatio="xMidYMid">
      <path
         transform="scale(0.5)"
         style="fill:context-stroke;fill-rule:evenodd;stroke:context-stroke;stroke-width:1pt"
         d="M 5.77,0 -2.88,5 V -5 Z"
         id="path135-6-2" />
    </marker>
    <marker
       style="overflow:visible"
       id="Triangle-7-6"
       refX="0"
       refY="0"
       orient="auto-start-reverse"
       inkscape:stockid="Triangle arrow"
       markerWidth="1"
       markerHeight="1"
       viewBox="0 0 1 1"
       inkscape:isstock="true"
       inkscape:collect="always"
       preserveAspectRatio="xMidYMid">
      <path
         transform="scale(0.5)"
         style="fill:context-stroke;fill-rule:evenodd;stroke:context-stroke;stroke-width:1pt"
         d="M 5.77,0 -2.88,5 V -5 Z"
         id="path135-59-1" />
    </marker>
    <marker
       style="overflow:visible"
       id="Triangle-1-2-0"
       refX="0"
       refY="0"
       orient="auto-start-reverse"
       inkscape:stockid="Triangle arrow"
       markerWidth="1"
       markerHeight="1"
       viewBox="0 0 1 1"
       inkscape:isstock="true"
       inkscape:collect="always"
       preserveAspectRatio="xMidYMid">
      <path
         transform="scale(0.5)"
         style="fill:context-stroke;fill-rule:evenodd;stroke:context-stroke;stroke-width:1pt"
         d="M 5.77,0 -2.88,5 V -5 Z"
         id="path135-6-2-6" />
    </marker>
    <marker
       style="overflow:visible"
       id="Triangle-8-6"
       refX="0"
       refY="0"
       orient="auto-start-reverse"
       inkscape:stockid="Triangle arrow"
       markerWidth="1"
       markerHeight="1"
       viewBox="0 0 1 1"
       inkscape:isstock="true"
       inkscape:collect="always"
       preserveAspectRatio="xMidYMid">
      <path
         transform="scale(0.5)"
         style="fill:context-stroke;fill-rule:evenodd;stroke:context-stroke;stroke-width:1pt"
         d="M 5.77,0 -2.88,5 V -5 Z"
         id="path135-8-21" />
    </marker>
    <marker
       style="overflow:visible"
       id="Triangle-8-6-5"
       refX="0"
       refY="0"
       orient="auto-start-reverse"
       inkscape:stockid="Triangle arrow"
       markerWidth="1"
       markerHeight="1"
       viewBox="0 0 1 1"
       inkscape:isstock="true"
       inkscape:collect="always"
       preserveAspectRatio="xMidYMid">
      <path
         transform="scale(0.5)"
         style="fill:context-stroke;fill-rule:evenodd;stroke:context-stroke;stroke-width:1pt"
         d="M 5.77,0 -2.88,5 V -5 Z"
         id="path135-8-21-4" />
    </marker>
    <marker
       style="overflow:visible"
       id="Triangle-7-6-9"
       refX="0"
       refY="0"
       orient="auto-start-reverse"
       inkscape:stockid="Triangle arrow"
       markerWidth="1"
       markerHeight="1"
       viewBox="0 0 1 1"
       inkscape:isstock="true"
       inkscape:collect="always"
       preserveAspectRatio="xMidYMid">
      <path
         transform="scale(0.5)"
         style="fill:context-stroke;fill-rule:evenodd;stroke:context-stroke;stroke-width:1pt"
         d="M 5.77,0 -2.88,5 V -5 Z"
         id="path135-59-1-2" />
    </marker>
    <marker
       style="overflow:visible"
       id="Triangle-1-2-0-6"
       refX="0"
       refY="0"
       orient="auto-start-reverse"
       inkscape:stockid="Triangle arrow"
       markerWidth="1"
       markerHeight="1"
       viewBox="0 0 1 1"
       inkscape:isstock="true"
       inkscape:collect="always"
       preserveAspectRatio="xMidYMid">
      <path
         transform="scale(0.5)"
         style="fill:context-stroke;fill-rule:evenodd;stroke:context-stroke;stroke-width:1pt"
         d="M 5.77,0 -2.88,5 V -5 Z"
         id="path135-6-2-6-6" />
    </marker>
    <marker
       style="overflow:visible"
       id="Triangle-8-6-5-1"
       refX="0"
       refY="0"
       orient="auto-start-reverse"
       inkscape:stockid="Triangle arrow"
       markerWidth="1"
       markerHeight="1"
       viewBox="0 0 1 1"
       inkscape:isstock="true"
       inkscape:collect="always"
       preserveAspectRatio="xMidYMid">
      <path
         transform="scale(0.5)"
         style="fill:context-stroke;fill-rule:evenodd;stroke:context-stroke;stroke-width:1pt"
         d="M 5.77,0 -2.88,5 V -5 Z"
         id="path135-8-21-4-5" />
    </marker>
  </defs>
  <g
     inkscape:label="Calque 1"
     inkscape:groupmode="layer"
     id="layer1">
    <path
       style="fill:#ffffff;fill-opacity:1;stroke:#0000ff;stroke-width:0.8;stroke-miterlimit:0;stroke-dasharray:none;stroke-opacity:1"
       d="m 47.0082,119.10803 -0.04155,8.21537 76.5987,-0.0325 -0.2771,-8.21496"
       id="path2-9-0" />
    <path
       style="fill:#ffffff;fill-opacity:1;stroke:#0000ff;stroke-width:0.8;stroke-miterlimit:0;stroke-dasharray:none;stroke-opacity:1"
       d="m 43.377613,116.3465 -0.04155,8.21537 76.598837,-0.0325 -0.2771,-8.21496"
       id="path2-9" />
    <g
       id="g5-9-2"
       transform="translate(-46.460883,3.9492506)">
      <ellipse
         style="fill:#917c6f;stroke:#000000;stroke-width:0.79375;stroke-miterlimit:0;stroke-opacity:1"
         id="path2-0-3-9"
         cx="66.812645"
         cy="86.257698"
         rx="0.57951146"
         ry="0.71121532" />
      <ellipse
         style="fill:#917c6f;stroke:#000000;stroke-width:0.79375;stroke-miterlimit:0;stroke-opacity:1"
         id="path2-8-3-7-7"
         cx="66.812645"
         cy="92.279503"
         rx="0.57951146"
         ry="0.71121532" />
      <ellipse
         style="fill:#917c6f;stroke:#000000;stroke-width:0.79375;stroke-miterlimit:0;stroke-opacity:1"
         id="path2-8-6-6-4-5"
         cx="66.812645"
         cy="98.3013"
         rx="0.57951146"
         ry="0.71121532" />
    </g>
    <g
       id="g5-9-2-3"
       transform="translate(80.671702,-3.512745)">
      <ellipse
         style="fill:#917c6f;stroke:#000000;stroke-width:0.79375;stroke-miterlimit:0;stroke-opacity:1"
         id="path2-0-3-9-1"
         cx="66.812645"
         cy="86.257698"
         rx="0.57951146"
         ry="0.71121532" />
      <ellipse
         style="fill:#917c6f;stroke:#000000;stroke-width:0.79375;stroke-miterlimit:0;stroke-opacity:1"
         id="path2-8-3-7-7-9"
         cx="66.812645"
         cy="92.279503"
         rx="0.57951146"
         ry="0.71121532" />
      <ellipse
         style="fill:#917c6f;stroke:#000000;stroke-width:0.79375;stroke-miterlimit:0;stroke-opacity:1"
         id="path2-8-6-6-4-5-4"
         cx="66.812645"
         cy="98.3013"
         rx="0.57951146"
         ry="0.71121532" />
    </g>
    <rect
       style="fill:#917c6f;stroke:#000000;stroke-width:0.79375;stroke-miterlimit:0;stroke-opacity:1"
       id="rect4-6"
       width="13.331977"
       height="2.4319494"
       x="13.686068"
       y="62.854656" />
    <rect
       style="fill:#917c6f;stroke:#000000;stroke-width:0.79375;stroke-miterlimit:0;stroke-opacity:1"
       id="rect4-6-4"
       width="13.331977"
       height="2.4319494"
       x="13.675631"
       y="47.885147" />
    <rect
       style="fill:#917c6f;stroke:#000000;stroke-width:0.8;stroke-miterlimit:0;stroke-dasharray:none;stroke-opacity:1"
       id="rect4-6-4-0"
       width="12.229253"
       height="15.134747"
       x="141.36972"
       y="37.270443" />
    <rect
       style="fill:#917c6f;stroke:#000000;stroke-width:0.8;stroke-miterlimit:0;stroke-dasharray:none;stroke-opacity:1"
       id="rect4-6-4-0-1"
       width="12.229253"
       height="15.134747"
       x="141.36972"
       y="52.168999" />
    <rect
       style="fill:#917c6f;stroke:#000000;stroke-width:0.8;stroke-miterlimit:0;stroke-dasharray:none;stroke-opacity:1"
       id="rect4-6-4-0-1-5"
       width="12.229253"
       height="15.134747"
       x="141.36972"
       y="110.24656" />
    <rect
       style="fill:#917c6f;stroke:#000000;stroke-width:0.79375;stroke-miterlimit:0;stroke-opacity:1"
       id="rect4-3-4"
       width="13.331977"
       height="2.4319494"
       x="13.686068"
       y="77.797112" />
    <rect
       style="fill:#917c6f;stroke:#000000;stroke-width:0.79375;stroke-miterlimit:0;stroke-opacity:1"
       id="rect4-3-1-3"
       width="13.331977"
       height="2.4319494"
       x="13.686068"
       y="112.45914"
       inkscape:export-filename="vit_illustration.png"
       inkscape:export-xdpi="96"
       inkscape:export-ydpi="96" />
    <text
       xml:space="preserve"
       style="font-size:5.64444px;fill:#800000;stroke:#a20000;stroke-width:0.79375;stroke-miterlimit:0;stroke-opacity:1;opacity:0.16"
       x="39.375931"
       y="50.944584"
       id="text5"><tspan
         sodipodi:role="line"
         id="tspan5"
         style="font-size:5.64444px;stroke-width:0.79375"
         x="39.375931"
         y="50.944584" /></text>
    <text
       xml:space="preserve"
       style="font-size:5.64444px;opacity:0.16;fill:#800000;stroke:#a20000;stroke-width:0.79375;stroke-miterlimit:0;stroke-opacity:1"
       x="39.154675"
       y="49.051441"
       id="text6"><tspan
         sodipodi:role="line"
         id="tspan6"
         style="stroke-width:0.79375" /></text>
    <text
       xml:space="preserve"
       style="font-size:5.64444px;opacity:0.16;fill:#800000;stroke:#a20000;stroke-width:0.79375;stroke-miterlimit:0;stroke-opacity:1"
       x="85.322182"
       y="134.23946"
       id="text7"><tspan
         sodipodi:role="line"
         id="tspan7"
         style="stroke-width:0.79375"
         x="85.322182"
         y="134.23946" /></text>
    <text
       xml:space="preserve"
       style="font-size:5.64444px;opacity:0.16;fill:#800000;stroke:#a20000;stroke-width:0.79375;stroke-miterlimit:0;stroke-opacity:1"
       x="120.40829"
       y="153.65649"
       id="text8"><tspan
         sodipodi:role="line"
         id="tspan8"
         style="stroke-width:0.79375"
         x="120.40829"
         y="153.65649" /></text>
    <text
       xml:space="preserve"
       style="font-size:5.64444px;opacity:0.16;fill:#800000;stroke:#a20000;stroke-width:0.79375;stroke-miterlimit:0;stroke-opacity:1;fill-opacity:1"
       x="148.70175"
       y="151.31767"
       id="text9"><tspan
         sodipodi:role="line"
         id="tspan9"
         style="stroke-width:0.79375;fill:#800000;fill-opacity:1"
         x="148.70175"
         y="151.31767" /></text>
    <text
       xml:space="preserve"
       style="font-size:5.64444px;opacity:0.16;fill:#800000;fill-opacity:1;stroke:#a20000;stroke-width:0.79375;stroke-miterlimit:0;stroke-opacity:1"
       x="122.51779"
       y="161.8963"
       id="text10"><tspan
         sodipodi:role="line"
         id="tspan10"
         style="stroke-width:0.79375" /></text>
    <text
       xml:space="preserve"
       style="font-size:5.64444px;opacity:0.16;fill:#800000;fill-opacity:1;stroke:#a20000;stroke-width:0.79375;stroke-miterlimit:0;stroke-opacity:1"
       x="50.2356"
       y="140.45625"
       id="text11"><tspan
         sodipodi:role="line"
         id="tspan11"
         style="stroke-width:0.79375;stroke:#a20000;stroke-opacity:1"
         x="50.2356"
         y="140.45625" /></text>
    <text
       xml:space="preserve"
       style="font-size:5.64444px;opacity:1;fill:#800000;fill-opacity:1;stroke:#af0000;stroke-width:0.2;stroke-miterlimit:0;stroke-dasharray:none;stroke-opacity:0.999931"
       x="136.33881"
       y="76.032913"
       id="text14"><tspan
         sodipodi:role="line"
         id="tspan14"
         style="stroke-width:0.2" /></text>
    <text
       xml:space="preserve"
       style="font-size:5.64444px;fill:#008000;fill-opacity:1;stroke:#08b100;stroke-width:0.2;stroke-miterlimit:0;stroke-dasharray:none;stroke-opacity:0.999931"
       x="40.094158"
       y="56.486328"
       id="text17-3"><tspan
         sodipodi:role="line"
         id="tspan17-8"
         style="stroke-width:0.2;stroke-dasharray:none"
         x="40.094158"
         y="56.486328">D</tspan></text>
    <text
       xml:space="preserve"
       style="font-size:5.64444px;fill:#008000;fill-opacity:1;stroke:#08b100;stroke-width:0.2;stroke-miterlimit:0;stroke-dasharray:none;stroke-opacity:0.999931"
       x="40.233181"
       y="82.797035"
       id="text17-3-2"><tspan
         sodipodi:role="line"
         id="tspan17-8-7"
         style="stroke-width:0.2;stroke-dasharray:none"
         x="40.233181"
         y="82.797035">D</tspan></text>
    <text
       xml:space="preserve"
       style="font-size:5.64444px;fill:#008000;fill-opacity:1;stroke:#08b100;stroke-width:0.2;stroke-miterlimit:0;stroke-dasharray:none;stroke-opacity:0.999931"
       x="39.548992"
       y="109.36441"
       id="text17-3-2-6"><tspan
         sodipodi:role="line"
         id="tspan17-8-7-3"
         style="stroke-width:0.2;stroke-dasharray:none"
         x="39.548992"
         y="109.36441">D</tspan></text>
    <text
       xml:space="preserve"
       style="font-size:5.64444px;fill:#008000;fill-opacity:1;stroke:#08b100;stroke-width:0.2;stroke-miterlimit:0;stroke-dasharray:none;stroke-opacity:0.999931"
       x="180.75189"
       y="102.99734"
       id="text17-3-2-6-2"><tspan
         sodipodi:role="line"
         id="tspan17-8-7-3-0"
         style="stroke-width:0.2;stroke-dasharray:none"
         x="180.75189"
         y="102.99734">D</tspan></text>
    <text
       xml:space="preserve"
       style="font-size:5.64444px;fill:#008000;fill-opacity:1;stroke:#08b100;stroke-width:0.2;stroke-miterlimit:0;stroke-dasharray:none;stroke-opacity:0.999931"
       x="18.97286"
       y="44.27663"
       id="text17-3-2-6-5"><tspan
         sodipodi:role="line"
         id="tspan17-8-7-3-3"
         style="stroke-width:0.2;stroke-dasharray:none"
         x="18.97286"
         y="44.27663">D</tspan></text>
    <rect
       style="opacity:1;fill:none;fill-opacity:1;stroke:#af0000;stroke-width:0.894127;stroke-miterlimit:0;stroke-dasharray:none;stroke-opacity:0.999931"
       id="rect17"
       width="10.858356"
       height="13.994572"
       x="46.721035"
       y="47.408878" />
    <text
       xml:space="preserve"
       style="font-size:5.64444px;opacity:1;fill:#af0000;fill-opacity:1;stroke:#af0000;stroke-width:0.2;stroke-miterlimit:0;stroke-dasharray:none;stroke-opacity:0.999931"
       x="47.807705"
       y="56.234982"
       id="text18"><tspan
         sodipodi:role="line"
         id="tspan18"
         style="fill:#af0000;fill-opacity:1;stroke-width:0.2;stroke-dasharray:none"
         x="47.807705"
         y="56.234982">W<tspan
   style="font-size:65%;baseline-shift:sub"
   id="tspan19">Q</tspan></tspan></text>
    <rect
       style="fill:none;fill-opacity:1;stroke:#af0000;stroke-width:0.87128;stroke-miterlimit:0;stroke-dasharray:none;stroke-opacity:0.999931"
       id="rect17-8"
       width="10.293732"
       height="14.017419"
       x="47.263638"
       y="73.626404" />
    <text
       xml:space="preserve"
       style="font-size:5.64444px;fill:#af0000;fill-opacity:1;stroke:#af0000;stroke-width:0.2;stroke-miterlimit:0;stroke-dasharray:none;stroke-opacity:0.999931"
       x="48.362637"
       y="82.669815"
       id="text18-5"><tspan
         sodipodi:role="line"
         id="tspan18-3"
         style="fill:#af0000;fill-opacity:1;stroke-width:0.2;stroke-dasharray:none"
         x="48.362637"
         y="82.669815">W<tspan
   style="font-size:65%;baseline-shift:sub"
   id="tspan20">K</tspan></tspan></text>
    <text
       xml:space="preserve"
       style="font-size:5.64444px;fill:#af0000;fill-opacity:1;stroke:#af0000;stroke-width:0.2;stroke-miterlimit:0;stroke-dasharray:none;stroke-opacity:0.999931"
       x="48.793758"
       y="108.95874"
       id="text18-1"><tspan
         sodipodi:role="line"
         id="tspan18-5"
         style="fill:#af0000;fill-opacity:1;stroke-width:0.2;stroke-dasharray:none"
         x="48.793758"
         y="108.95874">W<tspan
   style="font-size:65%;baseline-shift:sub"
   id="tspan19-5">V</tspan></tspan></text>
    <text
       xml:space="preserve"
       style="font-size:5.64444px;opacity:1;fill:#af0000;fill-opacity:1;stroke:#af0000;stroke-width:0.2;stroke-miterlimit:0;stroke-dasharray:none;stroke-opacity:0.999931"
       x="211.92294"
       y="97.954681"
       id="text21"><tspan
         sodipodi:role="line"
         id="tspan21"
         style="stroke-width:0.2" /></text>
    <text
       xml:space="preserve"
       style="font-size:5.64444px;opacity:1;fill:#af0000;fill-opacity:1;stroke:#af0000;stroke-width:0.2;stroke-miterlimit:0;stroke-dasharray:none;stroke-opacity:0.999931"
       x="186.01892"
       y="136.34537"
       id="text22"><tspan
         sodipodi:role="line"
         id="tspan22"
         style="stroke-width:0.2"
         x="186.01892"
         y="136.34537" /><tspan
         sodipodi:role="line"
         style="stroke-width:0.2"
         id="tspan23"
         x="186.01892"
         y="143.40092" /></text>
    <text
       xml:space="preserve"
       style="font-size:5.64444px;opacity:1;fill:#008000;fill-opacity:1;stroke:#008000;stroke-width:0.2;stroke-miterlimit:0;stroke-dasharray:none;stroke-opacity:0.999931"
       x="49.315243"
       y="44.238586"
       id="text24"><tspan
         sodipodi:role="line"
         id="tspan24"
         style="fill:#008000;stroke:#008000;stroke-width:0.2"
         x="49.315243"
         y="44.238586">d<tspan
   style="font-size:65%;baseline-shift:sub;fill:#008000;stroke:#008000"
   id="tspan25">K</tspan></tspan></text>
    <text
       xml:space="preserve"
       style="font-size:5.64444px;fill:#008000;fill-opacity:1;stroke:#008000;stroke-width:0.2;stroke-miterlimit:0;stroke-dasharray:none;stroke-opacity:0.999931"
       x="49.760418"
       y="70.498116"
       id="text24-4"><tspan
         sodipodi:role="line"
         id="tspan24-4"
         style="fill:#008000;stroke:#008000;stroke-width:0.2"
         x="49.760418"
         y="70.498116">d<tspan
   style="font-size:65%;baseline-shift:sub;fill:#008000;stroke:#008000"
   id="tspan25-3">K</tspan></tspan></text>
    <text
       xml:space="preserve"
       style="font-size:5.64444px;fill:#008000;fill-opacity:1;stroke:#008000;stroke-width:0.2;stroke-miterlimit:0;stroke-dasharray:none;stroke-opacity:0.999931"
       x="49.970943"
       y="96.885941"
       id="text24-5"><tspan
         sodipodi:role="line"
         id="tspan24-8"
         style="fill:#008000;stroke:#008000;stroke-width:0.2"
         x="49.970943"
         y="96.885941">d<tspan
   style="font-size:65%;baseline-shift:sub;fill:#008000;stroke:#008000"
   id="tspan25-9">V</tspan></tspan></text>
    <text
       xml:space="preserve"
       style="font-size:5.64444px;fill:#008000;fill-opacity:1;stroke:#008000;stroke-width:0.2;stroke-miterlimit:0;stroke-dasharray:none;stroke-opacity:0.999931"
       x="144.72357"
       y="33.96529"
       id="text24-5-3"><tspan
         sodipodi:role="line"
         id="tspan24-8-7"
         style="fill:#008000;stroke:#008000;stroke-width:0.2"
         x="144.72357"
         y="33.96529">d<tspan
   style="font-size:65%;baseline-shift:sub;fill:#008000;stroke:#008000"
   id="tspan25-9-4">V</tspan></tspan></text>
    <text
       xml:space="preserve"
       style="font-size:5.64444px;fill:#008000;fill-opacity:1;stroke:#008000;stroke-width:0.2;stroke-miterlimit:0;stroke-dasharray:none;stroke-opacity:0.999931"
       x="168.09132"
       y="91.347954"
       id="text24-5-3-8"><tspan
         sodipodi:role="line"
         id="tspan24-8-7-4"
         style="fill:#008000;stroke:#008000;stroke-width:0.2"
         x="168.09132"
         y="91.347954">d<tspan
   style="font-size:65%;baseline-shift:sub;fill:#008000;stroke:#008000"
   id="tspan25-9-4-3">V</tspan></tspan></text>
    <circle
       id="path25"
       style="fill:#008000;stroke:#008000;stroke-width:0.264583"
       cx="57.559402"
       cy="167.43103"
       r="0.00066106382" />
    <circle
       id="path26"
       style="fill:#008000;stroke:#008000;stroke-width:0.264583"
       cx="82.298119"
       cy="156.77797"
       r="0.00066106382" />
    <circle
       id="path27"
       style="fill:#008000;stroke:#008000;stroke-width:0.264583"
       cx="107.79061"
       cy="177.07236"
       r="0.00066106382" />
    <path
       style="opacity:1;fill:#800000;fill-opacity:1;stroke:#800000;stroke-width:0.2;stroke-miterlimit:0;stroke-dasharray:none;stroke-opacity:0.999931"
       id="path29"
       d="m 27.570156,113.16681 c 0.68449,-0.66808 1.34119,-1.36289 1.97561,-2.07846 0.49743,-0.5702 0.97493,-1.15139 1.3905,-1.78408 0.53938,-0.82421 0.95303,-1.71467 1.32853,-2.6223 0.44108,-1.12422 0.84131,-2.26405 1.24192,-3.40318 0.47569,-1.28488 0.82279,-2.61071 1.1542,-3.938459 0.34231,-1.398704 0.59712,-2.816609 0.84744,-4.234027 0.26241,-1.550961 0.414,-3.116847 0.54861,-4.683053 0.10745,-1.35785 0.19438,-2.71675 0.24473,-4.077912 0.0475,-0.992661 0.0889,-1.985473 0.10843,-2.979097 0.006,-0.976993 0.0188,-1.953337 0.0656,-2.929311 0.0608,-1.115965 0.13878,-2.231091 0.22919,-3.345045 0.0902,-1.123482 0.23489,-2.241267 0.41885,-3.352953 0.18099,-0.981335 0.42942,-1.949207 0.72186,-2.90281 0.32616,-0.957265 0.64777,-1.915777 1.02357,-2.854928 0.31386,-0.755587 0.63257,-1.509779 1.0233,-2.229221 0.45532,-0.740203 0.88306,-1.496316 1.32123,-2.246532 0.35276,-0.577127 0.71916,-1.145669 1.08046,-1.71745 0.55338,-0.875858 1.05377,-1.783339 1.56093,-2.686251 0.33154,-0.597265 0.66721,-1.192424 1.04737,-1.76027 0.36364,-0.51226 0.71589,-1.034114 1.10736,-1.525842 0.12234,-0.151767 0.25712,-0.290615 0.45422,-0.325863 0.0772,-0.01471 0.0388,-0.0078 0.1152,-0.02077 0,0 -0.0814,-0.05709 -0.0814,-0.05709 v 0 c -0.0765,0.01318 -0.0381,0.0062 -0.11528,0.02093 -0.19791,0.03913 -0.33394,0.178809 -0.45688,0.332534 -0.39033,0.492892 -0.74245,1.015013 -1.10652,1.527254 -0.38084,0.567772 -0.71659,1.163111 -1.04694,1.7614 -0.5063,0.903206 -1.00593,1.810968 -1.56125,2.685476 -0.36217,0.571365 -0.72863,1.140013 -1.08058,1.717784 -0.43747,0.75076 -0.86535,1.506879 -1.32165,2.24663 -0.39118,0.719672 -0.70854,1.474933 -1.02297,2.230691 -0.37555,0.939575 -0.69729,1.898314 -1.02346,2.855899 -0.29324,0.953768 -0.54172,1.922069 -0.72269,2.903802 -0.18351,1.112065 -0.32784,2.230187 -0.41877,3.353896 -0.0902,1.114031 -0.16866,2.229196 -0.22952,3.345219 -0.0472,0.975924 -0.0612,1.952236 -0.0664,2.929202 -0.0197,0.993712 -0.0597,1.986688 -0.10743,2.979436 -0.049,1.361327 -0.13549,2.720385 -0.24287,4.078357 -0.13448,1.565904 -0.28507,3.131632 -0.54859,4.68213 -0.25029,1.417224 -0.5051,2.834899 -0.84706,4.233484 -0.33115,1.32745 -0.67932,2.65261 -1.15468,3.9372 -0.40101,1.13879 -0.80057,2.27866 -1.24205,3.40252 -0.37563,0.9069 -0.78979,1.79642 -1.32908,2.61991 -0.41555,0.63208 -0.89325,1.21255 -1.38942,1.78311 -0.63396,0.71589 -1.28976,1.41159 -1.97672,2.0771 z" />
    <path
       style="opacity:1;fill:#800000;fill-opacity:1;stroke:#800000;stroke-width:0.2;stroke-miterlimit:0;stroke-dasharray:none;stroke-opacity:0.999931"
       id="path30"
       d="m 27.568736,79.024514 c 0.38181,-0.423471 0.77466,-0.83698 1.16489,-1.252733 0.41391,-0.461256 0.83643,-0.914564 1.25003,-1.37609 0.39767,-0.465048 0.74447,-0.969346 1.0475,-1.500132 0.3134,-0.574286 0.58042,-1.173001 0.83362,-1.775825 0.31229,-0.783088 0.58815,-1.579084 0.82018,-2.389471 0.23496,-0.839777 0.44231,-1.68683 0.62768,-2.538833 0.12042,-0.746535 0.47523,-1.404911 0.83622,-2.05749 0.39486,-0.712737 0.83778,-1.396323 1.322,-2.05119 0.35642,-0.47357 0.75735,-0.908095 1.18394,-1.318268 0.48113,-0.453012 0.95596,-0.91258 1.42796,-1.375066 0.48529,-0.463386 0.94115,-0.955559 1.40184,-1.442964 0.4376,-0.438189 0.90962,-0.840157 1.36523,-1.259363 0.40074,-0.394134 0.82802,-0.756502 1.31612,-1.036839 0.26618,-0.165645 0.5719,-0.217966 0.86495,-0.307443 0.46332,-0.181914 0.88318,-0.451638 1.32593,-0.675571 0.33056,-0.148019 0.66431,-0.284536 0.99016,-0.442905 0.19521,-0.09169 0.3966,-0.168651 0.59822,-0.244721 0,0 -0.0814,-0.05474 -0.0814,-0.05474 v 0 c -0.20173,0.07643 -0.40331,0.15359 -0.59868,0.245486 -0.32596,0.157953 -0.66019,0.2936 -0.98993,0.443259 -0.44212,0.22443 -0.86192,0.494167 -1.32605,0.673412 -0.29408,0.08796 -0.59846,0.145031 -0.86508,0.310057 -0.48802,0.281599 -0.91587,0.644226 -1.31693,1.038881 -0.45568,0.419444 -0.92791,0.821497 -1.36554,1.259967 -0.46069,0.487199 -0.91557,0.980144 -1.4014,1.442794 -0.47191,0.462593 -0.94694,0.921978 -1.42831,1.374746 -0.42719,0.410342 -0.82761,0.845889 -1.18411,1.320075 -0.48396,0.655553 -0.92718,1.339416 -1.32223,2.052513 -0.3619,0.653095 -0.71749,1.312209 -0.83819,2.059618 -0.18411,0.852162 -0.39103,1.699228 -0.62652,2.538745 -0.23198,0.809969 -0.50774,1.605526 -0.82047,2.388005 -0.25284,0.602533 -0.52062,1.200481 -0.83327,1.774669 -0.30303,0.529982 -0.64919,1.033891 -1.04655,1.498309 -0.41329,0.461746 -0.83611,0.914702 -1.25026,1.375685 -0.39039,0.415766 -0.78222,0.830342 -1.16549,1.252657 z" />
    <path
       style="opacity:1;fill:#800000;fill-opacity:1;stroke:#800000;stroke-width:0.2;stroke-miterlimit:0;stroke-dasharray:none;stroke-opacity:0.999931"
       id="path31"
       d="m 27.792176,49.439068 c 0.74358,-7.94e-4 1.48716,-5.29e-4 2.23074,-2.65e-4 0.55448,-0.0047 1.10929,0.01117 1.66345,-0.01037 0.57154,-0.02461 1.1423,-0.06874 1.711,-0.130585 0.50172,-0.05961 1.00593,-0.09129 1.5107,-0.108382 0.49957,-0.03907 0.99692,-0.106804 1.49428,-0.168449 0.48164,-0.05549 0.96168,-0.12005 1.4456,-0.152522 0.57991,-0.02782 1.16071,-0.02725 1.74115,-0.02867 0.42021,-5.29e-4 0.84042,1.93e-4 1.26063,0.0011 0.36179,-0.0099 0.706,0.128503 1.04163,0.247203 0.4207,0.106415 0.76446,0.333811 1.09972,0.597876 0.26248,0.190003 0.50164,0.398815 0.72213,0.635349 0.33929,0.369867 0.68939,0.729565 1.04073,1.087935 0.23967,0.240041 0.46098,0.495277 0.63437,0.787038 0.25491,0.389152 0.51063,0.777769 0.7714,1.163021 0.20313,0.277209 0.38721,0.566777 0.55338,0.867344 0,0 0.0896,0.04009 0.0896,0.04009 v 0 c -0.16624,-0.301059 -0.35037,-0.591167 -0.55402,-0.86859 -0.26033,-0.384779 -0.51524,-0.773137 -0.76987,-1.161706 -0.17317,-0.292987 -0.39438,-0.549299 -0.63495,-0.789858 -0.35111,-0.358101 -0.70103,-0.717492 -1.03987,-1.087298 -0.22038,-0.237273 -0.45849,-0.447463 -0.72208,-0.636955 -0.38269,-0.302583 -0.79187,-0.564401 -1.26768,-0.694412 -0.33654,-0.118689 -0.68157,-0.256183 -1.04427,-0.245023 -0.41985,-2.64e-4 -0.83971,-7.93e-4 -1.25957,-1.58e-4 -0.5807,0.0016 -1.16178,7.93e-4 -1.74195,0.02886 -0.48394,0.03278 -0.96399,0.09776 -1.44567,0.153154 -0.49723,0.06171 -0.99452,0.129294 -1.49406,0.167531 -0.5048,0.01741 -1.00901,0.04973 -1.51077,0.109218 -0.5686,0.06156 -1.13917,0.105968 -1.71061,0.130032 -0.55398,0.0208 -1.10857,0.0056 -1.66285,0.01037 -0.74383,2.25e-4 -1.48766,5.3e-4 -2.23149,-2.64e-4 z" />
    <path
       style="opacity:1;fill:#800000;fill-opacity:1;stroke:#800000;stroke-width:0.2;stroke-miterlimit:0;stroke-dasharray:none;stroke-opacity:0.999931"
       id="path32"
       d="m 27.766466,64.099979 c 0.64328,-0.202795 1.27606,-0.435057 1.9088,-0.668072 0.37299,-0.12033 0.74567,-0.214019 1.08679,-0.409814 0.49101,-0.289226 0.95,-0.627054 1.43831,-0.920879 0.53042,-0.329237 1.07157,-0.64022 1.61648,-0.944663 0.50782,-0.278035 1.0177,-0.552567 1.53049,-0.82133 0.44101,-0.234826 0.88248,-0.466482 1.33569,-0.676995 0.39327,-0.182139 0.77599,-0.380619 1.18885,-0.515038 0.35145,-0.07822 0.68366,-0.215934 1.02041,-0.340701 0.4474,-0.169717 0.89228,-0.346133 1.3326,-0.533458 0.38703,-0.194041 0.79298,-0.342041 1.21184,-0.449364 0.34463,-0.0624 0.63362,-0.257672 0.92987,-0.431723 0.38407,-0.187092 0.78097,-0.341468 1.16578,-0.528053 0.44324,-0.238299 0.89605,-0.4572 1.36863,-0.630777 0.29323,-0.08086 0.54796,-0.248743 0.82965,-0.359553 0.20725,-0.06862 0.10632,-0.03775 0.30251,-0.0935 0,0 -0.0814,-0.05573 -0.0814,-0.05573 v 0 c -0.19633,0.05641 -0.0953,0.02522 -0.3028,0.09447 -0.28129,0.111358 -0.53674,0.277781 -0.82963,0.359296 -0.47212,0.175033 -0.92466,0.394592 -1.36841,0.632071 -0.38528,0.186018 -0.78289,0.339911 -1.16649,0.528529 -0.29576,0.173681 -0.58498,0.366467 -0.92874,0.429186 -0.41885,0.108443 -0.82482,0.257122 -1.2123,0.450827 -0.44016,0.187272 -0.88487,0.363701 -1.33218,0.533175 -0.33683,0.124523 -0.66958,0.260485 -1.02061,0.340111 -0.41268,0.135461 -0.7957,0.334031 -1.18911,0.516271 -0.4532,0.210748 -0.89467,0.442629 -1.33575,0.677518 -0.51268,0.268957 -1.02248,0.54364 -1.53021,0.821812 -0.54504,0.30443 -1.08618,0.615651 -1.61671,0.944888 -0.48824,0.294082 -0.94742,0.631912 -1.43917,0.920065 -0.34099,0.194021 -0.71332,0.28784 -1.085,0.409051 -0.63269,0.233648 -1.26563,0.465995 -1.90949,0.66753 z" />
    <path
       style="opacity:1;fill:#800000;fill-opacity:1;stroke:#800000;stroke-width:0.2;stroke-miterlimit:0;stroke-dasharray:none;stroke-opacity:0.999931"
       id="path33"
       d="m 27.582836,49.512469 c 0.54555,0.37466 1.11054,0.718441 1.63743,1.119774 0.43096,0.347412 0.82976,0.732708 1.21454,1.130001 0.30811,0.322297 0.5708,0.686184 0.76857,1.085795 0.22603,0.454657 0.43689,0.914413 0.61582,1.389761 0.16617,0.421034 0.19955,0.873516 0.29607,1.311034 0.18213,0.574241 0.3502,1.150279 0.48416,1.737789 0.15676,0.689327 0.27442,1.386393 0.43652,2.074566 0.18853,0.749123 0.37034,1.499169 0.59793,2.237713 0.25484,0.791382 0.53037,1.575552 0.80619,2.359803 0.27474,0.755142 0.56448,1.504656 0.83858,2.260172 0.26965,0.719267 0.53733,1.439076 0.81915,2.153679 0.28377,0.685564 0.6083,1.349171 1.01507,1.969807 0.29403,0.430942 0.56719,0.874596 0.89018,1.284808 0.34936,0.426969 0.74521,0.812136 1.12218,1.214012 0.41027,0.449432 0.83242,0.887637 1.25802,1.322488 0.46865,0.465225 0.92275,0.944602 1.38676,1.414343 0.43098,0.415743 0.88033,0.813848 1.37558,1.151459 0.39747,0.257813 0.79152,0.520695 1.18107,0.790345 0.4036,0.269825 0.8264,0.505111 1.26362,0.714814 0.17734,0.0584 0.31805,0.164865 0.46712,0.265684 0.12129,0.08308 0.22512,0.181864 0.32388,0.290764 0.14148,0.161443 0.072,0.07925 0.20842,0.246639 0,0 0.0906,0.03862 0.0906,0.03862 v 0 c -0.13615,-0.167727 -0.0668,-0.08542 -0.20794,-0.246975 -0.0982,-0.109734 -0.20127,-0.209212 -0.32233,-0.292767 -0.2038,-0.136168 -0.40608,-0.274172 -0.63651,-0.363162 -0.37919,-0.181782 -0.74838,-0.37933 -1.09597,-0.617871 -0.38946,-0.269761 -0.78328,-0.532979 -1.18099,-0.790403 -0.49603,-0.336484 -0.94547,-0.734404 -1.37671,-1.149874 -0.46424,-0.469744 -0.91856,-0.94911 -1.38726,-1.414505 -0.42541,-0.434718 -0.84742,-0.872736 -1.25748,-1.322035 -0.37659,-0.401974 -0.77263,-0.786657 -1.12228,-1.213146 -0.32361,-0.409896 -0.59683,-0.853567 -0.89129,-1.28437 -0.40757,-0.619847 -0.73228,-1.282912 -1.01625,-1.968161 -0.2817,-0.714542 -0.54972,-1.434103 -0.81911,-2.153367 -0.27397,-0.755653 -0.56457,-1.504932 -0.83901,-2.260272 -0.27597,-0.784101 -0.55124,-1.568273 -0.80636,-2.359464 -0.22774,-0.738254 -0.40913,-1.488147 -0.59786,-2.23696 -0.16217,-0.688107 -0.27971,-1.385144 -0.43641,-2.074434 -0.13342,-0.587266 -0.30037,-1.163275 -0.4828,-1.737069 -0.0974,-0.437906 -0.13038,-0.891029 -0.29635,-1.312701 -0.17859,-0.475324 -0.3887,-0.935217 -0.61408,-1.390031 -0.19756,-0.400732 -0.46043,-0.765828 -0.76874,-1.089173 -0.38441,-0.397806 -0.78332,-0.783103 -1.21378,-1.131279 -0.52645,-0.401788 -1.0915,-0.745209 -1.63674,-1.120153 z" />
    <path
       style="opacity:1;fill:#800000;fill-opacity:1;stroke:#800000;stroke-width:0.2;stroke-miterlimit:0;stroke-dasharray:none;stroke-opacity:0.999931"
       id="path34"
       d="m 27.624416,64.069277 c 0.68449,0.481616 1.35338,0.984724 1.99912,1.517142 0.47267,0.397997 0.92066,0.823931 1.36198,1.256051 0.35741,0.353796 0.7117,0.710729 1.06663,1.067012 0.35629,0.373856 0.74388,0.714843 1.13197,1.054788 0.44762,0.397732 0.90766,0.781383 1.34263,1.193149 0.36556,0.361651 0.72262,0.7318 1.08309,1.098513 0.33185,0.323363 0.5933,0.706022 0.87232,1.073237 0.39558,0.498557 0.78929,0.998215 1.20484,1.480365 0.40175,0.454528 0.81975,0.894996 1.25552,1.317001 0.37827,0.378476 0.78469,0.721656 1.23584,1.009496 0.30505,0.225343 0.66623,0.321884 1.00957,0.461354 0.28175,0.153474 0.57587,0.26557 0.88455,0.350404 0.64767,0.212973 1.299,0.41311 1.95796,0.588034 0.58194,0.168867 1.18315,0.247832 1.77455,0.372215 0.0432,0.0118 0.0863,0.0236 0.12949,0.03538 0,0 -0.0783,-0.06013 -0.0783,-0.06013 v 0 c -0.0432,-0.01156 -0.0863,-0.0231 -0.12948,-0.03466 -0.59109,-0.122732 -1.19138,-0.202821 -1.7727,-0.371467 -0.65939,-0.175353 -1.31099,-0.376306 -1.95924,-0.58914 -0.30841,-0.08585 -0.60195,-0.199607 -0.88434,-0.351641 -0.28396,-0.113073 -0.58356,-0.190702 -0.84099,-0.364961 -0.4519,-0.286676 -0.85854,-0.629436 -1.23692,-1.007801 -0.4362,-0.421547 -0.85403,-0.862169 -1.25616,-1.316318 -0.41568,-0.481756 -0.80919,-0.98126 -1.20466,-1.479637 -0.27916,-0.367358 -0.53975,-0.75093 -0.87185,-1.074383 -0.36047,-0.36666 -0.71743,-0.73683 -1.08269,-1.098722 -0.43494,-0.412097 -0.89526,-0.795737 -1.34296,-1.193692 -0.38786,-0.33983 -0.77559,-0.680299 -1.13172,-1.053973 -0.35499,-0.356195 -0.70924,-0.713142 -1.06648,-1.06708 -0.44174,-0.432512 -0.89029,-0.858692 -1.3631,-1.257398 -0.64527,-0.532336 -1.31376,-1.035262 -1.9975,-1.517216 z" />
    <path
       style="opacity:1;fill:#800000;fill-opacity:1;stroke:#800000;stroke-width:0.2;stroke-miterlimit:0;stroke-dasharray:none;stroke-opacity:0.999931"
       id="path35"
       d="m 27.451356,79.712759 c 0.75033,0.324638 1.51365,0.61746 2.26587,0.937781 0.64549,0.283676 1.28867,0.573008 1.92161,0.883809 0.56453,0.27573 1.11445,0.578826 1.66348,0.883758 0.71355,0.412293 1.44041,0.800349 2.17159,1.180209 0.72407,0.419576 1.51161,0.679751 2.31523,0.894188 0.55368,0.127617 1.10992,0.245817 1.66899,0.347544 0.45847,0.07247 0.92457,0.07318 1.38761,0.07906 0.37152,0.0036 0.74306,0.0016 1.11458,7.93e-4 0.69803,0.02622 1.38507,-0.08643 2.06869,-0.210457 0.77145,-0.143034 1.50611,-0.410919 2.22709,-0.712991 0.705,-0.294021 1.3806,-0.651301 2.00063,-1.097733 0,0 -0.0823,-0.05226 -0.0823,-0.05226 v 0 c -0.61874,0.446871 -1.29384,0.803291 -1.99822,1.096666 -0.72071,0.301437 -1.45526,0.568323 -2.22622,0.711057 -0.68364,0.123889 -1.3708,0.235122 -2.06877,0.208283 -0.37151,2.65e-4 -0.74303,0.0024 -1.11453,-7.94e-4 -0.46283,-0.006 -0.9287,-0.007 -1.38683,-0.08052 -0.5585,-0.101693 -1.1143,-0.21916 -1.6673,-0.347244 -0.80312,-0.214628 -1.58964,-0.476192 -2.31332,-0.895356 -0.73132,-0.380169 -1.45825,-0.768654 -2.1721,-1.180962 -0.54918,-0.305157 -1.09951,-0.608018 -1.66428,-0.883772 -0.63295,-0.310147 -1.27577,-0.599554 -1.92115,-0.88278 -0.75287,-0.320241 -1.51687,-0.613023 -2.26722,-0.93904 z" />
    <path
       style="opacity:1;fill:#800000;fill-opacity:1;stroke:#800000;stroke-width:0.2;stroke-miterlimit:0;stroke-dasharray:none;stroke-opacity:0.999931"
       id="path36"
       d="m 27.611006,113.49926 c 0.61025,-0.47964 1.23071,-0.94383 1.81874,-1.45092 0.60142,-0.51869 1.23411,-0.99946 1.87969,-1.46146 0.64153,-0.48525 1.209,-1.05936 1.78223,-1.6213 0.89476,-0.83604 1.68313,-1.77001 2.41748,-2.74722 0.73278,-0.97876 1.3529,-2.03134 1.93174,-3.10605 0.46333,-0.88018 0.90814,-1.77 1.32972,-2.6709 0.41265,-0.885484 0.83438,-1.766221 1.2143,-2.666386 0.20339,-0.493067 0.38053,-0.998691 0.4849,-1.522489 0.0657,-0.467675 0.34513,-0.861166 0.57654,-1.260825 0.47475,-0.83467 0.88897,-1.701204 1.33024,-2.553419 0.47668,-0.890522 0.92589,-1.795137 1.37463,-2.699922 0.32894,-0.680977 0.65118,-1.365121 0.9824,-2.044999 0.38895,-0.80772 0.7497,-1.628698 1.14633,-2.432728 0.15821,-0.270295 0.2781,-0.615344 0.55832,-0.788077 0.0732,-0.02566 0.13873,-0.02566 0.19342,-0.08104 0.029,-0.07153 0.023,-0.151937 0.0232,-0.227677 -5e-5,-0.01762 -10e-5,-0.03525 -1.5e-4,-0.05288 0,0 -0.0887,-0.04515 -0.0887,-0.04515 v 0 c 6e-5,0.01762 1.1e-4,0.03521 1.7e-4,0.05282 -2.2e-4,0.07415 0.005,0.151469 -0.0205,0.222118 -0.0537,0.0515 -0.12267,0.04838 -0.19106,0.07798 -0.27945,0.177475 -0.4008,0.520539 -0.55866,0.794218 -0.39529,0.804685 -0.75644,1.625492 -1.14619,2.432847 -0.33187,0.679571 -0.65383,1.363834 -0.98157,2.045395 -0.44841,0.904878 -0.89755,1.809481 -1.37493,2.699557 -0.44136,0.85199 -0.85391,1.719244 -1.33008,2.552983 -0.23259,0.399889 -0.51491,0.793581 -0.58056,1.262275 -0.10243,0.523756 -0.27859,1.029313 -0.48136,1.522158 -0.37955,0.90021 -0.80087,1.781011 -1.21378,2.666261 -0.42159,0.9007 -0.86632,1.79037 -1.32901,2.67069 -0.57806,1.07459 -1.19754,2.12702 -1.93019,3.1053 -0.7345,0.97661 -1.52273,1.91013 -2.41765,2.74545 -0.57375,0.56106 -1.14171,1.13427 -1.78348,1.61879 -0.64483,0.46323 -1.27701,0.94483 -1.87912,1.46283 -0.58832,0.50671 -1.2083,0.97166 -1.81985,1.44964 z" />
    <g
       inkscape:label=""
       transform="matrix(1.6088077,0,0,1.6819756,73.130076,71.802019)"
       id="g44">
      <g
         id="surface1"
         transform="matrix(0.352778,0,0,0.352778,-0.934597,-0.701807)">
        <g
           style="fill:#000000;fill-opacity:1"
           id="g16">
          <g
             id="use15"
             transform="translate(1.993,20.643)">
            <path
               style="stroke:none"
               d="m 8.75,-6.484375 c 0.21875,0 0.796875,0 0.796875,-0.5625 0,-0.375 -0.328125,-0.375 -0.640625,-0.375 h -3.8125 c -2.578125,0 -4.4375,2.875 -4.4375,4.90625 0,1.46875 0.9375,2.6875 2.5,2.6875 2.03125,0 4.25,-2.1875 4.25,-4.765625 0,-0.671875 -0.15625,-1.328125 -0.578125,-1.890625 z m -5.578125,6.3125 c -0.875,0 -1.515625,-0.671875 -1.515625,-1.859375 0,-1.03125 0.609375,-4.453125 3.140625,-4.453125 0.75,0 1.578125,0.359375 1.578125,1.6875 C 6.375,-4.203125 6.09375,-2.75 5.5,-1.75 4.875,-0.734375 3.9375,-0.171875 3.171875,-0.171875 Z m 0,0"
               id="path24" />
          </g>
        </g>
        <g
           style="fill:#000000;fill-opacity:1"
           id="g17">
          <g
             id="use16"
             transform="translate(15.06,2.6300001)">
            <path
               style="stroke:none"
               d="m 8.203125,27.859375 c 0.03125,0.01563 0.1875,0.171875 0.203125,0.171875 H 8.75 c 0.046875,0 0.171875,-0.01563 0.171875,-0.15625 0,-0.0625 -0.03125,-0.09375 -0.0625,-0.140625 C 8.28125,27.15625 7.421875,26.28125 6.4375,24.53125 4.71875,21.46875 4.078125,17.53125 4.078125,13.703125 4.078125,6.625 6.09375,2.46875 8.875,-0.34375 c 0.046875,-0.0625 0.046875,-0.109375 0.046875,-0.140625 0,-0.15625 -0.109375,-0.15625 -0.296875,-0.15625 -0.203125,0 -0.234375,0 -0.390625,0.125 C 6.71875,0.796875 5.015625,3.015625 3.921875,6.375 3.234375,8.484375 2.875,11.046875 2.875,13.6875 c 0,3.78125 0.671875,8.046875 3.1875,11.75 0.421875,0.625 1.015625,1.28125 1.015625,1.296875 0.15625,0.1875 0.375,0.4375 0.515625,0.546875 z m 0,0"
               id="path37" />
          </g>
        </g>
        <g
           style="fill:#000000;fill-opacity:1"
           id="g18">
          <g
             id="use17"
             transform="translate(26.149,13.262)">
            <path
               style="stroke:none"
               d="m 4.78125,-0.0625 c 1.6875,-0.640625 3.296875,-2.59375 3.296875,-4.6875 0,-1.765625 -1.15625,-2.9375 -2.78125,-2.9375 -2.359375,0 -4.765625,2.46875 -4.765625,5.015625 0,1.8125 1.21875,2.90625 2.796875,2.90625 0.265625,0 0.640625,-0.03125 1.0625,-0.15625 -0.03125,0.671875 -0.03125,0.703125 -0.03125,0.84375 0,0.34375 0,1.1875 0.890625,1.1875 C 6.546875,2.109375 7.078125,0.125 7.078125,0 c 0,-0.078125 -0.078125,-0.109375 -0.125,-0.109375 -0.078125,0 -0.109375,0.0625 -0.125,0.125 C 6.5625,0.78125 5.9375,1.0625 5.546875,1.0625 c -0.5,0 -0.65625,-0.296875 -0.765625,-1.125 z M 2.71875,-0.15625 C 1.859375,-0.484375 1.5,-1.34375 1.5,-2.328125 c 0,-0.75 0.28125,-2.296875 1.109375,-3.46875 0.796875,-1.125 1.8125,-1.625 2.609375,-1.625 1.09375,0 1.890625,0.859375 1.890625,2.3125 0,1.09375 -0.5625,3.640625 -2.390625,4.671875 C 4.671875,-0.8125 4.5625,-1.609375 3.765625,-1.609375 3.1875,-1.609375 2.65625,-1.0625 2.65625,-0.5 c 0,0.21875 0.0625,0.34375 0.0625,0.34375 z m 0.671875,0.125 c -0.15625,0 -0.5,0 -0.5,-0.46875 0,-0.4375 0.40625,-0.875 0.875,-0.875 0.453125,0 0.65625,0.265625 0.65625,0.921875 0,0.171875 0,0.1875 -0.109375,0.21875 -0.28125,0.125 -0.609375,0.203125 -0.921875,0.203125 z m 0,0"
               id="path38" />
          </g>
          <g
             id="use18"
             transform="translate(34.773735,13.262)">
            <path
               style="stroke:none"
               d="M 5.546875,-4.40625 C 5.546875,-4.4375 5.5,-4.53125 5.5,-4.5625 c 0,0 0.1875,-0.15625 0.3125,-0.25 L 7.71875,-6.28125 C 8.75,-7.03125 9.171875,-7.078125 9.5,-7.109375 9.59375,-7.125 9.703125,-7.125 9.703125,-7.328125 c 0,-0.046875 -0.046875,-0.125 -0.125,-0.125 -0.25,0 -0.515625,0.03125 -0.78125,0.03125 -0.390625,0 -0.8125,-0.03125 -1.203125,-0.03125 -0.078125,0 -0.203125,0 -0.203125,0.21875 0,0.078125 0.046875,0.109375 0.125,0.125 0.234375,0.015625 0.34375,0.078125 0.34375,0.234375 0,0.1875 -0.328125,0.4375 -0.40625,0.5 l -4.25,3.265625 0.875,-3.5 c 0.09375,-0.390625 0.125,-0.5 0.921875,-0.5 0.265625,0 0.359375,0 0.359375,-0.21875 0,-0.09375 -0.078125,-0.125 -0.140625,-0.125 -0.3125,0 -1.09375,0.03125 -1.40625,0.03125 -0.3125,0 -1.09375,-0.03125 -1.40625,-0.03125 -0.078125,0 -0.21875,0 -0.21875,0.21875 0,0.125 0.109375,0.125 0.328125,0.125 0.140625,0 0.328125,0.015625 0.46875,0.015625 0.171875,0.03125 0.234375,0.0625 0.234375,0.171875 0,0.046875 -0.015625,0.078125 -0.046875,0.21875 L 1.71875,-0.84375 c -0.109375,0.421875 -0.140625,0.5 -1,0.5 -0.1875,0 -0.296875,0 -0.296875,0.21875 0,0.125 0.125,0.125 0.15625,0.125 0.3125,0 1.078125,-0.03125 1.390625,-0.03125 0.21875,0 0.46875,0.015625 0.6875,0.015625 C 2.90625,-0.015625 3.140625,0 3.375,0 c 0.078125,0 0.21875,0 0.21875,-0.21875 0,-0.125 -0.109375,-0.125 -0.3125,-0.125 -0.40625,0 -0.703125,0 -0.703125,-0.1875 0,-0.078125 0.0625,-0.3125 0.09375,-0.484375 0.15625,-0.5625 0.296875,-1.140625 0.4375,-1.703125 l 1.625,-1.265625 L 6,-1.0625 c 0.125,0.296875 0.125,0.328125 0.125,0.390625 0,0.328125 -0.46875,0.328125 -0.5625,0.328125 -0.125,0 -0.234375,0 -0.234375,0.21875 C 5.328125,0 5.453125,0 5.46875,0 5.90625,0 6.375,-0.03125 6.8125,-0.03125 7.046875,-0.03125 7.640625,0 7.875,0 c 0.046875,0 0.203125,0 0.203125,-0.21875 0,-0.125 -0.125,-0.125 -0.21875,-0.125 -0.453125,0 -0.59375,-0.109375 -0.765625,-0.484375 z m 0,0"
               id="path39" />
          </g>
        </g>
        <g
           style="fill:#000000;fill-opacity:1"
           id="g19">
          <g
             id="use19"
             transform="translate(44.818001,9.3030005)">
            <path
               style="stroke:none"
               d="m 1.765625,-3.171875 h 0.78125 c 0.140625,0 0.234375,0 0.234375,-0.15625 C 2.78125,-3.4375 2.6875,-3.4375 2.546875,-3.4375 h -0.71875 l 0.28125,-1.125 c 0.03125,-0.125 0.03125,-0.15625 0.03125,-0.171875 0,-0.171875 -0.125,-0.25 -0.265625,-0.25 -0.265625,0 -0.328125,0.21875 -0.40625,0.578125 l -0.25,0.96875 H 0.453125 c -0.15625,0 -0.25,0 -0.25,0.15625 0,0.109375 0.09375,0.109375 0.234375,0.109375 h 0.71875 l -0.484375,1.90625 C 0.625,-1.0625 0.5625,-0.78125 0.5625,-0.671875 c 0,0.484375 0.390625,0.75 0.8125,0.75 0.84375,0 1.328125,-1.125 1.328125,-1.21875 C 2.703125,-1.234375 2.640625,-1.25 2.59375,-1.25 2.5,-1.25 2.5,-1.21875 2.4375,-1.09375 2.28125,-0.703125 1.875,-0.140625 1.390625,-0.140625 1.234375,-0.140625 1.125,-0.25 1.125,-0.515625 c 0,-0.15625 0.03125,-0.234375 0.046875,-0.34375 z m 0,0"
               id="path28" />
          </g>
        </g>
        <path
           style="fill:none;stroke:#000000;stroke-width:0.638;stroke-linecap:butt;stroke-linejoin:miter;stroke-miterlimit:10;stroke-opacity:1"
           d="M 0.00134375,-8.4375e-4 H 22.970094"
           transform="matrix(1,0,0,-1,25.776,16.339)"
           id="path19" />
        <g
           style="fill:#000000;fill-opacity:1"
           id="g20">
          <g
             id="use20"
             transform="translate(25.775999,18.167999)">
            <path
               style="stroke:none"
               d="m 4.25,9.328125 -1.921875,-4.25 C 2.25,4.90625 2.1875,4.90625 2.15625,4.90625 c 0,0 -0.0625,0 -0.1875,0.09375 L 0.9375,5.78125 C 0.796875,5.890625 0.796875,5.921875 0.796875,5.953125 c 0,0.0625 0.03125,0.125 0.109375,0.125 0.0625,0 0.25,-0.15625 0.375,-0.25 C 1.34375,5.78125 1.5,5.65625 1.625,5.578125 l 2.15625,4.71875 C 3.84375,10.46875 3.90625,10.46875 4,10.46875 c 0.171875,0 0.203125,-0.0625 0.28125,-0.21875 L 9.234375,0 c 0.0625,-0.15625 0.0625,-0.203125 0.0625,-0.21875 0,-0.109375 -0.078125,-0.21875 -0.21875,-0.21875 -0.078125,0 -0.15625,0.0625 -0.25,0.234375 z m 0,0"
               id="path40" />
          </g>
        </g>
        <path
           style="fill:none;stroke:#000000;stroke-width:0.436;stroke-linecap:butt;stroke-linejoin:miter;stroke-miterlimit:10;stroke-opacity:1"
           d="M 1.875e-4,7.8125e-4 H 13.879094"
           transform="matrix(1,0,0,-1,34.867,17.95)"
           id="path20" />
        <g
           style="fill:#000000;fill-opacity:1"
           id="g21">
          <g
             id="use21"
             transform="translate(34.867001,26.627001)">
            <path
               style="stroke:none"
               d="m 5.625,-7.453125 c 0,0 0,-0.109375 -0.140625,-0.109375 -0.15625,0 -1.203125,0.09375 -1.390625,0.109375 -0.078125,0.015625 -0.140625,0.0625 -0.140625,0.21875 0,0.125 0.09375,0.125 0.25,0.125 0.53125,0 0.546875,0.078125 0.546875,0.1875 L 4.71875,-6.703125 4.0625,-4.125 c -0.1875,-0.40625 -0.5,-0.703125 -1,-0.703125 -1.28125,0 -2.625,1.609375 -2.625,3.203125 0,1.03125 0.59375,1.75 1.453125,1.75 0.21875,0 0.765625,-0.046875 1.40625,-0.828125 0.09375,0.46875 0.484375,0.828125 1,0.828125 0.375,0 0.625,-0.25 0.8125,-0.609375 C 5.296875,-0.875 5.4375,-1.53125 5.4375,-1.5625 5.4375,-1.671875 5.328125,-1.671875 5.296875,-1.671875 5.1875,-1.671875 5.1875,-1.625 5.140625,-1.46875 4.96875,-0.765625 4.765625,-0.125 4.3125,-0.125 c -0.28125,0 -0.328125,-0.28125 -0.328125,-0.5 0,-0.265625 0.03125,-0.328125 0.078125,-0.515625 z m -2.265625,6.15625 c -0.0625,0.203125 -0.0625,0.21875 -0.21875,0.40625 C 2.65625,-0.296875 2.21875,-0.125 1.90625,-0.125 c -0.546875,0 -0.703125,-0.59375 -0.703125,-1.015625 0,-0.546875 0.359375,-1.890625 0.609375,-2.390625 0.34375,-0.640625 0.828125,-1.046875 1.265625,-1.046875 0.703125,0 0.859375,0.890625 0.859375,0.953125 0,0.0625 -0.015625,0.140625 -0.03125,0.1875 z m 0,0"
               id="path41" />
          </g>
        </g>
        <g
           style="fill:#000000;fill-opacity:1"
           id="g22">
          <g
             id="use22"
             transform="translate(40.544998,28.316)">
            <path
               style="stroke:none"
               d="M 4.28125,-3.203125 C 4.265625,-3.21875 4.234375,-3.296875 4.234375,-3.3125 c 0,-0.015625 0.125,-0.109375 0.21875,-0.15625 0.625,-0.46875 1.484375,-1.09375 1.75,-1.25 0.40625,-0.265625 0.703125,-0.421875 1.0625,-0.453125 C 7.328125,-5.1875 7.4375,-5.203125 7.4375,-5.34375 7.421875,-5.390625 7.375,-5.4375 7.328125,-5.4375 7.3125,-5.4375 7.09375,-5.421875 7.03125,-5.421875 h -0.3125 c -0.140625,0 -0.328125,0 -0.40625,0 -0.0625,0 -0.375,-0.015625 -0.421875,-0.015625 -0.0625,0 -0.171875,0 -0.171875,0.140625 0,0.015625 0.015625,0.109375 0.125,0.125 0.0625,0 0.203125,0.015625 0.203125,0.109375 0,0.125 -0.171875,0.265625 -0.1875,0.265625 l -0.0625,0.0625 C 5.78125,-4.703125 5.75,-4.671875 5.703125,-4.65625 l -3.25,2.359375 0.625,-2.53125 c 0.078125,-0.28125 0.09375,-0.34375 0.671875,-0.34375 0.15625,0 0.265625,0 0.265625,-0.15625 C 4.015625,-5.34375 4,-5.4375 3.875,-5.4375 c -0.15625,0 -0.34375,0.015625 -0.5,0.015625 h -0.5 c -0.765625,0 -0.96875,-0.015625 -1.03125,-0.015625 -0.03125,0 -0.15625,0 -0.15625,0.140625 0,0.125 0.09375,0.125 0.234375,0.125 0.265625,0 0.5,0 0.5,0.125 0,0.03125 -0.015625,0.03125 -0.046875,0.140625 L 1.3125,-0.625 c -0.0625,0.296875 -0.078125,0.359375 -0.671875,0.359375 -0.15625,0 -0.25,0 -0.25,0.15625 0,0.03125 0.03125,0.109375 0.125,0.109375 0.15625,0 0.34375,-0.015625 0.5,-0.03125 h 1.03125 C 2.171875,-0.015625 2.4375,0 2.546875,0 c 0.046875,0 0.15625,0 0.15625,-0.140625 0,-0.125 -0.09375,-0.125 -0.21875,-0.125 -0.0625,0 -0.171875,0 -0.3125,-0.015625 -0.15625,-0.015625 -0.1875,-0.03125 -0.1875,-0.109375 0,-0.046875 0.0625,-0.25 0.078125,-0.375 l 0.296875,-1.203125 1.296875,-0.921875 0.953125,1.96875 c 0.03125,0.0625 0.109375,0.234375 0.140625,0.3125 0.0625,0.078125 0.0625,0.09375 0.0625,0.125 0,0.21875 -0.296875,0.21875 -0.390625,0.21875 -0.078125,0 -0.1875,0 -0.1875,0.15625 0,0 0,0.109375 0.125,0.109375 C 4.453125,0 4.75,-0.015625 4.828125,-0.03125 H 5.28125 C 6.015625,-0.03125 6,0 6.09375,0 6.125,0 6.25,0 6.25,-0.15625 c 0,-0.109375 -0.109375,-0.109375 -0.15625,-0.109375 -0.3125,0 -0.421875,-0.0625 -0.546875,-0.328125 z m 0,0"
               id="path42" />
          </g>
        </g>
        <g
           style="fill:#000000;fill-opacity:1"
           id="g23">
          <g
             id="use23"
             transform="translate(49.943001,2.6300001)">
            <path
               style="stroke:none"
               d="M 6.625,13.6875 C 6.625,9.109375 5.5625,4.25 2.421875,0.671875 c -0.21875,-0.25 -0.8125,-0.875 -1.1875,-1.21875 -0.125,-0.09375 -0.15625,-0.09375 -0.359375,-0.09375 -0.15625,0 -0.296875,0 -0.296875,0.15625 0,0.0625 0.0625,0.140625 0.09375,0.171875 0.546875,0.546875 1.40625,1.421875 2.390625,3.1875 1.71875,3.046875 2.359375,6.984375 2.359375,10.8125 0,6.921875 -1.921875,11.140625 -4.78125,14.0625 -0.03125,0.03125 -0.0625,0.07813 -0.0625,0.125 0,0.15625 0.140625,0.15625 0.296875,0.15625 0.203125,0 0.234375,0 0.390625,-0.125 1.5,-1.3125 3.21875,-3.515625 4.3125,-6.890625 C 6.28125,18.84375 6.625,16.25 6.625,13.6875 Z m 0,0"
               id="path43" />
          </g>
        </g>
        <g
           style="fill:#000000;fill-opacity:1"
           id="g24">
          <g
             id="use24"
             transform="translate(62.332001,20.643)">
            <path
               style="stroke:none"
               d="m 10.65625,-9.84375 c 0.59375,-0.9375 1.125,-1.34375 2,-1.421875 0.171875,-0.01563 0.3125,-0.01563 0.3125,-0.328125 0,-0.0625 -0.03125,-0.171875 -0.1875,-0.171875 -0.3125,0 -1.0625,0.04687 -1.359375,0.04687 -0.5,0 -1.015625,-0.04687 -1.5,-0.04687 -0.140625,0 -0.3125,0 -0.3125,0.328125 0,0.15625 0.15625,0.171875 0.21875,0.171875 0.640625,0.0625 0.703125,0.359375 0.703125,0.578125 0,0.25 -0.234375,0.65625 -0.25,0.671875 l -5.40625,8.5625 -1.203125,-9.28125 c 0,-0.5 0.890625,-0.53125 1.078125,-0.53125 0.265625,0 0.421875,0 0.421875,-0.328125 0,-0.171875 -0.203125,-0.171875 -0.25,-0.171875 -0.296875,0 -0.640625,0.04687 -0.921875,0.04687 H 3.03125 c -1.25,0 -1.78125,-0.04687 -1.796875,-0.04687 -0.09375,0 -0.296875,0 -0.296875,0.3125 0,0.1875 0.109375,0.1875 0.390625,0.1875 0.875,0 0.921875,0.15625 0.984375,0.59375 l 1.375,10.625 C 3.734375,0.3125 3.734375,0.359375 3.984375,0.359375 4.1875,0.359375 4.265625,0.3125 4.4375,0.03125 Z m 0,0"
               id="path44" />
          </g>
        </g>
      </g>
    </g>
    <path
       style="opacity:1;fill:#800000;fill-opacity:1;stroke:#800000;stroke-width:0.2;stroke-miterlimit:0;stroke-dasharray:none;stroke-opacity:0.999931"
       id="path45"
       d="m 58.688946,55.103212 c 1.07419,0.07916 2.14557,0.18637 3.22063,0.254429 0.84078,0.04274 1.68194,0.065 2.52206,0.120142 0.79686,-0.0049 1.57105,0.117083 2.34688,0.290258 1.29546,0.334227 2.57868,0.713537 3.86899,1.06729 1.19692,0.306734 2.37888,0.659545 3.54926,1.054753 1.16646,0.418521 2.34398,0.80663 3.50319,1.24492 1.29313,0.493483 2.52401,1.128009 3.76333,1.739691 1.15931,0.568079 2.31787,1.137706 3.47478,1.710667 0.76539,0.386789 1.47968,0.857136 2.1521,1.387318 0.4767,0.336601 0.80269,0.786144 1.09229,1.282727 0.32421,0.563928 0.64876,1.126633 0.87095,1.739529 0.0961,0.268248 0.12928,0.550569 0.20145,0.824768 0.0668,0.295817 0.1035,0.596222 0.16115,0.894024 0.15309,0.547063 0.28546,1.09951 0.39575,1.656731 0.0577,0.267684 0.0882,0.537903 0.095,0.811141 0.004,0.323876 0.002,0.647787 1.4e-4,0.971672 -5.3e-4,0.115617 -0.001,0.231235 -0.002,0.346855 0,0 0.0887,0.04522 0.0887,0.04522 v 0 c 2.4e-4,-0.115718 5.3e-4,-0.231439 0.001,-0.347157 0.001,-0.323996 0.003,-0.64801 -1.8e-4,-0.971998 -0.006,-0.273997 -0.0366,-0.544766 -0.0951,-0.813069 -0.11078,-0.55698 -0.24262,-1.109472 -0.39537,-1.656491 -0.0573,-0.297931 -0.0944,-0.598281 -0.16033,-0.89436 -0.0724,-0.274643 -0.10618,-0.55722 -0.20206,-0.826034 -0.22215,-0.613551 -0.54672,-1.176777 -0.87091,-1.741427 -0.28891,-0.497914 -0.61364,-0.94918 -1.09126,-1.286243 -0.72195,-0.569989 -1.49439,-1.065935 -2.31577,-1.482402 -1.15658,-0.572537 -2.31476,-1.141809 -3.47361,-1.709714 -1.23952,-0.611864 -2.47081,-1.246169 -3.76434,-1.739336 -1.1595,-0.438079 -2.33705,-0.826675 -3.5038,-1.244963 -1.17025,-0.395097 -2.35231,-0.746992 -3.549,-1.053869 -1.29069,-0.353793 -2.5742,-0.733555 -3.87011,-1.067568 -0.77679,-0.173079 -1.55217,-0.295007 -2.34996,-0.290716 -0.8394,-0.054 -1.67982,-0.07551 -2.51979,-0.118451 -1.07588,-0.06813 -2.14809,-0.175173 -3.22295,-0.256387 z" />
    <path
       style="opacity:1;fill:#800000;fill-opacity:1;stroke:#800000;stroke-width:0.2;stroke-miterlimit:0;stroke-dasharray:none;stroke-opacity:0.999931"
       id="path46"
       d="m 58.721506,81.657563 c 0.7228,0.03136 1.44598,0.05367 2.16931,0.06816 0.77928,0.01643 1.55543,0.03242 2.32886,-0.0732 0.92207,-0.158308 1.81541,-0.453652 2.66393,-0.843672 0.94403,-0.484198 1.7424,-1.187791 2.52083,-1.897411 0.83785,-0.782707 1.64417,-1.598279 2.45389,-2.409802 0.85939,-0.874029 1.72484,-1.740759 2.63831,-2.55843 1.03578,-0.890011 2.06741,-1.784517 3.07395,-2.707566 0.9184,-0.878488 1.84255,-1.748986 2.79234,-2.593549 1.25075,-1.15339 2.60182,-2.18081 4.00918,-3.13332 1.3455,-0.923203 2.76983,-1.705145 4.26829,-2.346376 1.11953,-0.471963 2.31654,-0.655957 3.51779,-0.760605 0.7781,-0.09068 1.08839,0.02585 1.68066,0.496027 0.67389,0.595231 1.14407,1.368587 1.58776,2.140175 0.33757,0.598575 0.55812,1.245709 0.66996,1.921537 0.0577,0.559159 0.0497,1.122547 0.0724,1.683943 0.0203,0.468633 0.0384,0.937363 0.0497,1.406303 0.003,0.14216 0.005,0.284355 0.005,0.426556 -1.4e-4,0.08508 -2.7e-4,0.170164 -5.3e-4,0.255243 0.012,0.149069 -0.0208,0.289137 -0.0656,0.430316 -0.0515,0.137885 -0.0984,0.276177 -0.12675,0.420682 0,0 0.0876,0.04677 0.0876,0.04677 v 0 c 0.0279,-0.144245 0.0745,-0.282276 0.12591,-0.419827 0.0453,-0.141843 0.0797,-0.282734 0.0676,-0.432702 1.1e-4,-0.0851 2.7e-4,-0.170194 5.3e-4,-0.255289 -6e-5,-0.142409 -0.002,-0.284811 -0.006,-0.427178 -0.0122,-0.469249 -0.0309,-0.938292 -0.0513,-1.407255 -0.0226,-0.56162 -0.014,-1.125185 -0.0711,-1.68462 -0.11194,-0.677125 -0.33258,-1.325605 -0.67037,-1.925545 -0.44328,-0.7722 -0.91325,-1.546045 -1.58566,-2.143215 -0.62114,-0.495983 -1.0432,-0.696608 -1.84814,-0.58755 -1.20113,0.106593 -2.39804,0.291664 -3.51717,0.76467 -1.49846,0.642125 -2.92246,1.425106 -4.26821,2.348534 -1.40747,0.953236 -2.75937,1.980615 -4.01131,3.133413 -0.95052,0.843896 -1.87461,1.714516 -2.79262,2.593546 -1.00653,0.923052 -2.03793,1.817793 -3.07412,2.70733 -0.91389,0.817526 -1.77926,1.684682 -2.63908,2.558577 -0.80952,0.811546 -1.61614,1.626608 -2.45377,2.409351 -0.77802,0.70888 -1.5762,1.411494 -2.51997,1.894478 -0.8482,0.389001 -1.74091,0.684035 -2.66249,0.841234 -0.77362,0.104363 -1.5498,0.08774 -2.3291,0.07119 -0.72351,-0.01434 -1.44691,-0.03561 -2.16981,-0.06886 z" />
    <path
       style="opacity:1;fill:#800000;fill-opacity:1;stroke:#800000;stroke-width:0.2;stroke-miterlimit:0;stroke-dasharray:none;stroke-opacity:0.999931"
       id="path47"
       d="m 60.177476,107.85868 c 1.34887,0.21624 2.70182,0.40742 4.05615,0.58655 1.63254,0.20568 3.27333,0.33496 4.91575,0.42825 1.4913,0.0787 2.98497,0.0863 4.47793,0.093 1.74885,0.003 3.4977,8e-4 5.24655,-1e-5 1.72632,-0.007 3.45284,0.0265 5.17794,-0.0481 1.70319,-0.0933 3.37819,-0.42827 5.04195,-0.78536 1.73936,-0.35426 3.42941,-0.90163 5.08388,-1.53758 1.62512,-0.65424 3.20812,-1.40721 4.75762,-2.22318 1.321484,-0.71766 2.599254,-1.51433 3.833974,-2.37198 1.28655,-0.9146 2.47066,-1.96172 3.63849,-3.020764 0.88988,-0.789559 1.6506,-1.701204 2.28417,-2.705351 0.4153,-0.702821 0.79459,-1.427697 1.01807,-2.215216 0.1066,-0.667684 0.17908,-1.342125 0.25235,-2.014635 0.0519,-0.493948 0.0858,-0.989701 0.10524,-1.485951 0.005,-0.134471 0.006,-0.269036 0.005,-0.403584 -8e-4,-0.09699 -0.001,-0.193972 -0.001,-0.29096 -1.4e-4,-0.09095 -1.3e-4,-0.181896 -1.4e-4,-0.272844 -0.009,-0.349956 0.0121,-0.698807 0.0345,-1.047887 0.0281,-0.398667 0.0562,-0.797317 0.0824,-1.196115 0,0 -0.0857,-0.04438 -0.0857,-0.04438 v 0 c -0.0259,0.398836 -0.0535,0.797542 -0.0823,1.196179 -0.0233,0.348723 -0.0455,0.697296 -0.0377,1.04699 0,0.09096 2e-5,0.181922 1.7e-4,0.272886 1.7e-4,0.097 5.3e-4,0.193998 0.001,0.290997 7.9e-4,0.134535 10e-4,0.269092 -0.004,0.403566 -0.0181,0.496409 -0.0512,0.99232 -0.10286,1.486408 -0.0729,0.671917 -0.14692,1.345481 -0.25257,2.012683 -0.22151,0.787254 -0.5993,1.51208 -1.01441,2.21411 -0.63276,1.003567 -1.39322,1.914107 -2.28146,2.703999 -1.16691,1.05944 -2.35076,2.106289 -3.63745,3.019979 -1.23498,0.85658 -2.51202,1.65352 -3.833004,2.37127 -1.54888,0.81619 -3.13155,1.56887 -4.75633,2.22274 -1.65454,0.6351 -3.34426,1.1827 -5.08362,1.53604 -1.6634,0.35711 -3.33814,0.69137 -5.04103,0.78409 -1.72487,0.074 -3.45112,0.0411 -5.17718,0.0482 -1.74925,0.001 -3.4985,0.003 -5.24775,-7.9e-4 -1.49276,-0.007 -2.98619,-0.0147 -4.47729,-0.0931 -1.64218,-0.0934 -3.28272,-0.22264 -4.91501,-0.42855 -1.35586,-0.17958 -2.7105,-0.37076 -4.06042,-0.59042 z" />
    <path
       style="fill:#800000;stroke:#800000;stroke-width:0.76;stroke-miterlimit:0;stroke-dasharray:none;stroke-opacity:1"
       d="M 32.01828,37.027141 31.786169,124.40952"
       id="path1" />
    <text
       xml:space="preserve"
       style="font-size:5.64444px;fill:#800000;stroke:#800000;stroke-width:0.2;stroke-miterlimit:0;stroke-dasharray:none;stroke-opacity:1"
       x="24.03161"
       y="130.48729"
       id="text1"><tspan
         sodipodi:role="line"
         id="tspan1"
         style="stroke-width:0.2;stroke-dasharray:none"
         x="24.03161"
         y="130.48729">Layer</tspan><tspan
         sodipodi:role="line"
         style="stroke-width:0.2;stroke-dasharray:none"
         x="24.03161"
         y="137.54285"
         id="tspan2">Norm</tspan></text>
    <path
       style="fill:#ffffff;fill-opacity:1;stroke:#0000ff;stroke-width:0.8;stroke-miterlimit:0;stroke-dasharray:none;stroke-opacity:1"
       d="m 40.234182,113.54819 -0.04155,8.21537 76.598828,-0.0325 -0.27709,-8.21496"
       id="path2" />
    <text
       xml:space="preserve"
       style="font-size:5.64444px;fill:#0000ff;fill-opacity:1;stroke:#0000ff;stroke-width:0.2;stroke-miterlimit:0;stroke-dasharray:none;stroke-opacity:1"
       x="101.62669"
       y="132.72696"
       id="text3"><tspan
         sodipodi:role="line"
         id="tspan3"
         style="fill:#0000ff;stroke-width:0.2;stroke-dasharray:none"
         x="101.62669"
         y="132.72696">h heads</tspan></text>
    <rect
       style="fill:none;fill-opacity:1;stroke:#af0000;stroke-width:0.846769;stroke-miterlimit:0;stroke-dasharray:none;stroke-opacity:0.999931"
       id="rect17-4"
       width="13.511003"
       height="13.902734"
       x="45.771053"
       y="100.1189" />
    <rect
       style="fill:none;fill-opacity:1;stroke:#af0000;stroke-width:0.80961;stroke-miterlimit:0;stroke-dasharray:none;stroke-opacity:0.999931"
       id="rect17-4-7"
       width="12.318278"
       height="13.939893"
       x="84.30352"
       y="-189.77002"
       transform="rotate(90)" />
    <path
       style="fill:#800000;fill-opacity:1;stroke:#08b100;stroke-width:0.654511;stroke-miterlimit:0;stroke-dasharray:none;stroke-opacity:0.999931;marker-start:url(#Triangle-7);marker-end:url(#Triangle-1-2)"
       d="m 159.18107,39.915396 0.004,82.918054"
       id="path16-9" />
    <path
       style="fill:#800000;fill-opacity:1;stroke:#08b100;stroke-width:0.664923;stroke-miterlimit:0;stroke-dasharray:none;stroke-opacity:0.999931;marker-start:url(#Triangle-7-6);marker-end:url(#Triangle-1-2-0)"
       d="m 9.3186356,48.871163 0.00562,64.547737"
       id="path16-9-2" />
    <text
       xml:space="preserve"
       style="font-size:5.64444px;fill:#008000;fill-opacity:1;stroke:#08b100;stroke-width:0.2;stroke-miterlimit:0;stroke-dasharray:none;stroke-opacity:0.999931"
       x="161.60594"
       y="65.386658"
       id="text17-2"><tspan
         sodipodi:role="line"
         id="tspan17-0"
         style="stroke-width:0.2;stroke-dasharray:none"
         x="161.60594"
         y="65.386658"><tspan
   style="fill:#0000ff;stroke:#0800b1;stroke-opacity:0.999931"
   id="tspan4">h</tspan>N</tspan></text>
    <text
       xml:space="preserve"
       style="font-size:5.64444px;fill:#008000;fill-opacity:1;stroke:#08b100;stroke-width:0.2;stroke-miterlimit:0;stroke-dasharray:none;stroke-opacity:0.999931"
       x="2.9985452"
       y="81.635574"
       id="text17-2-5"><tspan
         sodipodi:role="line"
         id="tspan17-0-5"
         style="stroke-width:0.2;stroke-dasharray:none"
         x="2.9985452"
         y="81.635574">N</tspan></text>
    <g
       id="g5-9-2-9"
       transform="translate(148.27785,3.0582598)">
      <ellipse
         style="fill:#917c6f;stroke:#000000;stroke-width:0.79375;stroke-miterlimit:0;stroke-opacity:1"
         id="path2-0-3-9-5"
         cx="66.812645"
         cy="86.257698"
         rx="0.57951146"
         ry="0.71121532" />
      <ellipse
         style="fill:#917c6f;stroke:#000000;stroke-width:0.79375;stroke-miterlimit:0;stroke-opacity:1"
         id="path2-8-3-7-7-0"
         cx="66.812645"
         cy="92.279503"
         rx="0.57951146"
         ry="0.71121532" />
      <ellipse
         style="fill:#917c6f;stroke:#000000;stroke-width:0.79375;stroke-miterlimit:0;stroke-opacity:1"
         id="path2-8-6-6-4-5-48"
         cx="66.812645"
         cy="98.3013"
         rx="0.57951146"
         ry="0.71121532" />
    </g>
    <rect
       style="fill:#917c6f;stroke:#000000;stroke-width:0.79375;stroke-miterlimit:0;stroke-opacity:1"
       id="rect4-6-7"
       width="13.331977"
       height="2.4319494"
       x="208.4248"
       y="61.963665" />
    <rect
       style="fill:#917c6f;stroke:#000000;stroke-width:0.79375;stroke-miterlimit:0;stroke-opacity:1"
       id="rect4-6-4-1"
       width="13.331977"
       height="2.4319494"
       x="208.41437"
       y="46.994152" />
    <rect
       style="fill:#917c6f;stroke:#000000;stroke-width:0.79375;stroke-miterlimit:0;stroke-opacity:1"
       id="rect4-3-4-7"
       width="13.331977"
       height="2.4319494"
       x="208.4248"
       y="76.906128" />
    <rect
       style="fill:#917c6f;stroke:#000000;stroke-width:0.79375;stroke-miterlimit:0;stroke-opacity:1"
       id="rect4-3-1-3-2"
       width="13.331977"
       height="2.4319494"
       x="208.4248"
       y="111.56815"
       inkscape:export-filename="vit_illustration.png"
       inkscape:export-xdpi="96"
       inkscape:export-ydpi="96" />
    <text
       xml:space="preserve"
       style="font-size:5.64444px;fill:#008000;fill-opacity:1;stroke:#08b100;stroke-width:0.2;stroke-miterlimit:0;stroke-dasharray:none;stroke-opacity:0.999931"
       x="213.71159"
       y="43.385647"
       id="text17-3-2-6-5-7"><tspan
         sodipodi:role="line"
         id="tspan17-8-7-3-3-2"
         style="stroke-width:0.2;stroke-dasharray:none"
         x="213.71159"
         y="43.385647">D</tspan></text>
    <g
       id="g5-9-2-9-6"
       transform="translate(197.2365,2.8771047)">
      <ellipse
         style="fill:#917c6f;stroke:#000000;stroke-width:0.79375;stroke-miterlimit:0;stroke-opacity:1"
         id="path2-0-3-9-5-3"
         cx="66.812645"
         cy="86.257698"
         rx="0.57951146"
         ry="0.71121532" />
      <ellipse
         style="fill:#917c6f;stroke:#000000;stroke-width:0.79375;stroke-miterlimit:0;stroke-opacity:1"
         id="path2-8-3-7-7-0-9"
         cx="66.812645"
         cy="92.279503"
         rx="0.57951146"
         ry="0.71121532" />
      <ellipse
         style="fill:#917c6f;stroke:#000000;stroke-width:0.79375;stroke-miterlimit:0;stroke-opacity:1"
         id="path2-8-6-6-4-5-48-4"
         cx="66.812645"
         cy="98.3013"
         rx="0.57951146"
         ry="0.71121532" />
    </g>
    <rect
       style="fill:#917c6f;stroke:#000000;stroke-width:0.79375;stroke-miterlimit:0;stroke-opacity:1"
       id="rect4-6-7-8"
       width="13.331977"
       height="2.4319494"
       x="257.38345"
       y="61.782513" />
    <rect
       style="fill:#917c6f;stroke:#000000;stroke-width:0.79375;stroke-miterlimit:0;stroke-opacity:1"
       id="rect4-6-4-1-1"
       width="13.331977"
       height="2.4319494"
       x="257.37302"
       y="46.813" />
    <rect
       style="fill:#917c6f;stroke:#000000;stroke-width:0.79375;stroke-miterlimit:0;stroke-opacity:1"
       id="rect4-3-4-7-2"
       width="13.331977"
       height="2.4319494"
       x="257.38345"
       y="76.724976" />
    <rect
       style="fill:#917c6f;stroke:#000000;stroke-width:0.79375;stroke-miterlimit:0;stroke-opacity:1"
       id="rect4-3-1-3-2-9"
       width="13.331977"
       height="2.4319494"
       x="257.38345"
       y="111.38699"
       inkscape:export-filename="vit_illustration.png"
       inkscape:export-xdpi="96"
       inkscape:export-ydpi="96" />
    <text
       xml:space="preserve"
       style="font-size:5.64444px;fill:#008000;fill-opacity:1;stroke:#08b100;stroke-width:0.2;stroke-miterlimit:0;stroke-dasharray:none;stroke-opacity:0.999931"
       x="262.67026"
       y="43.204487"
       id="text17-3-2-6-5-7-3"><tspan
         sodipodi:role="line"
         id="tspan17-8-7-3-3-2-9"
         style="stroke-width:0.2;stroke-dasharray:none"
         x="262.67026"
         y="43.204487">D</tspan></text>
    <path
       style="fill:#800000;fill-opacity:1;stroke:#08b100;stroke-width:0.664923;stroke-miterlimit:0;stroke-dasharray:none;stroke-opacity:0.999931;marker-start:url(#Triangle-7-6-9);marker-end:url(#Triangle-1-2-0-6)"
       d="m 277.02669,48.021334 0.006,64.547736"
       id="path16-9-2-2" />
    <text
       xml:space="preserve"
       style="font-size:5.64444px;fill:#008000;fill-opacity:1;stroke:#08b100;stroke-width:0.2;stroke-miterlimit:0;stroke-dasharray:none;stroke-opacity:0.999931"
       x="280.28299"
       y="80.251945"
       id="text17-2-5-6"><tspan
         sodipodi:role="line"
         id="tspan17-0-5-1"
         style="stroke-width:0.2;stroke-dasharray:none"
         x="280.28299"
         y="80.251945">N</tspan></text>
    <path
       style="fill:#800000;stroke:#a20000;stroke-width:0.76656;stroke-miterlimit:0;stroke-opacity:1;marker-end:url(#Triangle-8-6)"
       d="m 120.96746,79.141907 13.21186,0.13271"
       id="path5-3-0" />
    <path
       style="fill:#800000;stroke:#a20000;stroke-width:0.848785;stroke-miterlimit:0;stroke-opacity:1;marker-end:url(#Triangle-8-6-5)"
       d="m 168.3616,79.063726 23.84259,0.09016"
       id="path5-3-0-4" />
    <path
       style="fill:#800000;stroke:#a20000;stroke-width:0.80292;stroke-miterlimit:0;stroke-dasharray:none;stroke-opacity:1"
       d="M 21.336441,15.16218 241.7377,15.18312"
       id="path5-3-0-4-7" />
    <path
       style="fill:#800000;stroke:#a20000;stroke-width:0.8;stroke-miterlimit:0;stroke-dasharray:none;stroke-opacity:1"
       d="m 21.086275,37.730175 0.02118,-22.606027"
       id="path5-3-0-4-7-9" />
    <path
       style="fill:#800000;stroke:#a20000;stroke-width:0.837086;stroke-miterlimit:0;stroke-dasharray:none;stroke-opacity:1;marker-start:url(#Triangle-7-6-9)"
       d="m 241.141,69.422086 -0.01,-54.391251"
       id="path5-3-0-4-7-9-7" />
    <path
       style="fill:#800000;stroke:#a20000;stroke-width:0.848785;stroke-miterlimit:0;stroke-opacity:1;marker-end:url(#Triangle-8-6-5-1)"
       d="m 227.26746,78.203554 23.84259,0.09016"
       id="path5-3-0-4-4" />
    <text
       xml:space="preserve"
       style="font-size:5.64444px;fill:#800000;stroke:#800000;stroke-width:0.3;stroke-miterlimit:0;stroke-dasharray:none;stroke-opacity:0.999931"
       x="179.70813"
       y="75.417358"
       id="text12"><tspan
         sodipodi:role="line"
         id="tspan12"
         style="fill:#800000;stroke:#800000;stroke-width:0.3;stroke-dasharray:none"
         x="179.70813"
         y="75.417358">x</tspan></text>
    <path
       style="fill:#800000;stroke:#800000;stroke-width:0.8;stroke-miterlimit:0;stroke-dasharray:none;stroke-opacity:0.999931"
       d="m 241.27716,75.345141 0.0342,5.848498"
       id="path12" />
    <circle
       style="fill:none;stroke:#800000;stroke-width:0.799999;stroke-miterlimit:0;stroke-dasharray:none;stroke-opacity:0.999931"
       id="path13"
       cx="241.28271"
       cy="78.094223"
       r="3.0186546"
       inkscape:export-filename="vit_illustration2.png"
       inkscape:export-xdpi="96"
       inkscape:export-ydpi="96" />
  </g>
</svg>
