<?xml version="1.0" encoding="UTF-8" standalone="no"?>
<!-- Created with Inkscape (http://www.inkscape.org/) -->

<svg
   width="297mm"
   height="210mm"
   viewBox="0 0 297 210"
   version="1.1"
   id="svg1"
   inkscape:version="1.3.2 (1:1.3.2+202311252150+091e20ef0f)"
   sodipodi:docname="vit_illustration2.svg"
   inkscape:export-filename="vit_illustration.png"
   inkscape:export-xdpi="96"
   inkscape:export-ydpi="96"
   xmlns:inkscape="http://www.inkscape.org/namespaces/inkscape"
   xmlns:sodipodi="http://sodipodi.sourceforge.net/DTD/sodipodi-0.dtd"
   xmlns="http://www.w3.org/2000/svg"
   xmlns:svg="http://www.w3.org/2000/svg">
  <sodipodi:namedview
     id="namedview1"
     pagecolor="#ffffff"
     bordercolor="#000000"
     borderopacity="0.25"
     inkscape:showpageshadow="2"
     inkscape:pageopacity="0.0"
     inkscape:pagecheckerboard="0"
     inkscape:deskcolor="#d1d1d1"
     inkscape:document-units="mm"
     showgrid="true"
     inkscape:zoom="1"
     inkscape:cx="548.5"
     inkscape:cy="411.5"
     inkscape:window-width="1920"
     inkscape:window-height="1097"
     inkscape:window-x="0"
     inkscape:window-y="28"
     inkscape:window-maximized="1"
     inkscape:current-layer="layer1">
    <inkscape:grid
       id="grid1"
       units="px"
       originx="0"
       originy="0"
       spacingx="0.26458334"
       spacingy="0.26458333"
       empcolor="#0099e5"
       empopacity="0.30196078"
       color="#0099e5"
       opacity="0.14901961"
       empspacing="5"
       dotted="false"
       gridanglex="30"
       gridanglez="30"
       visible="true" />
  </sodipodi:namedview>
  <defs
     id="defs1">
    <marker
       style="overflow:visible"
       id="Triangle-7"
       refX="0"
       refY="0"
       orient="auto-start-reverse"
       inkscape:stockid="Triangle arrow"
       markerWidth="1"
       markerHeight="1"
       viewBox="0 0 1 1"
       inkscape:isstock="true"
       inkscape:collect="always"
       preserveAspectRatio="xMidYMid">
      <path
         transform="scale(0.5)"
         style="fill:context-stroke;fill-rule:evenodd;stroke:context-stroke;stroke-width:1pt"
         d="M 5.77,0 -2.88,5 V -5 Z"
         id="path135-59" />
    </marker>
    <marker
       style="overflow:visible"
       id="Triangle-1-2"
       refX="0"
       refY="0"
       orient="auto-start-reverse"
       inkscape:stockid="Triangle arrow"
       markerWidth="1"
       markerHeight="1"
       viewBox="0 0 1 1"
       inkscape:isstock="true"
       inkscape:collect="always"
       preserveAspectRatio="xMidYMid">
      <path
         transform="scale(0.5)"
         style="fill:context-stroke;fill-rule:evenodd;stroke:context-stroke;stroke-width:1pt"
         d="M 5.77,0 -2.88,5 V -5 Z"
         id="path135-6-2" />
    </marker>
    <marker
       style="overflow:visible"
       id="Triangle-8-6"
       refX="0"
       refY="0"
       orient="auto-start-reverse"
       inkscape:stockid="Triangle arrow"
       markerWidth="1"
       markerHeight="1"
       viewBox="0 0 1 1"
       inkscape:isstock="true"
       inkscape:collect="always"
       preserveAspectRatio="xMidYMid">
      <path
         transform="scale(0.5)"
         style="fill:context-stroke;fill-rule:evenodd;stroke:context-stroke;stroke-width:1pt"
         d="M 5.77,0 -2.88,5 V -5 Z"
         id="path135-8-21" />
    </marker>
    <marker
       style="overflow:visible"
       id="Triangle-8-6-5"
       refX="0"
       refY="0"
       orient="auto-start-reverse"
       inkscape:stockid="Triangle arrow"
       markerWidth="1"
       markerHeight="1"
       viewBox="0 0 1 1"
       inkscape:isstock="true"
       inkscape:collect="always"
       preserveAspectRatio="xMidYMid">
      <path
         transform="scale(0.5)"
         style="fill:context-stroke;fill-rule:evenodd;stroke:context-stroke;stroke-width:1pt"
         d="M 5.77,0 -2.88,5 V -5 Z"
         id="path135-8-21-4" />
    </marker>
    <marker
       style="overflow:visible"
       id="Triangle-7-6-9"
       refX="0"
       refY="0"
       orient="auto-start-reverse"
       inkscape:stockid="Triangle arrow"
       markerWidth="1"
       markerHeight="1"
       viewBox="0 0 1 1"
       inkscape:isstock="true"
       inkscape:collect="always"
       preserveAspectRatio="xMidYMid">
      <path
         transform="scale(0.5)"
         style="fill:context-stroke;fill-rule:evenodd;stroke:context-stroke;stroke-width:1pt"
         d="M 5.77,0 -2.88,5 V -5 Z"
         id="path135-59-1-2" />
    </marker>
    <marker
       style="overflow:visible"
       id="Triangle-8-6-5-1"
       refX="0"
       refY="0"
       orient="auto-start-reverse"
       inkscape:stockid="Triangle arrow"
       markerWidth="1"
       markerHeight="1"
       viewBox="0 0 1 1"
       inkscape:isstock="true"
       inkscape:collect="always"
       preserveAspectRatio="xMidYMid">
      <path
         transform="scale(0.5)"
         style="fill:context-stroke;fill-rule:evenodd;stroke:context-stroke;stroke-width:1pt"
         d="M 5.77,0 -2.88,5 V -5 Z"
         id="path135-8-21-4-5" />
    </marker>
  </defs>
  <g
     inkscape:label="Calque 1"
     inkscape:groupmode="layer"
     id="layer1">
    <path
       style="fill:#ffffff;fill-opacity:1;stroke:#0000ff;stroke-width:0.8;stroke-miterlimit:0;stroke-dasharray:none;stroke-opacity:1"
       d="m 47.0082,119.10803 -0.04155,8.21537 76.5987,-0.0325 -0.2771,-8.21496"
       id="path2-9-0" />
    <path
       style="fill:#ffffff;fill-opacity:1;stroke:#0000ff;stroke-width:0.8;stroke-miterlimit:0;stroke-dasharray:none;stroke-opacity:1"
       d="m 43.377613,116.3465 -0.04155,8.21537 76.598837,-0.0325 -0.2771,-8.21496"
       id="path2-9" />
    <g
       id="g5-9-2-3"
       transform="rotate(-90,112.36466,33.79504)">
      <ellipse
         style="fill:#917c6f;stroke:#000000;stroke-width:0.79375;stroke-miterlimit:0;stroke-opacity:1"
         id="path2-0-3-9-1"
         cx="66.812645"
         cy="86.257698"
         rx="0.57951146"
         ry="0.71121532" />
      <ellipse
         style="fill:#917c6f;stroke:#000000;stroke-width:0.79375;stroke-miterlimit:0;stroke-opacity:1"
         id="path2-8-3-7-7-9"
         cx="66.812645"
         cy="92.279503"
         rx="0.57951146"
         ry="0.71121532" />
      <ellipse
         style="fill:#917c6f;stroke:#000000;stroke-width:0.79375;stroke-miterlimit:0;stroke-opacity:1"
         id="path2-8-6-6-4-5-4"
         cx="66.812645"
         cy="98.3013"
         rx="0.57951146"
         ry="0.71121532" />
    </g>
    <rect
       style="fill:#b3b3b3;stroke:#000000;stroke-width:0.8;stroke-miterlimit:0;stroke-dasharray:none;stroke-opacity:1"
       id="rect4-6-4-0"
       width="12.229253"
       height="15.134747"
       x="136.97847"
       y="71.779694" />
    <rect
       style="fill:#b3b3b3;stroke:#000000;stroke-width:0.8;stroke-miterlimit:0;stroke-dasharray:none;stroke-opacity:1"
       id="rect4-6-4-0-1"
       width="12.229253"
       height="15.134747"
       x="149.50819"
       y="71.779694" />
    <rect
       style="fill:#b3b3b3;stroke:#000000;stroke-width:0.8;stroke-miterlimit:0;stroke-dasharray:none;stroke-opacity:1"
       id="rect4-6-4-0-1-5"
       width="12.229253"
       height="15.134747"
       x="180.19054"
       y="71.779694" />
    <rect
       style="fill:#b3b3b3;stroke:#000000;stroke-width:0.8;stroke-miterlimit:0;stroke-dasharray:none;stroke-opacity:1"
       id="rect4-6-4-0-1-5-5"
       width="12.229253"
       height="15.134747"
       x="13.597579"
       y="71.187012" />
    <text
       xml:space="preserve"
       style="font-size:5.64444px;fill:#800000;stroke:#a20000;stroke-width:0.79375;stroke-miterlimit:0;stroke-opacity:1;opacity:0.16"
       x="39.375931"
       y="50.944584"
       id="text5"><tspan
         sodipodi:role="line"
         id="tspan5"
         style="font-size:5.64444px;stroke-width:0.79375"
         x="39.375931"
         y="50.944584" /></text>
    <text
       xml:space="preserve"
       style="font-size:5.64444px;opacity:0.16;fill:#800000;stroke:#a20000;stroke-width:0.79375;stroke-miterlimit:0;stroke-opacity:1"
       x="39.154675"
       y="49.051441"
       id="text6"><tspan
         sodipodi:role="line"
         id="tspan6"
         style="stroke-width:0.79375" /></text>
    <text
       xml:space="preserve"
       style="font-size:5.64444px;opacity:0.16;fill:#800000;stroke:#a20000;stroke-width:0.79375;stroke-miterlimit:0;stroke-opacity:1"
       x="85.322182"
       y="134.23946"
       id="text7"><tspan
         sodipodi:role="line"
         id="tspan7"
         style="stroke-width:0.79375"
         x="85.322182"
         y="134.23946" /></text>
    <text
       xml:space="preserve"
       style="font-size:5.64444px;opacity:0.16;fill:#800000;stroke:#a20000;stroke-width:0.79375;stroke-miterlimit:0;stroke-opacity:1"
       x="120.40829"
       y="153.65649"
       id="text8"><tspan
         sodipodi:role="line"
         id="tspan8"
         style="stroke-width:0.79375"
         x="120.40829"
         y="153.65649" /></text>
    <text
       xml:space="preserve"
       style="font-size:5.64444px;opacity:0.16;fill:#800000;stroke:#a20000;stroke-width:0.79375;stroke-miterlimit:0;stroke-opacity:1;fill-opacity:1"
       x="148.70175"
       y="151.31767"
       id="text9"><tspan
         sodipodi:role="line"
         id="tspan9"
         style="stroke-width:0.79375;fill:#800000;fill-opacity:1"
         x="148.70175"
         y="151.31767" /></text>
    <text
       xml:space="preserve"
       style="font-size:5.64444px;opacity:0.16;fill:#800000;fill-opacity:1;stroke:#a20000;stroke-width:0.79375;stroke-miterlimit:0;stroke-opacity:1"
       x="122.51779"
       y="161.8963"
       id="text10"><tspan
         sodipodi:role="line"
         id="tspan10"
         style="stroke-width:0.79375" /></text>
    <text
       xml:space="preserve"
       style="font-size:5.64444px;opacity:0.16;fill:#800000;fill-opacity:1;stroke:#a20000;stroke-width:0.79375;stroke-miterlimit:0;stroke-opacity:1"
       x="50.2356"
       y="140.45625"
       id="text11"><tspan
         sodipodi:role="line"
         id="tspan11"
         style="stroke-width:0.79375;stroke:#a20000;stroke-opacity:1"
         x="50.2356"
         y="140.45625" /></text>
    <text
       xml:space="preserve"
       style="font-size:5.64444px;opacity:1;fill:#800000;fill-opacity:1;stroke:#af0000;stroke-width:0.2;stroke-miterlimit:0;stroke-dasharray:none;stroke-opacity:0.999931"
       x="136.33881"
       y="76.032913"
       id="text14"><tspan
         sodipodi:role="line"
         id="tspan14"
         style="stroke-width:0.2" /></text>
    <text
       xml:space="preserve"
       style="font-size:5.64444px;fill:#008000;fill-opacity:1;stroke:#08b100;stroke-width:0.2;stroke-miterlimit:0;stroke-dasharray:none;stroke-opacity:0.999931"
       x="40.623325"
       y="55.957161"
       id="text17-3"><tspan
         sodipodi:role="line"
         id="tspan17-8"
         style="stroke-width:0.2;stroke-dasharray:none"
         x="40.623325"
         y="55.957161">D</tspan></text>
    <text
       xml:space="preserve"
       style="font-size:5.64444px;fill:#008000;fill-opacity:1;stroke:#08b100;stroke-width:0.2;stroke-miterlimit:0;stroke-dasharray:none;stroke-opacity:0.999931"
       x="41.291515"
       y="87.030373"
       id="text17-3-2"><tspan
         sodipodi:role="line"
         id="tspan17-8-7"
         style="stroke-width:0.2;stroke-dasharray:none"
         x="41.291515"
         y="87.030373">D</tspan></text>
    <text
       xml:space="preserve"
       style="font-size:5.64444px;fill:#008000;fill-opacity:1;stroke:#08b100;stroke-width:0.2;stroke-miterlimit:0;stroke-dasharray:none;stroke-opacity:0.999931"
       x="40.078159"
       y="109.89358"
       id="text17-3-2-6"><tspan
         sodipodi:role="line"
         id="tspan17-8-7-3"
         style="stroke-width:0.2;stroke-dasharray:none"
         x="40.078159"
         y="109.89358">D</tspan></text>
    <text
       xml:space="preserve"
       style="font-size:5.64444px;fill:#008000;fill-opacity:1;stroke:#08b100;stroke-width:0.2;stroke-miterlimit:0;stroke-dasharray:none;stroke-opacity:0.999931"
       x="206.95496"
       y="144.16788"
       id="text17-3-2-6-2"><tspan
         sodipodi:role="line"
         id="tspan17-8-7-3-0"
         style="stroke-width:0.2;stroke-dasharray:none"
         x="206.95496"
         y="144.16788">D</tspan></text>
    <text
       xml:space="preserve"
       style="font-size:5.64444px;fill:#008000;fill-opacity:1;stroke:#08b100;stroke-width:0.2;stroke-miterlimit:0;stroke-dasharray:none;stroke-opacity:0.999931"
       x="17.204901"
       y="92.658638"
       id="text17-3-2-6-5"><tspan
         sodipodi:role="line"
         id="tspan17-8-7-3-3"
         style="stroke-width:0.2;stroke-dasharray:none"
         x="17.204901"
         y="92.658638">D</tspan></text>
    <rect
       style="opacity:1;fill:none;fill-opacity:1;stroke:#af0000;stroke-width:0.894127;stroke-miterlimit:0;stroke-dasharray:none;stroke-opacity:0.999931"
       id="rect17"
       width="10.858356"
       height="13.994572"
       x="46.721035"
       y="47.408878" />
    <text
       xml:space="preserve"
       style="font-size:5.64444px;opacity:1;fill:#af0000;fill-opacity:1;stroke:#af0000;stroke-width:0.2;stroke-miterlimit:0;stroke-dasharray:none;stroke-opacity:0.999931"
       x="47.807705"
       y="56.234982"
       id="text18"><tspan
         sodipodi:role="line"
         id="tspan18"
         style="fill:#af0000;fill-opacity:1;stroke-width:0.2;stroke-dasharray:none"
         x="47.807705"
         y="56.234982">W<tspan
   style="font-size:65%;baseline-shift:sub"
   id="tspan19">Q</tspan></tspan></text>
    <rect
       style="fill:none;fill-opacity:1;stroke:#af0000;stroke-width:0.87128;stroke-miterlimit:0;stroke-dasharray:none;stroke-opacity:0.999931"
       id="rect17-8"
       width="10.293732"
       height="14.017419"
       x="47.263638"
       y="73.626404" />
    <text
       xml:space="preserve"
       style="font-size:5.64444px;fill:#af0000;fill-opacity:1;stroke:#af0000;stroke-width:0.2;stroke-miterlimit:0;stroke-dasharray:none;stroke-opacity:0.999931"
       x="48.362637"
       y="82.669815"
       id="text18-5"><tspan
         sodipodi:role="line"
         id="tspan18-3"
         style="fill:#af0000;fill-opacity:1;stroke-width:0.2;stroke-dasharray:none"
         x="48.362637"
         y="82.669815">W<tspan
   style="font-size:65%;baseline-shift:sub"
   id="tspan20">K</tspan></tspan></text>
    <text
       xml:space="preserve"
       style="font-size:5.64444px;fill:#af0000;fill-opacity:1;stroke:#af0000;stroke-width:0.2;stroke-miterlimit:0;stroke-dasharray:none;stroke-opacity:0.999931"
       x="48.793758"
       y="108.95874"
       id="text18-1"><tspan
         sodipodi:role="line"
         id="tspan18-5"
         style="fill:#af0000;fill-opacity:1;stroke-width:0.2;stroke-dasharray:none"
         x="48.793758"
         y="108.95874">W<tspan
   style="font-size:65%;baseline-shift:sub"
   id="tspan19-5">V</tspan></tspan></text>
    <text
       xml:space="preserve"
       style="font-size:5.64444px;opacity:1;fill:#af0000;fill-opacity:1;stroke:#af0000;stroke-width:0.2;stroke-miterlimit:0;stroke-dasharray:none;stroke-opacity:0.999931"
       x="211.92294"
       y="97.954681"
       id="text21"><tspan
         sodipodi:role="line"
         id="tspan21"
         style="stroke-width:0.2" /></text>
    <text
       xml:space="preserve"
       style="font-size:5.64444px;opacity:1;fill:#af0000;fill-opacity:1;stroke:#af0000;stroke-width:0.2;stroke-miterlimit:0;stroke-dasharray:none;stroke-opacity:0.999931"
       x="186.01892"
       y="136.34537"
       id="text22"><tspan
         sodipodi:role="line"
         id="tspan22"
         style="stroke-width:0.2"
         x="186.01892"
         y="136.34537" /><tspan
         sodipodi:role="line"
         style="stroke-width:0.2"
         id="tspan23"
         x="186.01892"
         y="143.40092" /></text>
    <text
       xml:space="preserve"
       style="font-size:5.64444px;opacity:1;fill:#008000;fill-opacity:1;stroke:#008000;stroke-width:0.2;stroke-miterlimit:0;stroke-dasharray:none;stroke-opacity:0.999931"
       x="49.315243"
       y="44.238586"
       id="text24"><tspan
         sodipodi:role="line"
         id="tspan24"
         style="fill:#008000;stroke:#008000;stroke-width:0.2"
         x="49.315243"
         y="44.238586">d<tspan
   style="font-size:65%;baseline-shift:sub;fill:#008000;stroke:#008000"
   id="tspan25">K</tspan></tspan></text>
    <text
       xml:space="preserve"
       style="font-size:5.64444px;fill:#008000;fill-opacity:1;stroke:#008000;stroke-width:0.2;stroke-miterlimit:0;stroke-dasharray:none;stroke-opacity:0.999931"
       x="49.760418"
       y="70.498116"
       id="text24-4"><tspan
         sodipodi:role="line"
         id="tspan24-4"
         style="fill:#008000;stroke:#008000;stroke-width:0.2"
         x="49.760418"
         y="70.498116">d<tspan
   style="font-size:65%;baseline-shift:sub;fill:#008000;stroke:#008000"
   id="tspan25-3">K</tspan></tspan></text>
    <text
       xml:space="preserve"
       style="font-size:5.64444px;fill:#008000;fill-opacity:1;stroke:#008000;stroke-width:0.2;stroke-miterlimit:0;stroke-dasharray:none;stroke-opacity:0.999931"
       x="49.970943"
       y="96.885941"
       id="text24-5"><tspan
         sodipodi:role="line"
         id="tspan24-8"
         style="fill:#008000;stroke:#008000;stroke-width:0.2"
         x="49.970943"
         y="96.885941">d<tspan
   style="font-size:65%;baseline-shift:sub;fill:#008000;stroke:#008000"
   id="tspan25-9">V</tspan></tspan></text>
    <g
       inkscape:label=""
       transform="matrix(1.6088077,0,0,1.6819756,73.130076,71.802019)"
       id="g44">
      <g
         id="surface1"
         transform="matrix(0.352778,0,0,0.352778,-0.934597,-0.701807)">
        <g
           style="fill:#000000;fill-opacity:1"
           id="g16">
          <g
             id="use15"
             transform="translate(1.993,20.643)">
            <path
               style="stroke:none"
               d="m 8.75,-6.484375 c 0.21875,0 0.796875,0 0.796875,-0.5625 0,-0.375 -0.328125,-0.375 -0.640625,-0.375 h -3.8125 c -2.578125,0 -4.4375,2.875 -4.4375,4.90625 0,1.46875 0.9375,2.6875 2.5,2.6875 2.03125,0 4.25,-2.1875 4.25,-4.765625 0,-0.671875 -0.15625,-1.328125 -0.578125,-1.890625 z m -5.578125,6.3125 c -0.875,0 -1.515625,-0.671875 -1.515625,-1.859375 0,-1.03125 0.609375,-4.453125 3.140625,-4.453125 0.75,0 1.578125,0.359375 1.578125,1.6875 C 6.375,-4.203125 6.09375,-2.75 5.5,-1.75 4.875,-0.734375 3.9375,-0.171875 3.171875,-0.171875 Z m 0,0"
               id="path24" />
          </g>
        </g>
        <g
           style="fill:#000000;fill-opacity:1"
           id="g17">
          <g
             id="use16"
             transform="translate(15.06,2.6300001)">
            <path
               style="stroke:none"
               d="m 8.203125,27.859375 c 0.03125,0.01563 0.1875,0.171875 0.203125,0.171875 H 8.75 c 0.046875,0 0.171875,-0.01563 0.171875,-0.15625 0,-0.0625 -0.03125,-0.09375 -0.0625,-0.140625 C 8.28125,27.15625 7.421875,26.28125 6.4375,24.53125 4.71875,21.46875 4.078125,17.53125 4.078125,13.703125 4.078125,6.625 6.09375,2.46875 8.875,-0.34375 c 0.046875,-0.0625 0.046875,-0.109375 0.046875,-0.140625 0,-0.15625 -0.109375,-0.15625 -0.296875,-0.15625 -0.203125,0 -0.234375,0 -0.390625,0.125 C 6.71875,0.796875 5.015625,3.015625 3.921875,6.375 3.234375,8.484375 2.875,11.046875 2.875,13.6875 c 0,3.78125 0.671875,8.046875 3.1875,11.75 0.421875,0.625 1.015625,1.28125 1.015625,1.296875 0.15625,0.1875 0.375,0.4375 0.515625,0.546875 z m 0,0"
               id="path37" />
          </g>
        </g>
        <g
           style="fill:#000000;fill-opacity:1"
           id="g18">
          <g
             id="use17"
             transform="translate(26.149,13.262)">
            <path
               style="stroke:none"
               d="m 4.78125,-0.0625 c 1.6875,-0.640625 3.296875,-2.59375 3.296875,-4.6875 0,-1.765625 -1.15625,-2.9375 -2.78125,-2.9375 -2.359375,0 -4.765625,2.46875 -4.765625,5.015625 0,1.8125 1.21875,2.90625 2.796875,2.90625 0.265625,0 0.640625,-0.03125 1.0625,-0.15625 -0.03125,0.671875 -0.03125,0.703125 -0.03125,0.84375 0,0.34375 0,1.1875 0.890625,1.1875 C 6.546875,2.109375 7.078125,0.125 7.078125,0 c 0,-0.078125 -0.078125,-0.109375 -0.125,-0.109375 -0.078125,0 -0.109375,0.0625 -0.125,0.125 C 6.5625,0.78125 5.9375,1.0625 5.546875,1.0625 c -0.5,0 -0.65625,-0.296875 -0.765625,-1.125 z M 2.71875,-0.15625 C 1.859375,-0.484375 1.5,-1.34375 1.5,-2.328125 c 0,-0.75 0.28125,-2.296875 1.109375,-3.46875 0.796875,-1.125 1.8125,-1.625 2.609375,-1.625 1.09375,0 1.890625,0.859375 1.890625,2.3125 0,1.09375 -0.5625,3.640625 -2.390625,4.671875 C 4.671875,-0.8125 4.5625,-1.609375 3.765625,-1.609375 3.1875,-1.609375 2.65625,-1.0625 2.65625,-0.5 c 0,0.21875 0.0625,0.34375 0.0625,0.34375 z m 0.671875,0.125 c -0.15625,0 -0.5,0 -0.5,-0.46875 0,-0.4375 0.40625,-0.875 0.875,-0.875 0.453125,0 0.65625,0.265625 0.65625,0.921875 0,0.171875 0,0.1875 -0.109375,0.21875 -0.28125,0.125 -0.609375,0.203125 -0.921875,0.203125 z m 0,0"
               id="path38" />
          </g>
          <g
             id="use18"
             transform="translate(34.773735,13.262)">
            <path
               style="stroke:none"
               d="M 5.546875,-4.40625 C 5.546875,-4.4375 5.5,-4.53125 5.5,-4.5625 c 0,0 0.1875,-0.15625 0.3125,-0.25 L 7.71875,-6.28125 C 8.75,-7.03125 9.171875,-7.078125 9.5,-7.109375 9.59375,-7.125 9.703125,-7.125 9.703125,-7.328125 c 0,-0.046875 -0.046875,-0.125 -0.125,-0.125 -0.25,0 -0.515625,0.03125 -0.78125,0.03125 -0.390625,0 -0.8125,-0.03125 -1.203125,-0.03125 -0.078125,0 -0.203125,0 -0.203125,0.21875 0,0.078125 0.046875,0.109375 0.125,0.125 0.234375,0.015625 0.34375,0.078125 0.34375,0.234375 0,0.1875 -0.328125,0.4375 -0.40625,0.5 l -4.25,3.265625 0.875,-3.5 c 0.09375,-0.390625 0.125,-0.5 0.921875,-0.5 0.265625,0 0.359375,0 0.359375,-0.21875 0,-0.09375 -0.078125,-0.125 -0.140625,-0.125 -0.3125,0 -1.09375,0.03125 -1.40625,0.03125 -0.3125,0 -1.09375,-0.03125 -1.40625,-0.03125 -0.078125,0 -0.21875,0 -0.21875,0.21875 0,0.125 0.109375,0.125 0.328125,0.125 0.140625,0 0.328125,0.015625 0.46875,0.015625 0.171875,0.03125 0.234375,0.0625 0.234375,0.171875 0,0.046875 -0.015625,0.078125 -0.046875,0.21875 L 1.71875,-0.84375 c -0.109375,0.421875 -0.140625,0.5 -1,0.5 -0.1875,0 -0.296875,0 -0.296875,0.21875 0,0.125 0.125,0.125 0.15625,0.125 0.3125,0 1.078125,-0.03125 1.390625,-0.03125 0.21875,0 0.46875,0.015625 0.6875,0.015625 C 2.90625,-0.015625 3.140625,0 3.375,0 c 0.078125,0 0.21875,0 0.21875,-0.21875 0,-0.125 -0.109375,-0.125 -0.3125,-0.125 -0.40625,0 -0.703125,0 -0.703125,-0.1875 0,-0.078125 0.0625,-0.3125 0.09375,-0.484375 0.15625,-0.5625 0.296875,-1.140625 0.4375,-1.703125 l 1.625,-1.265625 L 6,-1.0625 c 0.125,0.296875 0.125,0.328125 0.125,0.390625 0,0.328125 -0.46875,0.328125 -0.5625,0.328125 -0.125,0 -0.234375,0 -0.234375,0.21875 C 5.328125,0 5.453125,0 5.46875,0 5.90625,0 6.375,-0.03125 6.8125,-0.03125 7.046875,-0.03125 7.640625,0 7.875,0 c 0.046875,0 0.203125,0 0.203125,-0.21875 0,-0.125 -0.125,-0.125 -0.21875,-0.125 -0.453125,0 -0.59375,-0.109375 -0.765625,-0.484375 z m 0,0"
               id="path39" />
          </g>
        </g>
        <g
           style="fill:#000000;fill-opacity:1"
           id="g19">
          <g
             id="use19"
             transform="translate(44.818001,9.3030005)">
            <path
               style="stroke:none"
               d="m 1.765625,-3.171875 h 0.78125 c 0.140625,0 0.234375,0 0.234375,-0.15625 C 2.78125,-3.4375 2.6875,-3.4375 2.546875,-3.4375 h -0.71875 l 0.28125,-1.125 c 0.03125,-0.125 0.03125,-0.15625 0.03125,-0.171875 0,-0.171875 -0.125,-0.25 -0.265625,-0.25 -0.265625,0 -0.328125,0.21875 -0.40625,0.578125 l -0.25,0.96875 H 0.453125 c -0.15625,0 -0.25,0 -0.25,0.15625 0,0.109375 0.09375,0.109375 0.234375,0.109375 h 0.71875 l -0.484375,1.90625 C 0.625,-1.0625 0.5625,-0.78125 0.5625,-0.671875 c 0,0.484375 0.390625,0.75 0.8125,0.75 0.84375,0 1.328125,-1.125 1.328125,-1.21875 C 2.703125,-1.234375 2.640625,-1.25 2.59375,-1.25 2.5,-1.25 2.5,-1.21875 2.4375,-1.09375 2.28125,-0.703125 1.875,-0.140625 1.390625,-0.140625 1.234375,-0.140625 1.125,-0.25 1.125,-0.515625 c 0,-0.15625 0.03125,-0.234375 0.046875,-0.34375 z m 0,0"
               id="path28" />
          </g>
        </g>
        <path
           style="fill:none;stroke:#000000;stroke-width:0.638;stroke-linecap:butt;stroke-linejoin:miter;stroke-miterlimit:10;stroke-opacity:1"
           d="M 0.00134375,-8.4375e-4 H 22.970094"
           transform="matrix(1,0,0,-1,25.776,16.339)"
           id="path19" />
        <g
           style="fill:#000000;fill-opacity:1"
           id="g20">
          <g
             id="use20"
             transform="translate(25.775999,18.167999)">
            <path
               style="stroke:none"
               d="m 4.25,9.328125 -1.921875,-4.25 C 2.25,4.90625 2.1875,4.90625 2.15625,4.90625 c 0,0 -0.0625,0 -0.1875,0.09375 L 0.9375,5.78125 C 0.796875,5.890625 0.796875,5.921875 0.796875,5.953125 c 0,0.0625 0.03125,0.125 0.109375,0.125 0.0625,0 0.25,-0.15625 0.375,-0.25 C 1.34375,5.78125 1.5,5.65625 1.625,5.578125 l 2.15625,4.71875 C 3.84375,10.46875 3.90625,10.46875 4,10.46875 c 0.171875,0 0.203125,-0.0625 0.28125,-0.21875 L 9.234375,0 c 0.0625,-0.15625 0.0625,-0.203125 0.0625,-0.21875 0,-0.109375 -0.078125,-0.21875 -0.21875,-0.21875 -0.078125,0 -0.15625,0.0625 -0.25,0.234375 z m 0,0"
               id="path40" />
          </g>
        </g>
        <path
           style="fill:none;stroke:#000000;stroke-width:0.436;stroke-linecap:butt;stroke-linejoin:miter;stroke-miterlimit:10;stroke-opacity:1"
           d="M 1.875e-4,7.8125e-4 H 13.879094"
           transform="matrix(1,0,0,-1,34.867,17.95)"
           id="path20" />
        <g
           style="fill:#000000;fill-opacity:1"
           id="g21">
          <g
             id="use21"
             transform="translate(34.867001,26.627001)">
            <path
               style="stroke:none"
               d="m 5.625,-7.453125 c 0,0 0,-0.109375 -0.140625,-0.109375 -0.15625,0 -1.203125,0.09375 -1.390625,0.109375 -0.078125,0.015625 -0.140625,0.0625 -0.140625,0.21875 0,0.125 0.09375,0.125 0.25,0.125 0.53125,0 0.546875,0.078125 0.546875,0.1875 L 4.71875,-6.703125 4.0625,-4.125 c -0.1875,-0.40625 -0.5,-0.703125 -1,-0.703125 -1.28125,0 -2.625,1.609375 -2.625,3.203125 0,1.03125 0.59375,1.75 1.453125,1.75 0.21875,0 0.765625,-0.046875 1.40625,-0.828125 0.09375,0.46875 0.484375,0.828125 1,0.828125 0.375,0 0.625,-0.25 0.8125,-0.609375 C 5.296875,-0.875 5.4375,-1.53125 5.4375,-1.5625 5.4375,-1.671875 5.328125,-1.671875 5.296875,-1.671875 5.1875,-1.671875 5.1875,-1.625 5.140625,-1.46875 4.96875,-0.765625 4.765625,-0.125 4.3125,-0.125 c -0.28125,0 -0.328125,-0.28125 -0.328125,-0.5 0,-0.265625 0.03125,-0.328125 0.078125,-0.515625 z m -2.265625,6.15625 c -0.0625,0.203125 -0.0625,0.21875 -0.21875,0.40625 C 2.65625,-0.296875 2.21875,-0.125 1.90625,-0.125 c -0.546875,0 -0.703125,-0.59375 -0.703125,-1.015625 0,-0.546875 0.359375,-1.890625 0.609375,-2.390625 0.34375,-0.640625 0.828125,-1.046875 1.265625,-1.046875 0.703125,0 0.859375,0.890625 0.859375,0.953125 0,0.0625 -0.015625,0.140625 -0.03125,0.1875 z m 0,0"
               id="path41" />
          </g>
        </g>
        <g
           style="fill:#000000;fill-opacity:1"
           id="g22">
          <g
             id="use22"
             transform="translate(40.544998,28.316)">
            <path
               style="stroke:none"
               d="M 4.28125,-3.203125 C 4.265625,-3.21875 4.234375,-3.296875 4.234375,-3.3125 c 0,-0.015625 0.125,-0.109375 0.21875,-0.15625 0.625,-0.46875 1.484375,-1.09375 1.75,-1.25 0.40625,-0.265625 0.703125,-0.421875 1.0625,-0.453125 C 7.328125,-5.1875 7.4375,-5.203125 7.4375,-5.34375 7.421875,-5.390625 7.375,-5.4375 7.328125,-5.4375 7.3125,-5.4375 7.09375,-5.421875 7.03125,-5.421875 h -0.3125 c -0.140625,0 -0.328125,0 -0.40625,0 -0.0625,0 -0.375,-0.015625 -0.421875,-0.015625 -0.0625,0 -0.171875,0 -0.171875,0.140625 0,0.015625 0.015625,0.109375 0.125,0.125 0.0625,0 0.203125,0.015625 0.203125,0.109375 0,0.125 -0.171875,0.265625 -0.1875,0.265625 l -0.0625,0.0625 C 5.78125,-4.703125 5.75,-4.671875 5.703125,-4.65625 l -3.25,2.359375 0.625,-2.53125 c 0.078125,-0.28125 0.09375,-0.34375 0.671875,-0.34375 0.15625,0 0.265625,0 0.265625,-0.15625 C 4.015625,-5.34375 4,-5.4375 3.875,-5.4375 c -0.15625,0 -0.34375,0.015625 -0.5,0.015625 h -0.5 c -0.765625,0 -0.96875,-0.015625 -1.03125,-0.015625 -0.03125,0 -0.15625,0 -0.15625,0.140625 0,0.125 0.09375,0.125 0.234375,0.125 0.265625,0 0.5,0 0.5,0.125 0,0.03125 -0.015625,0.03125 -0.046875,0.140625 L 1.3125,-0.625 c -0.0625,0.296875 -0.078125,0.359375 -0.671875,0.359375 -0.15625,0 -0.25,0 -0.25,0.15625 0,0.03125 0.03125,0.109375 0.125,0.109375 0.15625,0 0.34375,-0.015625 0.5,-0.03125 h 1.03125 C 2.171875,-0.015625 2.4375,0 2.546875,0 c 0.046875,0 0.15625,0 0.15625,-0.140625 0,-0.125 -0.09375,-0.125 -0.21875,-0.125 -0.0625,0 -0.171875,0 -0.3125,-0.015625 -0.15625,-0.015625 -0.1875,-0.03125 -0.1875,-0.109375 0,-0.046875 0.0625,-0.25 0.078125,-0.375 l 0.296875,-1.203125 1.296875,-0.921875 0.953125,1.96875 c 0.03125,0.0625 0.109375,0.234375 0.140625,0.3125 0.0625,0.078125 0.0625,0.09375 0.0625,0.125 0,0.21875 -0.296875,0.21875 -0.390625,0.21875 -0.078125,0 -0.1875,0 -0.1875,0.15625 0,0 0,0.109375 0.125,0.109375 C 4.453125,0 4.75,-0.015625 4.828125,-0.03125 H 5.28125 C 6.015625,-0.03125 6,0 6.09375,0 6.125,0 6.25,0 6.25,-0.15625 c 0,-0.109375 -0.109375,-0.109375 -0.15625,-0.109375 -0.3125,0 -0.421875,-0.0625 -0.546875,-0.328125 z m 0,0"
               id="path42" />
          </g>
        </g>
        <g
           style="fill:#000000;fill-opacity:1"
           id="g23">
          <g
             id="use23"
             transform="translate(49.943001,2.6300001)">
            <path
               style="stroke:none"
               d="M 6.625,13.6875 C 6.625,9.109375 5.5625,4.25 2.421875,0.671875 c -0.21875,-0.25 -0.8125,-0.875 -1.1875,-1.21875 -0.125,-0.09375 -0.15625,-0.09375 -0.359375,-0.09375 -0.15625,0 -0.296875,0 -0.296875,0.15625 0,0.0625 0.0625,0.140625 0.09375,0.171875 0.546875,0.546875 1.40625,1.421875 2.390625,3.1875 1.71875,3.046875 2.359375,6.984375 2.359375,10.8125 0,6.921875 -1.921875,11.140625 -4.78125,14.0625 -0.03125,0.03125 -0.0625,0.07813 -0.0625,0.125 0,0.15625 0.140625,0.15625 0.296875,0.15625 0.203125,0 0.234375,0 0.390625,-0.125 1.5,-1.3125 3.21875,-3.515625 4.3125,-6.890625 C 6.28125,18.84375 6.625,16.25 6.625,13.6875 Z m 0,0"
               id="path43" />
          </g>
        </g>
        <g
           style="fill:#000000;fill-opacity:1"
           id="g24">
          <g
             id="use24"
             transform="translate(62.332001,20.643)">
            <path
               style="stroke:none"
               d="m 10.65625,-9.84375 c 0.59375,-0.9375 1.125,-1.34375 2,-1.421875 0.171875,-0.01563 0.3125,-0.01563 0.3125,-0.328125 0,-0.0625 -0.03125,-0.171875 -0.1875,-0.171875 -0.3125,0 -1.0625,0.04687 -1.359375,0.04687 -0.5,0 -1.015625,-0.04687 -1.5,-0.04687 -0.140625,0 -0.3125,0 -0.3125,0.328125 0,0.15625 0.15625,0.171875 0.21875,0.171875 0.640625,0.0625 0.703125,0.359375 0.703125,0.578125 0,0.25 -0.234375,0.65625 -0.25,0.671875 l -5.40625,8.5625 -1.203125,-9.28125 c 0,-0.5 0.890625,-0.53125 1.078125,-0.53125 0.265625,0 0.421875,0 0.421875,-0.328125 0,-0.171875 -0.203125,-0.171875 -0.25,-0.171875 -0.296875,0 -0.640625,0.04687 -0.921875,0.04687 H 3.03125 c -1.25,0 -1.78125,-0.04687 -1.796875,-0.04687 -0.09375,0 -0.296875,0 -0.296875,0.3125 0,0.1875 0.109375,0.1875 0.390625,0.1875 0.875,0 0.921875,0.15625 0.984375,0.59375 l 1.375,10.625 C 3.734375,0.3125 3.734375,0.359375 3.984375,0.359375 4.1875,0.359375 4.265625,0.3125 4.4375,0.03125 Z m 0,0"
               id="path44" />
          </g>
        </g>
      </g>
    </g>
    <path
       style="opacity:1;fill:#800000;fill-opacity:1;stroke:#800000;stroke-width:0.2;stroke-miterlimit:0;stroke-dasharray:none;stroke-opacity:0.999931"
       id="path45"
       d="m 58.688946,55.103212 c 1.07419,0.07916 2.14557,0.18637 3.22063,0.254429 0.84078,0.04274 1.68194,0.065 2.52206,0.120142 0.79686,-0.0049 1.57105,0.117083 2.34688,0.290258 1.29546,0.334227 2.57868,0.713537 3.86899,1.06729 1.19692,0.306734 2.37888,0.659545 3.54926,1.054753 1.16646,0.418521 2.34398,0.80663 3.50319,1.24492 1.29313,0.493483 2.52401,1.128009 3.76333,1.739691 1.15931,0.568079 2.31787,1.137706 3.47478,1.710667 0.76539,0.386789 1.47968,0.857136 2.1521,1.387318 0.4767,0.336601 0.80269,0.786144 1.09229,1.282727 0.32421,0.563928 0.64876,1.126633 0.87095,1.739529 0.0961,0.268248 0.12928,0.550569 0.20145,0.824768 0.0668,0.295817 0.1035,0.596222 0.16115,0.894024 0.15309,0.547063 0.28546,1.09951 0.39575,1.656731 0.0577,0.267684 0.0882,0.537903 0.095,0.811141 0.004,0.323876 0.002,0.647787 1.4e-4,0.971672 -5.3e-4,0.115617 -0.001,0.231235 -0.002,0.346855 0,0 0.0887,0.04522 0.0887,0.04522 v 0 c 2.4e-4,-0.115718 5.3e-4,-0.231439 0.001,-0.347157 0.001,-0.323996 0.003,-0.64801 -1.8e-4,-0.971998 -0.006,-0.273997 -0.0366,-0.544766 -0.0951,-0.813069 -0.11078,-0.55698 -0.24262,-1.109472 -0.39537,-1.656491 -0.0573,-0.297931 -0.0944,-0.598281 -0.16033,-0.89436 -0.0724,-0.274643 -0.10618,-0.55722 -0.20206,-0.826034 -0.22215,-0.613551 -0.54672,-1.176777 -0.87091,-1.741427 -0.28891,-0.497914 -0.61364,-0.94918 -1.09126,-1.286243 -0.72195,-0.569989 -1.49439,-1.065935 -2.31577,-1.482402 -1.15658,-0.572537 -2.31476,-1.141809 -3.47361,-1.709714 -1.23952,-0.611864 -2.47081,-1.246169 -3.76434,-1.739336 -1.1595,-0.438079 -2.33705,-0.826675 -3.5038,-1.244963 -1.17025,-0.395097 -2.35231,-0.746992 -3.549,-1.053869 -1.29069,-0.353793 -2.5742,-0.733555 -3.87011,-1.067568 -0.77679,-0.173079 -1.55217,-0.295007 -2.34996,-0.290716 -0.8394,-0.054 -1.67982,-0.07551 -2.51979,-0.118451 -1.07588,-0.06813 -2.14809,-0.175173 -3.22295,-0.256387 z" />
    <path
       style="opacity:1;fill:#800000;fill-opacity:1;stroke:#800000;stroke-width:0.2;stroke-miterlimit:0;stroke-dasharray:none;stroke-opacity:0.999931"
       id="path46"
       d="m 58.721506,81.657563 c 0.7228,0.03136 1.44598,0.05367 2.16931,0.06816 0.77928,0.01643 1.55543,0.03242 2.32886,-0.0732 0.92207,-0.158308 1.81541,-0.453652 2.66393,-0.843672 0.94403,-0.484198 1.7424,-1.187791 2.52083,-1.897411 0.83785,-0.782707 1.64417,-1.598279 2.45389,-2.409802 0.85939,-0.874029 1.72484,-1.740759 2.63831,-2.55843 1.03578,-0.890011 2.06741,-1.784517 3.07395,-2.707566 0.9184,-0.878488 1.84255,-1.748986 2.79234,-2.593549 1.25075,-1.15339 2.60182,-2.18081 4.00918,-3.13332 1.3455,-0.923203 2.76983,-1.705145 4.26829,-2.346376 1.11953,-0.471963 2.31654,-0.655957 3.51779,-0.760605 0.7781,-0.09068 1.08839,0.02585 1.68066,0.496027 0.67389,0.595231 1.14407,1.368587 1.58776,2.140175 0.33757,0.598575 0.55812,1.245709 0.66996,1.921537 0.0577,0.559159 0.0497,1.122547 0.0724,1.683943 0.0203,0.468633 0.0384,0.937363 0.0497,1.406303 0.003,0.14216 0.005,0.284355 0.005,0.426556 -1.4e-4,0.08508 -2.7e-4,0.170164 -5.3e-4,0.255243 0.012,0.149069 -0.0208,0.289137 -0.0656,0.430316 -0.0515,0.137885 -0.0984,0.276177 -0.12675,0.420682 0,0 0.0876,0.04677 0.0876,0.04677 v 0 c 0.0279,-0.144245 0.0745,-0.282276 0.12591,-0.419827 0.0453,-0.141843 0.0797,-0.282734 0.0676,-0.432702 1.1e-4,-0.0851 2.7e-4,-0.170194 5.3e-4,-0.255289 -6e-5,-0.142409 -0.002,-0.284811 -0.006,-0.427178 -0.0122,-0.469249 -0.0309,-0.938292 -0.0513,-1.407255 -0.0226,-0.56162 -0.014,-1.125185 -0.0711,-1.68462 -0.11194,-0.677125 -0.33258,-1.325605 -0.67037,-1.925545 -0.44328,-0.7722 -0.91325,-1.546045 -1.58566,-2.143215 -0.62114,-0.495983 -1.0432,-0.696608 -1.84814,-0.58755 -1.20113,0.106593 -2.39804,0.291664 -3.51717,0.76467 -1.49846,0.642125 -2.92246,1.425106 -4.26821,2.348534 -1.40747,0.953236 -2.75937,1.980615 -4.01131,3.133413 -0.95052,0.843896 -1.87461,1.714516 -2.79262,2.593546 -1.00653,0.923052 -2.03793,1.817793 -3.07412,2.70733 -0.91389,0.817526 -1.77926,1.684682 -2.63908,2.558577 -0.80952,0.811546 -1.61614,1.626608 -2.45377,2.409351 -0.77802,0.70888 -1.5762,1.411494 -2.51997,1.894478 -0.8482,0.389001 -1.74091,0.684035 -2.66249,0.841234 -0.77362,0.104363 -1.5498,0.08774 -2.3291,0.07119 -0.72351,-0.01434 -1.44691,-0.03561 -2.16981,-0.06886 z" />
    <path
       style="opacity:1;fill:#800000;fill-opacity:1;stroke:#800000;stroke-width:0.2;stroke-miterlimit:0;stroke-dasharray:none;stroke-opacity:0.999931"
       id="path47"
       d="m 60.177476,107.85868 c 1.34887,0.21624 2.70182,0.40742 4.05615,0.58655 1.63254,0.20568 3.27333,0.33496 4.91575,0.42825 1.4913,0.0787 2.98497,0.0863 4.47793,0.093 1.74885,0.003 3.4977,8e-4 5.24655,-1e-5 1.72632,-0.007 3.45284,0.0265 5.17794,-0.0481 1.70319,-0.0933 3.37819,-0.42827 5.04195,-0.78536 1.73936,-0.35426 3.42941,-0.90163 5.08388,-1.53758 1.62512,-0.65424 3.20812,-1.40721 4.75762,-2.22318 1.321484,-0.71766 2.599254,-1.51433 3.833974,-2.37198 1.28655,-0.9146 2.47066,-1.96172 3.63849,-3.020764 0.88988,-0.789559 1.6506,-1.701204 2.28417,-2.705351 0.4153,-0.702821 0.79459,-1.427697 1.01807,-2.215216 0.1066,-0.667684 0.17908,-1.342125 0.25235,-2.014635 0.0519,-0.493948 0.0858,-0.989701 0.10524,-1.485951 0.005,-0.134471 0.006,-0.269036 0.005,-0.403584 -8e-4,-0.09699 -0.001,-0.193972 -0.001,-0.29096 -1.4e-4,-0.09095 -1.3e-4,-0.181896 -1.4e-4,-0.272844 -0.009,-0.349956 0.0121,-0.698807 0.0345,-1.047887 0.0281,-0.398667 0.0562,-0.797317 0.0824,-1.196115 0,0 -0.0857,-0.04438 -0.0857,-0.04438 v 0 c -0.0259,0.398836 -0.0535,0.797542 -0.0823,1.196179 -0.0233,0.348723 -0.0455,0.697296 -0.0377,1.04699 0,0.09096 2e-5,0.181922 1.7e-4,0.272886 1.7e-4,0.097 5.3e-4,0.193998 0.001,0.290997 7.9e-4,0.134535 10e-4,0.269092 -0.004,0.403566 -0.0181,0.496409 -0.0512,0.99232 -0.10286,1.486408 -0.0729,0.671917 -0.14692,1.345481 -0.25257,2.012683 -0.22151,0.787254 -0.5993,1.51208 -1.01441,2.21411 -0.63276,1.003567 -1.39322,1.914107 -2.28146,2.703999 -1.16691,1.05944 -2.35076,2.106289 -3.63745,3.019979 -1.23498,0.85658 -2.51202,1.65352 -3.833004,2.37127 -1.54888,0.81619 -3.13155,1.56887 -4.75633,2.22274 -1.65454,0.6351 -3.34426,1.1827 -5.08362,1.53604 -1.6634,0.35711 -3.33814,0.69137 -5.04103,0.78409 -1.72487,0.074 -3.45112,0.0411 -5.17718,0.0482 -1.74925,0.001 -3.4985,0.003 -5.24775,-7.9e-4 -1.49276,-0.007 -2.98619,-0.0147 -4.47729,-0.0931 -1.64218,-0.0934 -3.28272,-0.22264 -4.91501,-0.42855 -1.35586,-0.17958 -2.7105,-0.37076 -4.06042,-0.59042 z" />
    <path
       style="fill:#0000ff;stroke:#0000ff;stroke-width:0.76;stroke-miterlimit:0;stroke-dasharray:none;stroke-opacity:1"
       d="M 32.01828,37.027141 31.786169,124.40952"
       id="path1" />
    <text
       xml:space="preserve"
       style="font-size:5.64444px;fill:#0000ff;stroke:#0000ff;stroke-width:0.2;stroke-miterlimit:0;stroke-dasharray:none;stroke-opacity:1"
       x="24.03161"
       y="130.48729"
       id="text1"><tspan
         sodipodi:role="line"
         id="tspan1"
         style="stroke-width:0.2;stroke-dasharray:none;fill:#0000ff;stroke:#0000ff"
         x="24.03161"
         y="130.48729">Layer</tspan><tspan
         sodipodi:role="line"
         style="stroke-width:0.2;stroke-dasharray:none;fill:#0000ff;stroke:#0000ff"
         x="24.03161"
         y="137.54285"
         id="tspan2">Norm</tspan></text>
    <path
       style="fill:#ffffff;fill-opacity:1;stroke:#0000ff;stroke-width:0.8;stroke-miterlimit:0;stroke-dasharray:none;stroke-opacity:1"
       d="m 40.234182,113.54819 -0.04155,8.21537 76.598828,-0.0325 -0.27709,-8.21496"
       id="path2" />
    <text
       xml:space="preserve"
       style="font-size:5.64444px;fill:#0000ff;fill-opacity:1;stroke:#0000ff;stroke-width:0.2;stroke-miterlimit:0;stroke-dasharray:none;stroke-opacity:1"
       x="101.62669"
       y="132.72696"
       id="text3"><tspan
         sodipodi:role="line"
         id="tspan3"
         style="fill:#0000ff;stroke-width:0.2;stroke-dasharray:none"
         x="101.62669"
         y="132.72696">h heads</tspan></text>
    <rect
       style="fill:none;fill-opacity:1;stroke:#af0000;stroke-width:0.846769;stroke-miterlimit:0;stroke-dasharray:none;stroke-opacity:0.999931"
       id="rect17-4"
       width="13.511003"
       height="13.902734"
       x="45.771053"
       y="100.1189" />
    <rect
       style="fill:none;fill-opacity:1;stroke:#af0000;stroke-width:0.8;stroke-miterlimit:0;stroke-dasharray:none;stroke-opacity:0.999931"
       id="rect17-4-7"
       width="54.80756"
       height="13.094368"
       x="83.276985"
       y="-215.21744"
       transform="rotate(90)" />
    <path
       style="fill:#800000;fill-opacity:1;stroke:#08b100;stroke-width:0.690807;stroke-miterlimit:0;stroke-dasharray:none;stroke-opacity:0.999931;marker-start:url(#Triangle-7);marker-end:url(#Triangle-1-2)"
       d="m 139.47496,66.764614 49.88571,-0.007"
       id="path16-9" />
    <text
       xml:space="preserve"
       style="font-size:5.64444px;fill:#008000;fill-opacity:1;stroke:#08b100;stroke-width:0.2;stroke-miterlimit:0;stroke-dasharray:none;stroke-opacity:0.999931"
       x="162.49959"
       y="62.967392"
       id="text17-2"><tspan
         sodipodi:role="line"
         id="tspan17-0"
         style="stroke-width:0.2;stroke-dasharray:none"
         x="162.49959"
         y="62.967392"><tspan
   style="fill:#0000ff;stroke:#0800b1;stroke-opacity:0.999931"
   id="tspan4">h</tspan>d<tspan
   style="font-size:65%;baseline-shift:sub"
   id="tspan16">V</tspan></tspan></text>
    <text
       xml:space="preserve"
       style="font-size:5.64444px;fill:#008000;fill-opacity:1;stroke:#08b100;stroke-width:0.2;stroke-miterlimit:0;stroke-dasharray:none;stroke-opacity:0.999931"
       x="189.93321"
       y="112.81224"
       id="text17-2-1"><tspan
         sodipodi:role="line"
         id="tspan17-0-8"
         style="stroke-width:0.2;stroke-dasharray:none"
         x="189.93321"
         y="112.81224"><tspan
   style="fill:#0000ff;stroke:#0800b1;stroke-opacity:0.999931"
   id="tspan4-5">h</tspan>d<tspan
   style="font-size:65%;baseline-shift:sub"
   id="tspan16-9">V</tspan></tspan></text>
    <text
       xml:space="preserve"
       style="font-size:5.64444px;fill:#008000;fill-opacity:1;stroke:#08b100;stroke-width:0.2;stroke-miterlimit:0;stroke-dasharray:none;stroke-opacity:0.999931"
       x="7.3663788"
       y="80.847603"
       id="text17-2-5"><tspan
         sodipodi:role="line"
         id="tspan17-0-5"
         style="stroke-width:0.2;stroke-dasharray:none"
         x="7.3663788"
         y="80.847603">N</tspan></text>
    <rect
       style="fill:#b3b3b3;stroke:#000000;stroke-width:0.8;stroke-miterlimit:0;stroke-dasharray:none;stroke-opacity:1"
       id="rect4-6-4-0-1-5-5-6"
       width="12.229253"
       height="15.134747"
       x="228.27019"
       y="71.294594" />
    <text
       xml:space="preserve"
       style="font-size:5.64444px;fill:#008000;fill-opacity:1;stroke:#08b100;stroke-width:0.2;stroke-miterlimit:0;stroke-dasharray:none;stroke-opacity:0.999931"
       x="231.8775"
       y="92.76622"
       id="text17-3-2-6-5-3"><tspan
         sodipodi:role="line"
         id="tspan17-8-7-3-3-1"
         style="stroke-width:0.2;stroke-dasharray:none"
         x="231.8775"
         y="92.76622">D</tspan></text>
    <text
       xml:space="preserve"
       style="font-size:5.64444px;fill:#008000;fill-opacity:1;stroke:#08b100;stroke-width:0.2;stroke-miterlimit:0;stroke-dasharray:none;stroke-opacity:0.999931"
       x="85.079742"
       y="94.050812"
       id="text17-2-5-4"><tspan
         sodipodi:role="line"
         id="tspan17-0-5-4"
         style="stroke-width:0.2;stroke-dasharray:none"
         x="85.079742"
         y="94.050812">N x N</tspan></text>
    <text
       xml:space="preserve"
       style="font-size:5.64444px;fill:#008000;fill-opacity:1;stroke:#08b100;stroke-width:0.2;stroke-miterlimit:0;stroke-dasharray:none;stroke-opacity:0.999931"
       x="281.87051"
       y="80.251945"
       id="text17-2-5-6"><tspan
         sodipodi:role="line"
         id="tspan17-0-5-1"
         style="stroke-width:0.2;stroke-dasharray:none"
         x="281.87051"
         y="80.251945">N</tspan></text>
    <path
       style="fill:#800000;stroke:#a20000;stroke-width:0.76656;stroke-miterlimit:0;stroke-opacity:1;marker-end:url(#Triangle-8-6)"
       d="m 118.85078,79.141907 13.21186,0.13271"
       id="path5-3-0" />
    <path
       style="fill:#800000;stroke:#a20000;stroke-width:0.848785;stroke-miterlimit:0;stroke-opacity:1;marker-end:url(#Triangle-8-6-5)"
       d="m 195.91609,79.3961 23.84259,0.0902"
       id="path5-3-0-4" />
    <path
       style="fill:#800000;stroke:#a20000;stroke-width:0.824129;stroke-miterlimit:0;stroke-dasharray:none;stroke-opacity:1"
       d="m 21.336329,29.449692 232.259851,0.02093"
       id="path5-3-0-4-7" />
    <path
       style="fill:#800000;stroke:#a20000;stroke-width:0.687509;stroke-miterlimit:0;stroke-dasharray:none;stroke-opacity:1"
       d="m 21.086414,68.003771 0.0209,-38.953663"
       id="path5-3-0-4-7-9" />
    <path
       style="fill:#800000;stroke:#a20000;stroke-width:0.786289;stroke-miterlimit:0;stroke-dasharray:none;stroke-opacity:1;marker-start:url(#Triangle-7-6-9)"
       d="m 253.31196,69.804417 -0.0119,-40.296731"
       id="path5-3-0-4-7-9-7" />
    <path
       style="fill:#800000;stroke:#a20000;stroke-width:0.804475;stroke-miterlimit:0;stroke-opacity:1;marker-end:url(#Triangle-8-6-5-1)"
       d="m 243.02723,78.190099 18.47536,0.104522"
       id="path5-3-0-4-4" />
    <text
       xml:space="preserve"
       style="font-size:5.64444px;fill:#800000;stroke:#800000;stroke-width:0.3;stroke-miterlimit:0;stroke-dasharray:none;stroke-opacity:0.999931"
       x="207.26231"
       y="75.749733"
       id="text12"><tspan
         sodipodi:role="line"
         id="tspan12"
         style="fill:#800000;stroke:#800000;stroke-width:0.3;stroke-dasharray:none"
         x="207.26231"
         y="75.749733">x</tspan></text>
    <text
       xml:space="preserve"
       style="font-size:5.64444px;fill:#800000;stroke:#800000;stroke-width:0.3;stroke-miterlimit:0;stroke-dasharray:none;stroke-opacity:0.999931"
       x="35.507481"
       y="64.45787"
       id="text12-3"><tspan
         sodipodi:role="line"
         id="tspan12-8"
         style="fill:#800000;stroke:#800000;stroke-width:0.3;stroke-dasharray:none"
         x="35.507481"
         y="64.45787">x</tspan></text>
    <text
       xml:space="preserve"
       style="font-size:5.64444px;fill:#800000;stroke:#800000;stroke-width:0.3;stroke-miterlimit:0;stroke-dasharray:none;stroke-opacity:0.999931"
       x="36.40876"
       y="78.818489"
       id="text12-3-1"><tspan
         sodipodi:role="line"
         id="tspan12-8-5"
         style="fill:#800000;stroke:#800000;stroke-width:0.3;stroke-dasharray:none"
         x="36.40876"
         y="78.818489">x</tspan></text>
    <text
       xml:space="preserve"
       style="font-size:5.64444px;fill:#800000;stroke:#800000;stroke-width:0.3;stroke-miterlimit:0;stroke-dasharray:none;stroke-opacity:0.999931"
       x="38.881142"
       y="96.105553"
       id="text12-3-1-8"><tspan
         sodipodi:role="line"
         id="tspan12-8-5-1"
         style="fill:#800000;stroke:#800000;stroke-width:0.3;stroke-dasharray:none"
         x="38.881142"
         y="96.105553">x</tspan></text>
    <path
       style="fill:#800000;stroke:#800000;stroke-width:0.8;stroke-miterlimit:0;stroke-dasharray:none;stroke-opacity:0.999931"
       d="m 252.9189,75.345141 0.0342,5.848498"
       id="path12" />
    <circle
       style="fill:none;stroke:#800000;stroke-width:0.799999;stroke-miterlimit:0;stroke-dasharray:none;stroke-opacity:0.999931"
       id="path13"
       cx="252.92422"
       cy="78.094223"
       r="3.0186546"
       inkscape:export-filename="vit_illustration2.png"
       inkscape:export-xdpi="96"
       inkscape:export-ydpi="96" />
    <path
       style="fill:none;stroke:#800000;stroke-width:0.799999;stroke-miterlimit:0;stroke-dasharray:none;stroke-opacity:0.999931"
       id="path14"
       d="m 28.264432,78.345492 c 0.63415,-0.359145 1.234392,-0.773824 1.844984,-1.170861 0.501349,-0.353763 1.042316,-0.644511 1.561666,-0.970049 0.634156,-0.403167 1.252485,-0.829908 1.839513,-1.299091 0.728187,-0.555191 1.316387,-1.24002 1.838069,-1.986198 0.547042,-0.795938 1.008589,-1.645764 1.481857,-2.486425 0.496964,-0.870532 0.968422,-1.755047 1.430229,-2.6446 0.383677,-0.755309 0.781343,-1.503894 1.126545,-2.277854 0.28565,-0.716438 0.571077,-1.432747 0.874051,-2.142069 0.269719,-0.624427 0.58796,-1.225949 0.910659,-1.824148 0.293746,-0.541994 0.618374,-1.072664 1.031327,-1.532676 0.367898,-0.34734 0.752494,-0.679434 1.139754,-1.005573 0.234418,-0.182443 0.469617,-0.377163 0.749602,-0.485383 0.08147,-0.0296 0.166645,-0.02978 0.251867,-0.02688 0.06888,0.0083 0.121301,0.0069 0.178387,-0.02979 0,0 -0.08463,-0.05274 -0.08463,-0.05274 v 0 c -0.05553,0.03213 -0.109247,0.03039 -0.174157,0.02373 -0.08611,-0.0024 -0.171926,-2.64e-4 -0.253823,0.03042 -0.279519,0.110995 -0.514919,0.305752 -0.749445,0.489301 -0.387435,0.32679 -0.773092,0.658469 -1.141371,1.006192 -0.411535,0.462074 -0.735922,0.993537 -1.030837,1.535605 -0.323133,0.598342 -0.641927,1.199928 -0.910368,1.825321 -0.302747,0.709303 -0.589674,1.424924 -0.874855,2.141447 -0.344205,0.774237 -0.740874,1.523175 -1.124895,2.278134 -0.461423,0.88963 -0.932683,1.77415 -1.430017,2.644352 -0.473059,0.840427 -0.93458,1.689912 -1.481471,2.485577 -0.521288,0.745456 -1.109578,1.429068 -1.837251,1.983508 -0.587351,0.468362 -1.205426,0.895032 -1.839574,1.297757 -0.519684,0.325252 -1.061003,0.615738 -1.562264,0.96987 -0.609793,0.398227 -1.209715,0.813684 -1.84554,1.169979 z" />
    <path
       style="fill:none;stroke:#800000;stroke-width:0.799999;stroke-miterlimit:0;stroke-dasharray:none;stroke-opacity:0.999931"
       id="path15"
       d="m 43.722575,104.59869 c -0.846701,-0.72866 -1.624912,-1.52558 -2.334363,-2.38738 -0.618969,-0.78928 -1.146511,-1.64358 -1.650907,-2.508834 -0.472456,-0.867624 -0.971339,-1.720133 -1.465014,-2.575706 -0.593204,-1.05112 -1.053878,-2.168104 -1.571665,-3.256684 -0.518083,-1.069563 -1.09184,-2.110582 -1.66297,-3.152333 -0.5032,-0.941544 -1.025577,-1.872578 -1.534689,-2.810907 -0.432972,-0.775899 -0.905089,-1.529049 -1.385858,-2.275973 -0.375206,-0.561258 -0.776679,-1.104405 -1.164979,-1.656709 -0.312737,-0.471348 -0.662353,-0.914652 -1.038685,-1.336273 -0.315143,-0.358545 -0.66416,-0.68289 -1.020578,-0.9993 -0.277378,-0.228441 -0.568594,-0.439314 -0.851754,-0.660796 -0.05844,-0.04376 -0.116888,-0.08752 -0.175332,-0.131287 0,0 -0.09066,-0.03604 -0.09066,-0.03604 v 0 c 0.0585,0.04371 0.117007,0.08742 0.175509,0.13113 0.28294,0.221414 0.573341,0.432903 0.851482,0.660037 0.356772,0.316257 0.706771,0.639813 1.021916,0.998628 0.376658,0.421301 0.727004,0.864066 1.039662,1.335466 0.38848,0.552349 0.789665,1.095843 1.165799,1.656646 0.481454,0.746646 0.953773,1.49987 1.387081,2.275734 0.509741,0.938387 1.032248,1.869736 1.535845,2.811468 0.571042,1.041701 1.145003,2.082509 1.663282,3.151883 0.517782,1.088612 0.978874,2.205358 1.570858,3.257132 0.493246,0.855483 0.991822,1.707843 1.463979,2.575293 0.504669,0.865955 1.032695,1.720795 1.651815,2.510885 0.70843,0.86131 1.485331,1.65791 2.330074,2.38724 z" />
    <path
       style="fill:none;stroke:#800000;stroke-width:0.799999;stroke-miterlimit:0;stroke-dasharray:none;stroke-opacity:0.999931"
       id="path16"
       d="m 28.347979,80.107649 c 0.736904,-0.01421 1.472922,0.02432 2.208985,0.05249 0.61925,0.02424 1.23897,0.03002 1.858613,0.03372 0.450438,0.0024 0.90088,0.0021 1.35132,0.0019 0.600655,-5.29e-4 1.201312,-5.29e-4 1.801969,-7.94e-4 0.66635,-0.0043 1.332926,0.01019 1.999025,-0.01072 0.708414,-0.03646 1.417433,-0.05559 2.126633,-0.06726 0.60333,-0.0084 1.20672,-0.0096 1.810097,-0.01003 0.419735,0 0.839472,2.64e-4 1.25921,7.93e-4 0.304141,5.3e-4 0.608285,1.54e-4 0.912426,9e-5 0.317421,-6.8e-5 0.634844,8.5e-5 0.952265,2.65e-4 0,0 -0.08,-0.05813 -0.08,-0.05813 v 0 c -0.317119,2.56e-4 -0.634241,5.29e-4 -0.95136,2.64e-4 -0.304231,-8.7e-5 -0.608459,-5.29e-4 -0.91269,-2.64e-4 -0.419476,-1.9e-5 -0.838952,-2.65e-4 -1.258427,-9.8e-5 -0.603092,5.29e-4 -1.206196,0.0024 -1.80924,0.01082 -0.7093,0.0118 -1.418431,0.03095 -2.126959,0.0672 -0.666123,0.02053 -1.332701,0.0062 -1.999067,0.01032 -0.600911,1.6e-5 -1.201825,2.65e-4 -1.802736,1.46e-4 -0.45022,3.2e-5 -0.900446,5.29e-4 -1.350663,-0.0013 -0.619443,-0.0035 -1.238952,-0.0097 -1.858005,-0.03366 -0.736566,-0.02802 -1.473065,-0.06518 -2.210451,-0.0531 z" />
    <rect
       style="fill:#b3b3b3;stroke:#000000;stroke-width:0.8;stroke-miterlimit:0;stroke-dasharray:none;stroke-opacity:1"
       id="rect4-6-4-0-1-5-5-6-1"
       width="12.229253"
       height="15.134747"
       x="267.15161"
       y="71.450005" />
    <text
       xml:space="preserve"
       style="font-size:5.64444px;fill:#008000;fill-opacity:1;stroke:#08b100;stroke-width:0.2;stroke-miterlimit:0;stroke-dasharray:none;stroke-opacity:0.999931"
       x="270.759"
       y="92.921631"
       id="text17-3-2-6-5-3-7"
       inkscape:export-filename="vit_illustration2.png"
       inkscape:export-xdpi="300"
       inkscape:export-ydpi="300"><tspan
         sodipodi:role="line"
         id="tspan17-8-7-3-3-1-8"
         style="stroke-width:0.2;stroke-dasharray:none"
         x="270.759"
         y="92.921631">D</tspan></text>
  </g>
</svg>
