<?xml version="1.0" encoding="UTF-8" standalone="no"?>
<svg
   xmlns:dc="http://purl.org/dc/elements/1.1/"
   xmlns:cc="http://creativecommons.org/ns#"
   xmlns:rdf="http://www.w3.org/1999/02/22-rdf-syntax-ns#"
   xmlns:svg="http://www.w3.org/2000/svg"
   xmlns="http://www.w3.org/2000/svg"
   xmlns:xlink="http://www.w3.org/1999/xlink"
   xmlns:sodipodi="http://sodipodi.sourceforge.net/DTD/sodipodi-0.dtd"
   xmlns:inkscape="http://www.inkscape.org/namespaces/inkscape"
   width="210mm"
   height="297mm"
   viewBox="0 0 210 297"
   version="1.1"
   id="svg1055"
   inkscape:version="1.0.1 (1.0.1+r75)"
   sodipodi:docname="bp_2_1_neuron_exo_sol.svg"
   inkscape:export-filename="/home/decencie/Documents/DeepLearningForImageAnalysis/lectures/intro_artificial_neural_networks/graphics/bp_2_1_neuron_exo_sol.png"
   inkscape:export-xdpi="300"
   inkscape:export-ydpi="300">
  <sodipodi:namedview
     id="base"
     pagecolor="#ffffff"
     bordercolor="#666666"
     borderopacity="1.0"
     inkscape:pageopacity="0.0"
     inkscape:pageshadow="2"
     inkscape:zoom="0.82106903"
     inkscape:cx="1272.6091"
     inkscape:cy="237.67171"
     inkscape:document-units="mm"
     inkscape:current-layer="layer1"
     showgrid="true"
     showborder="false"
     inkscape:window-width="1669"
     inkscape:window-height="916"
     inkscape:window-x="148"
     inkscape:window-y="89"
     inkscape:window-maximized="0"
     inkscape:document-rotation="0">
    <inkscape:grid
       id="grid1600"
       type="xygrid" />
  </sodipodi:namedview>
  <defs
     id="defs1049">
    <marker
       inkscape:stockid="Arrow2Mend"
       orient="auto"
       refY="0.0"
       refX="0.0"
       id="Arrow2Mend"
       style="overflow:visible;"
       inkscape:isstock="true">
      <path
         id="path2791"
         style="fill-rule:evenodd;stroke-width:0.625;stroke-linejoin:round;stroke:#000000;stroke-opacity:1;fill:#000000;fill-opacity:1"
         d="M 8.7185878,4.0337352 L -2.2072895,0.016013256 L 8.7185884,-4.0017078 C 6.9730900,-1.6296469 6.9831476,1.6157441 8.7185878,4.0337352 z "
         transform="scale(0.6) rotate(180) translate(0,0)" />
    </marker>
    <marker
       inkscape:stockid="Arrow1Lend"
       orient="auto"
       refY="0.0"
       refX="0.0"
       id="Arrow1Lend"
       style="overflow:visible;"
       inkscape:isstock="true">
      <path
         id="path2767"
         d="M 0.0,0.0 L 5.0,-5.0 L -12.5,0.0 L 5.0,5.0 L 0.0,0.0 z "
         style="fill-rule:evenodd;stroke:#000000;stroke-width:1pt;stroke-opacity:1;fill:#000000;fill-opacity:1"
         transform="scale(0.8) rotate(180) translate(12.5,0)" />
    </marker>
    <g
       id="g8210">
      <symbol
         overflow="visible"
         id="symbol8459">
        <path
           style="stroke:none;"
           d=""
           id="path2191" />
      </symbol>
      <symbol
         overflow="visible"
         id="symbol2449">
        <path
           style="stroke:none;"
           d="M 6.5625 -2.296875 C 6.734375 -2.296875 6.921875 -2.296875 6.921875 -2.5 C 6.921875 -2.6875 6.734375 -2.6875 6.5625 -2.6875 L 1.171875 -2.6875 C 1 -2.6875 0.828125 -2.6875 0.828125 -2.5 C 0.828125 -2.296875 1 -2.296875 1.171875 -2.296875 Z M 6.5625 -2.296875 "
           id="path5643" />
      </symbol>
      <symbol
         overflow="visible"
         id="symbol3633">
        <path
           style="stroke:none;"
           d=""
           id="path3929" />
      </symbol>
      <symbol
         overflow="visible"
         id="symbol4685">
        <path
           style="stroke:none;"
           d="M 2.9375 -6.375 C 2.9375 -6.625 2.9375 -6.640625 2.703125 -6.640625 C 2.078125 -6 1.203125 -6 0.890625 -6 L 0.890625 -5.6875 C 1.09375 -5.6875 1.671875 -5.6875 2.1875 -5.953125 L 2.1875 -0.78125 C 2.1875 -0.421875 2.15625 -0.3125 1.265625 -0.3125 L 0.953125 -0.3125 L 0.953125 0 C 1.296875 -0.03125 2.15625 -0.03125 2.5625 -0.03125 C 2.953125 -0.03125 3.828125 -0.03125 4.171875 0 L 4.171875 -0.3125 L 3.859375 -0.3125 C 2.953125 -0.3125 2.9375 -0.421875 2.9375 -0.78125 Z M 2.9375 -6.375 "
           id="path291" />
      </symbol>
      <symbol
         overflow="visible"
         id="symbol7422">
        <path
           style="stroke:none;"
           d="M 4.46875 -2 C 4.46875 -3.1875 3.65625 -4.1875 2.578125 -4.1875 C 2.109375 -4.1875 1.671875 -4.03125 1.3125 -3.671875 L 1.3125 -5.625 C 1.515625 -5.5625 1.84375 -5.5 2.15625 -5.5 C 3.390625 -5.5 4.09375 -6.40625 4.09375 -6.53125 C 4.09375 -6.59375 4.0625 -6.640625 3.984375 -6.640625 C 3.984375 -6.640625 3.953125 -6.640625 3.90625 -6.609375 C 3.703125 -6.515625 3.21875 -6.3125 2.546875 -6.3125 C 2.15625 -6.3125 1.6875 -6.390625 1.21875 -6.59375 C 1.140625 -6.625 1.125 -6.625 1.109375 -6.625 C 1 -6.625 1 -6.546875 1 -6.390625 L 1 -3.4375 C 1 -3.265625 1 -3.1875 1.140625 -3.1875 C 1.21875 -3.1875 1.234375 -3.203125 1.28125 -3.265625 C 1.390625 -3.421875 1.75 -3.96875 2.5625 -3.96875 C 3.078125 -3.96875 3.328125 -3.515625 3.40625 -3.328125 C 3.5625 -2.953125 3.59375 -2.578125 3.59375 -2.078125 C 3.59375 -1.71875 3.59375 -1.125 3.34375 -0.703125 C 3.109375 -0.3125 2.734375 -0.0625 2.28125 -0.0625 C 1.5625 -0.0625 0.984375 -0.59375 0.8125 -1.171875 C 0.84375 -1.171875 0.875 -1.15625 0.984375 -1.15625 C 1.3125 -1.15625 1.484375 -1.40625 1.484375 -1.640625 C 1.484375 -1.890625 1.3125 -2.140625 0.984375 -2.140625 C 0.84375 -2.140625 0.5 -2.0625 0.5 -1.609375 C 0.5 -0.75 1.1875 0.21875 2.296875 0.21875 C 3.453125 0.21875 4.46875 -0.734375 4.46875 -2 Z M 4.46875 -2 "
           id="path644" />
      </symbol>
      <symbol
         overflow="visible"
         id="symbol9354">
        <path
           style="stroke:none;"
           d=""
           id="path1372" />
      </symbol>
      <symbol
         overflow="visible"
         id="symbol2797">
        <path
           style="stroke:none;"
           d="M 1.90625 -0.53125 C 1.90625 -0.8125 1.671875 -1.0625 1.390625 -1.0625 C 1.09375 -1.0625 0.859375 -0.8125 0.859375 -0.53125 C 0.859375 -0.234375 1.09375 0 1.390625 0 C 1.671875 0 1.90625 -0.234375 1.90625 -0.53125 Z M 1.90625 -0.53125 "
           id="path8641" />
      </symbol>
    </g>
    <g
       id="g1880">
      <symbol
         overflow="visible"
         id="symbol1786">
        <path
           style="stroke:none;"
           d=""
           id="path8782" />
      </symbol>
      <symbol
         overflow="visible"
         id="symbol1065">
        <path
           style="stroke:none;"
           d="M 6.5625 -2.296875 C 6.734375 -2.296875 6.921875 -2.296875 6.921875 -2.5 C 6.921875 -2.6875 6.734375 -2.6875 6.5625 -2.6875 L 1.171875 -2.6875 C 1 -2.6875 0.828125 -2.6875 0.828125 -2.5 C 0.828125 -2.296875 1 -2.296875 1.171875 -2.296875 Z M 6.5625 -2.296875 "
           id="path1866" />
      </symbol>
      <symbol
         overflow="visible"
         id="symbol9533">
        <path
           style="stroke:none;"
           d="M 3.875 -2.765625 L 1.890625 -4.75 C 1.765625 -4.875 1.75 -4.890625 1.671875 -4.890625 C 1.5625 -4.890625 1.46875 -4.8125 1.46875 -4.6875 C 1.46875 -4.625 1.484375 -4.609375 1.59375 -4.5 L 3.59375 -2.5 L 1.59375 -0.484375 C 1.484375 -0.375 1.46875 -0.359375 1.46875 -0.296875 C 1.46875 -0.171875 1.5625 -0.09375 1.671875 -0.09375 C 1.75 -0.09375 1.765625 -0.109375 1.890625 -0.234375 L 3.875 -2.21875 L 5.9375 -0.15625 C 5.953125 -0.140625 6.015625 -0.09375 6.078125 -0.09375 C 6.203125 -0.09375 6.28125 -0.171875 6.28125 -0.296875 C 6.28125 -0.3125 6.28125 -0.34375 6.25 -0.40625 C 6.234375 -0.421875 4.65625 -1.984375 4.15625 -2.5 L 5.984375 -4.3125 C 6.03125 -4.375 6.1875 -4.5 6.234375 -4.5625 C 6.234375 -4.578125 6.28125 -4.625 6.28125 -4.6875 C 6.28125 -4.8125 6.203125 -4.890625 6.078125 -4.890625 C 6 -4.890625 5.96875 -4.859375 5.859375 -4.75 Z M 3.875 -2.765625 "
           id="path7036" />
      </symbol>
      <symbol
         overflow="visible"
         id="symbol5524">
        <path
           style="stroke:none;"
           d=""
           id="path9394" />
      </symbol>
      <symbol
         overflow="visible"
         id="symbol1917">
        <path
           style="stroke:none;"
           d="M 2.9375 -6.375 C 2.9375 -6.625 2.9375 -6.640625 2.703125 -6.640625 C 2.078125 -6 1.203125 -6 0.890625 -6 L 0.890625 -5.6875 C 1.09375 -5.6875 1.671875 -5.6875 2.1875 -5.953125 L 2.1875 -0.78125 C 2.1875 -0.421875 2.15625 -0.3125 1.265625 -0.3125 L 0.953125 -0.3125 L 0.953125 0 C 1.296875 -0.03125 2.15625 -0.03125 2.5625 -0.03125 C 2.953125 -0.03125 3.828125 -0.03125 4.171875 0 L 4.171875 -0.3125 L 3.859375 -0.3125 C 2.953125 -0.3125 2.9375 -0.421875 2.9375 -0.78125 Z M 2.9375 -6.375 "
           id="path8418" />
      </symbol>
      <symbol
         overflow="visible"
         id="symbol335">
        <path
           style="stroke:none;"
           d="M 4.46875 -2 C 4.46875 -3.1875 3.65625 -4.1875 2.578125 -4.1875 C 2.109375 -4.1875 1.671875 -4.03125 1.3125 -3.671875 L 1.3125 -5.625 C 1.515625 -5.5625 1.84375 -5.5 2.15625 -5.5 C 3.390625 -5.5 4.09375 -6.40625 4.09375 -6.53125 C 4.09375 -6.59375 4.0625 -6.640625 3.984375 -6.640625 C 3.984375 -6.640625 3.953125 -6.640625 3.90625 -6.609375 C 3.703125 -6.515625 3.21875 -6.3125 2.546875 -6.3125 C 2.15625 -6.3125 1.6875 -6.390625 1.21875 -6.59375 C 1.140625 -6.625 1.125 -6.625 1.109375 -6.625 C 1 -6.625 1 -6.546875 1 -6.390625 L 1 -3.4375 C 1 -3.265625 1 -3.1875 1.140625 -3.1875 C 1.21875 -3.1875 1.234375 -3.203125 1.28125 -3.265625 C 1.390625 -3.421875 1.75 -3.96875 2.5625 -3.96875 C 3.078125 -3.96875 3.328125 -3.515625 3.40625 -3.328125 C 3.5625 -2.953125 3.59375 -2.578125 3.59375 -2.078125 C 3.59375 -1.71875 3.59375 -1.125 3.34375 -0.703125 C 3.109375 -0.3125 2.734375 -0.0625 2.28125 -0.0625 C 1.5625 -0.0625 0.984375 -0.59375 0.8125 -1.171875 C 0.84375 -1.171875 0.875 -1.15625 0.984375 -1.15625 C 1.3125 -1.15625 1.484375 -1.40625 1.484375 -1.640625 C 1.484375 -1.890625 1.3125 -2.140625 0.984375 -2.140625 C 0.84375 -2.140625 0.5 -2.0625 0.5 -1.609375 C 0.5 -0.75 1.1875 0.21875 2.296875 0.21875 C 3.453125 0.21875 4.46875 -0.734375 4.46875 -2 Z M 4.46875 -2 "
           id="path9889" />
      </symbol>
      <symbol
         overflow="visible"
         id="symbol1668">
        <path
           style="stroke:none;"
           d="M 4.578125 -3.1875 C 4.578125 -3.984375 4.53125 -4.78125 4.1875 -5.515625 C 3.734375 -6.484375 2.90625 -6.640625 2.5 -6.640625 C 1.890625 -6.640625 1.171875 -6.375 0.75 -5.453125 C 0.4375 -4.765625 0.390625 -3.984375 0.390625 -3.1875 C 0.390625 -2.4375 0.421875 -1.546875 0.84375 -0.78125 C 1.265625 0.015625 2 0.21875 2.484375 0.21875 C 3.015625 0.21875 3.78125 0.015625 4.21875 -0.9375 C 4.53125 -1.625 4.578125 -2.40625 4.578125 -3.1875 Z M 2.484375 0 C 2.09375 0 1.5 -0.25 1.328125 -1.203125 C 1.21875 -1.796875 1.21875 -2.71875 1.21875 -3.3125 C 1.21875 -3.953125 1.21875 -4.609375 1.296875 -5.140625 C 1.484375 -6.328125 2.234375 -6.421875 2.484375 -6.421875 C 2.8125 -6.421875 3.46875 -6.234375 3.65625 -5.25 C 3.765625 -4.6875 3.765625 -3.9375 3.765625 -3.3125 C 3.765625 -2.5625 3.765625 -1.890625 3.65625 -1.25 C 3.5 -0.296875 2.9375 0 2.484375 0 Z M 2.484375 0 "
           id="path3242" />
      </symbol>
      <symbol
         overflow="visible"
         id="symbol2899">
        <path
           style="stroke:none;"
           d=""
           id="path5106" />
      </symbol>
      <symbol
         overflow="visible"
         id="symbol7531">
        <path
           style="stroke:none;"
           d="M 1.90625 -0.53125 C 1.90625 -0.8125 1.671875 -1.0625 1.390625 -1.0625 C 1.09375 -1.0625 0.859375 -0.8125 0.859375 -0.53125 C 0.859375 -0.234375 1.09375 0 1.390625 0 C 1.671875 0 1.90625 -0.234375 1.90625 -0.53125 Z M 1.90625 -0.53125 "
           id="path2810" />
      </symbol>
    </g>
    <g
       id="g601">
      <symbol
         overflow="visible"
         id="symbol6347">
        <path
           style="stroke:none;"
           d=""
           id="path6576" />
      </symbol>
      <symbol
         overflow="visible"
         id="symbol9715">
        <path
           style="stroke:none;"
           d="M 6.5625 -2.296875 C 6.734375 -2.296875 6.921875 -2.296875 6.921875 -2.5 C 6.921875 -2.6875 6.734375 -2.6875 6.5625 -2.6875 L 1.171875 -2.6875 C 1 -2.6875 0.828125 -2.6875 0.828125 -2.5 C 0.828125 -2.296875 1 -2.296875 1.171875 -2.296875 Z M 6.5625 -2.296875 "
           id="path7155" />
      </symbol>
      <symbol
         overflow="visible"
         id="symbol5171">
        <path
           style="stroke:none;"
           d="M 3.875 -2.765625 L 1.890625 -4.75 C 1.765625 -4.875 1.75 -4.890625 1.671875 -4.890625 C 1.5625 -4.890625 1.46875 -4.8125 1.46875 -4.6875 C 1.46875 -4.625 1.484375 -4.609375 1.59375 -4.5 L 3.59375 -2.5 L 1.59375 -0.484375 C 1.484375 -0.375 1.46875 -0.359375 1.46875 -0.296875 C 1.46875 -0.171875 1.5625 -0.09375 1.671875 -0.09375 C 1.75 -0.09375 1.765625 -0.109375 1.890625 -0.234375 L 3.875 -2.21875 L 5.9375 -0.15625 C 5.953125 -0.140625 6.015625 -0.09375 6.078125 -0.09375 C 6.203125 -0.09375 6.28125 -0.171875 6.28125 -0.296875 C 6.28125 -0.3125 6.28125 -0.34375 6.25 -0.40625 C 6.234375 -0.421875 4.65625 -1.984375 4.15625 -2.5 L 5.984375 -4.3125 C 6.03125 -4.375 6.1875 -4.5 6.234375 -4.5625 C 6.234375 -4.578125 6.28125 -4.625 6.28125 -4.6875 C 6.28125 -4.8125 6.203125 -4.890625 6.078125 -4.890625 C 6 -4.890625 5.96875 -4.859375 5.859375 -4.75 Z M 3.875 -2.765625 "
           id="path8171" />
      </symbol>
      <symbol
         overflow="visible"
         id="symbol4570">
        <path
           style="stroke:none;"
           d=""
           id="path7011" />
      </symbol>
      <symbol
         overflow="visible"
         id="symbol538">
        <path
           style="stroke:none;"
           d="M 2.9375 -6.375 C 2.9375 -6.625 2.9375 -6.640625 2.703125 -6.640625 C 2.078125 -6 1.203125 -6 0.890625 -6 L 0.890625 -5.6875 C 1.09375 -5.6875 1.671875 -5.6875 2.1875 -5.953125 L 2.1875 -0.78125 C 2.1875 -0.421875 2.15625 -0.3125 1.265625 -0.3125 L 0.953125 -0.3125 L 0.953125 0 C 1.296875 -0.03125 2.15625 -0.03125 2.5625 -0.03125 C 2.953125 -0.03125 3.828125 -0.03125 4.171875 0 L 4.171875 -0.3125 L 3.859375 -0.3125 C 2.953125 -0.3125 2.9375 -0.421875 2.9375 -0.78125 Z M 2.9375 -6.375 "
           id="path7926" />
      </symbol>
      <symbol
         overflow="visible"
         id="symbol7005">
        <path
           style="stroke:none;"
           d="M 4.46875 -2 C 4.46875 -3.1875 3.65625 -4.1875 2.578125 -4.1875 C 2.109375 -4.1875 1.671875 -4.03125 1.3125 -3.671875 L 1.3125 -5.625 C 1.515625 -5.5625 1.84375 -5.5 2.15625 -5.5 C 3.390625 -5.5 4.09375 -6.40625 4.09375 -6.53125 C 4.09375 -6.59375 4.0625 -6.640625 3.984375 -6.640625 C 3.984375 -6.640625 3.953125 -6.640625 3.90625 -6.609375 C 3.703125 -6.515625 3.21875 -6.3125 2.546875 -6.3125 C 2.15625 -6.3125 1.6875 -6.390625 1.21875 -6.59375 C 1.140625 -6.625 1.125 -6.625 1.109375 -6.625 C 1 -6.625 1 -6.546875 1 -6.390625 L 1 -3.4375 C 1 -3.265625 1 -3.1875 1.140625 -3.1875 C 1.21875 -3.1875 1.234375 -3.203125 1.28125 -3.265625 C 1.390625 -3.421875 1.75 -3.96875 2.5625 -3.96875 C 3.078125 -3.96875 3.328125 -3.515625 3.40625 -3.328125 C 3.5625 -2.953125 3.59375 -2.578125 3.59375 -2.078125 C 3.59375 -1.71875 3.59375 -1.125 3.34375 -0.703125 C 3.109375 -0.3125 2.734375 -0.0625 2.28125 -0.0625 C 1.5625 -0.0625 0.984375 -0.59375 0.8125 -1.171875 C 0.84375 -1.171875 0.875 -1.15625 0.984375 -1.15625 C 1.3125 -1.15625 1.484375 -1.40625 1.484375 -1.640625 C 1.484375 -1.890625 1.3125 -2.140625 0.984375 -2.140625 C 0.84375 -2.140625 0.5 -2.0625 0.5 -1.609375 C 0.5 -0.75 1.1875 0.21875 2.296875 0.21875 C 3.453125 0.21875 4.46875 -0.734375 4.46875 -2 Z M 4.46875 -2 "
           id="path8482" />
      </symbol>
      <symbol
         overflow="visible"
         id="symbol9332">
        <path
           style="stroke:none;"
           d=""
           id="path5628" />
      </symbol>
      <symbol
         overflow="visible"
         id="symbol4547">
        <path
           style="stroke:none;"
           d="M 1.90625 -0.53125 C 1.90625 -0.8125 1.671875 -1.0625 1.390625 -1.0625 C 1.09375 -1.0625 0.859375 -0.8125 0.859375 -0.53125 C 0.859375 -0.234375 1.09375 0 1.390625 0 C 1.671875 0 1.90625 -0.234375 1.90625 -0.53125 Z M 1.90625 -0.53125 "
           id="path6191" />
      </symbol>
    </g>
    <g
       id="g3239">
      <symbol
         overflow="visible"
         id="symbol2286">
        <path
           style="stroke:none;"
           d=""
           id="path6620" />
      </symbol>
      <symbol
         overflow="visible"
         id="symbol1808">
        <path
           style="stroke:none;"
           d="M 6.5625 -2.296875 C 6.734375 -2.296875 6.921875 -2.296875 6.921875 -2.5 C 6.921875 -2.6875 6.734375 -2.6875 6.5625 -2.6875 L 1.171875 -2.6875 C 1 -2.6875 0.828125 -2.6875 0.828125 -2.5 C 0.828125 -2.296875 1 -2.296875 1.171875 -2.296875 Z M 6.5625 -2.296875 "
           id="path8528" />
      </symbol>
      <symbol
         overflow="visible"
         id="symbol2579">
        <path
           style="stroke:none;"
           d=""
           id="path2179" />
      </symbol>
      <symbol
         overflow="visible"
         id="symbol1863">
        <path
           style="stroke:none;"
           d="M 2.890625 -3.515625 C 3.703125 -3.78125 4.28125 -4.46875 4.28125 -5.265625 C 4.28125 -6.078125 3.40625 -6.640625 2.453125 -6.640625 C 1.453125 -6.640625 0.6875 -6.046875 0.6875 -5.28125 C 0.6875 -4.953125 0.90625 -4.765625 1.203125 -4.765625 C 1.5 -4.765625 1.703125 -4.984375 1.703125 -5.28125 C 1.703125 -5.765625 1.234375 -5.765625 1.09375 -5.765625 C 1.390625 -6.265625 2.046875 -6.390625 2.40625 -6.390625 C 2.828125 -6.390625 3.375 -6.171875 3.375 -5.28125 C 3.375 -5.15625 3.34375 -4.578125 3.09375 -4.140625 C 2.796875 -3.65625 2.453125 -3.625 2.203125 -3.625 C 2.125 -3.609375 1.890625 -3.59375 1.8125 -3.59375 C 1.734375 -3.578125 1.671875 -3.5625 1.671875 -3.46875 C 1.671875 -3.359375 1.734375 -3.359375 1.90625 -3.359375 L 2.34375 -3.359375 C 3.15625 -3.359375 3.53125 -2.6875 3.53125 -1.703125 C 3.53125 -0.34375 2.84375 -0.0625 2.40625 -0.0625 C 1.96875 -0.0625 1.21875 -0.234375 0.875 -0.8125 C 1.21875 -0.765625 1.53125 -0.984375 1.53125 -1.359375 C 1.53125 -1.71875 1.265625 -1.921875 0.984375 -1.921875 C 0.734375 -1.921875 0.421875 -1.78125 0.421875 -1.34375 C 0.421875 -0.4375 1.34375 0.21875 2.4375 0.21875 C 3.65625 0.21875 4.5625 -0.6875 4.5625 -1.703125 C 4.5625 -2.515625 3.921875 -3.296875 2.890625 -3.515625 Z M 2.890625 -3.515625 "
           id="path7723" />
      </symbol>
      <symbol
         overflow="visible"
         id="symbol3880">
        <path
           style="stroke:none;"
           d="M 4.46875 -2 C 4.46875 -3.1875 3.65625 -4.1875 2.578125 -4.1875 C 2.109375 -4.1875 1.671875 -4.03125 1.3125 -3.671875 L 1.3125 -5.625 C 1.515625 -5.5625 1.84375 -5.5 2.15625 -5.5 C 3.390625 -5.5 4.09375 -6.40625 4.09375 -6.53125 C 4.09375 -6.59375 4.0625 -6.640625 3.984375 -6.640625 C 3.984375 -6.640625 3.953125 -6.640625 3.90625 -6.609375 C 3.703125 -6.515625 3.21875 -6.3125 2.546875 -6.3125 C 2.15625 -6.3125 1.6875 -6.390625 1.21875 -6.59375 C 1.140625 -6.625 1.125 -6.625 1.109375 -6.625 C 1 -6.625 1 -6.546875 1 -6.390625 L 1 -3.4375 C 1 -3.265625 1 -3.1875 1.140625 -3.1875 C 1.21875 -3.1875 1.234375 -3.203125 1.28125 -3.265625 C 1.390625 -3.421875 1.75 -3.96875 2.5625 -3.96875 C 3.078125 -3.96875 3.328125 -3.515625 3.40625 -3.328125 C 3.5625 -2.953125 3.59375 -2.578125 3.59375 -2.078125 C 3.59375 -1.71875 3.59375 -1.125 3.34375 -0.703125 C 3.109375 -0.3125 2.734375 -0.0625 2.28125 -0.0625 C 1.5625 -0.0625 0.984375 -0.59375 0.8125 -1.171875 C 0.84375 -1.171875 0.875 -1.15625 0.984375 -1.15625 C 1.3125 -1.15625 1.484375 -1.40625 1.484375 -1.640625 C 1.484375 -1.890625 1.3125 -2.140625 0.984375 -2.140625 C 0.84375 -2.140625 0.5 -2.0625 0.5 -1.609375 C 0.5 -0.75 1.1875 0.21875 2.296875 0.21875 C 3.453125 0.21875 4.46875 -0.734375 4.46875 -2 Z M 4.46875 -2 "
           id="path4252" />
      </symbol>
      <symbol
         overflow="visible"
         id="symbol9789">
        <path
           style="stroke:none;"
           d=""
           id="path9606" />
      </symbol>
      <symbol
         overflow="visible"
         id="symbol8321">
        <path
           style="stroke:none;"
           d="M 1.90625 -0.53125 C 1.90625 -0.8125 1.671875 -1.0625 1.390625 -1.0625 C 1.09375 -1.0625 0.859375 -0.8125 0.859375 -0.53125 C 0.859375 -0.234375 1.09375 0 1.390625 0 C 1.671875 0 1.90625 -0.234375 1.90625 -0.53125 Z M 1.90625 -0.53125 "
           id="path9261" />
      </symbol>
    </g>
    <g
       id="g4116">
      <symbol
         overflow="visible"
         id="symbol3139">
        <path
           style="stroke:none;"
           d=""
           id="path4009" />
      </symbol>
      <symbol
         overflow="visible"
         id="symbol7961">
        <path
           style="stroke:none;"
           d="M 6.5625 -2.296875 C 6.734375 -2.296875 6.921875 -2.296875 6.921875 -2.5 C 6.921875 -2.6875 6.734375 -2.6875 6.5625 -2.6875 L 1.171875 -2.6875 C 1 -2.6875 0.828125 -2.6875 0.828125 -2.5 C 0.828125 -2.296875 1 -2.296875 1.171875 -2.296875 Z M 6.5625 -2.296875 "
           id="path4851" />
      </symbol>
      <symbol
         overflow="visible"
         id="symbol5173">
        <path
           style="stroke:none;"
           d="M 3.875 -2.765625 L 1.890625 -4.75 C 1.765625 -4.875 1.75 -4.890625 1.671875 -4.890625 C 1.5625 -4.890625 1.46875 -4.8125 1.46875 -4.6875 C 1.46875 -4.625 1.484375 -4.609375 1.59375 -4.5 L 3.59375 -2.5 L 1.59375 -0.484375 C 1.484375 -0.375 1.46875 -0.359375 1.46875 -0.296875 C 1.46875 -0.171875 1.5625 -0.09375 1.671875 -0.09375 C 1.75 -0.09375 1.765625 -0.109375 1.890625 -0.234375 L 3.875 -2.21875 L 5.9375 -0.15625 C 5.953125 -0.140625 6.015625 -0.09375 6.078125 -0.09375 C 6.203125 -0.09375 6.28125 -0.171875 6.28125 -0.296875 C 6.28125 -0.3125 6.28125 -0.34375 6.25 -0.40625 C 6.234375 -0.421875 4.65625 -1.984375 4.15625 -2.5 L 5.984375 -4.3125 C 6.03125 -4.375 6.1875 -4.5 6.234375 -4.5625 C 6.234375 -4.578125 6.28125 -4.625 6.28125 -4.6875 C 6.28125 -4.8125 6.203125 -4.890625 6.078125 -4.890625 C 6 -4.890625 5.96875 -4.859375 5.859375 -4.75 Z M 3.875 -2.765625 "
           id="path1143" />
      </symbol>
      <symbol
         overflow="visible"
         id="symbol9308">
        <path
           style="stroke:none;"
           d=""
           id="path4121" />
      </symbol>
      <symbol
         overflow="visible"
         id="symbol4526">
        <path
           style="stroke:none;"
           d="M 2.890625 -3.515625 C 3.703125 -3.78125 4.28125 -4.46875 4.28125 -5.265625 C 4.28125 -6.078125 3.40625 -6.640625 2.453125 -6.640625 C 1.453125 -6.640625 0.6875 -6.046875 0.6875 -5.28125 C 0.6875 -4.953125 0.90625 -4.765625 1.203125 -4.765625 C 1.5 -4.765625 1.703125 -4.984375 1.703125 -5.28125 C 1.703125 -5.765625 1.234375 -5.765625 1.09375 -5.765625 C 1.390625 -6.265625 2.046875 -6.390625 2.40625 -6.390625 C 2.828125 -6.390625 3.375 -6.171875 3.375 -5.28125 C 3.375 -5.15625 3.34375 -4.578125 3.09375 -4.140625 C 2.796875 -3.65625 2.453125 -3.625 2.203125 -3.625 C 2.125 -3.609375 1.890625 -3.59375 1.8125 -3.59375 C 1.734375 -3.578125 1.671875 -3.5625 1.671875 -3.46875 C 1.671875 -3.359375 1.734375 -3.359375 1.90625 -3.359375 L 2.34375 -3.359375 C 3.15625 -3.359375 3.53125 -2.6875 3.53125 -1.703125 C 3.53125 -0.34375 2.84375 -0.0625 2.40625 -0.0625 C 1.96875 -0.0625 1.21875 -0.234375 0.875 -0.8125 C 1.21875 -0.765625 1.53125 -0.984375 1.53125 -1.359375 C 1.53125 -1.71875 1.265625 -1.921875 0.984375 -1.921875 C 0.734375 -1.921875 0.421875 -1.78125 0.421875 -1.34375 C 0.421875 -0.4375 1.34375 0.21875 2.4375 0.21875 C 3.65625 0.21875 4.5625 -0.6875 4.5625 -1.703125 C 4.5625 -2.515625 3.921875 -3.296875 2.890625 -3.515625 Z M 2.890625 -3.515625 "
           id="path4343" />
      </symbol>
      <symbol
         overflow="visible"
         id="symbol7208">
        <path
           style="stroke:none;"
           d="M 4.46875 -2 C 4.46875 -3.1875 3.65625 -4.1875 2.578125 -4.1875 C 2.109375 -4.1875 1.671875 -4.03125 1.3125 -3.671875 L 1.3125 -5.625 C 1.515625 -5.5625 1.84375 -5.5 2.15625 -5.5 C 3.390625 -5.5 4.09375 -6.40625 4.09375 -6.53125 C 4.09375 -6.59375 4.0625 -6.640625 3.984375 -6.640625 C 3.984375 -6.640625 3.953125 -6.640625 3.90625 -6.609375 C 3.703125 -6.515625 3.21875 -6.3125 2.546875 -6.3125 C 2.15625 -6.3125 1.6875 -6.390625 1.21875 -6.59375 C 1.140625 -6.625 1.125 -6.625 1.109375 -6.625 C 1 -6.625 1 -6.546875 1 -6.390625 L 1 -3.4375 C 1 -3.265625 1 -3.1875 1.140625 -3.1875 C 1.21875 -3.1875 1.234375 -3.203125 1.28125 -3.265625 C 1.390625 -3.421875 1.75 -3.96875 2.5625 -3.96875 C 3.078125 -3.96875 3.328125 -3.515625 3.40625 -3.328125 C 3.5625 -2.953125 3.59375 -2.578125 3.59375 -2.078125 C 3.59375 -1.71875 3.59375 -1.125 3.34375 -0.703125 C 3.109375 -0.3125 2.734375 -0.0625 2.28125 -0.0625 C 1.5625 -0.0625 0.984375 -0.59375 0.8125 -1.171875 C 0.84375 -1.171875 0.875 -1.15625 0.984375 -1.15625 C 1.3125 -1.15625 1.484375 -1.40625 1.484375 -1.640625 C 1.484375 -1.890625 1.3125 -2.140625 0.984375 -2.140625 C 0.84375 -2.140625 0.5 -2.0625 0.5 -1.609375 C 0.5 -0.75 1.1875 0.21875 2.296875 0.21875 C 3.453125 0.21875 4.46875 -0.734375 4.46875 -2 Z M 4.46875 -2 "
           id="path9422" />
      </symbol>
      <symbol
         overflow="visible"
         id="symbol4161">
        <path
           style="stroke:none;"
           d="M 4.578125 -3.1875 C 4.578125 -3.984375 4.53125 -4.78125 4.1875 -5.515625 C 3.734375 -6.484375 2.90625 -6.640625 2.5 -6.640625 C 1.890625 -6.640625 1.171875 -6.375 0.75 -5.453125 C 0.4375 -4.765625 0.390625 -3.984375 0.390625 -3.1875 C 0.390625 -2.4375 0.421875 -1.546875 0.84375 -0.78125 C 1.265625 0.015625 2 0.21875 2.484375 0.21875 C 3.015625 0.21875 3.78125 0.015625 4.21875 -0.9375 C 4.53125 -1.625 4.578125 -2.40625 4.578125 -3.1875 Z M 2.484375 0 C 2.09375 0 1.5 -0.25 1.328125 -1.203125 C 1.21875 -1.796875 1.21875 -2.71875 1.21875 -3.3125 C 1.21875 -3.953125 1.21875 -4.609375 1.296875 -5.140625 C 1.484375 -6.328125 2.234375 -6.421875 2.484375 -6.421875 C 2.8125 -6.421875 3.46875 -6.234375 3.65625 -5.25 C 3.765625 -4.6875 3.765625 -3.9375 3.765625 -3.3125 C 3.765625 -2.5625 3.765625 -1.890625 3.65625 -1.25 C 3.5 -0.296875 2.9375 0 2.484375 0 Z M 2.484375 0 "
           id="path2174" />
      </symbol>
      <symbol
         overflow="visible"
         id="symbol8992">
        <path
           style="stroke:none;"
           d=""
           id="path1953" />
      </symbol>
      <symbol
         overflow="visible"
         id="symbol7896">
        <path
           style="stroke:none;"
           d="M 1.90625 -0.53125 C 1.90625 -0.8125 1.671875 -1.0625 1.390625 -1.0625 C 1.09375 -1.0625 0.859375 -0.8125 0.859375 -0.53125 C 0.859375 -0.234375 1.09375 0 1.390625 0 C 1.671875 0 1.90625 -0.234375 1.90625 -0.53125 Z M 1.90625 -0.53125 "
           id="path4590" />
      </symbol>
    </g>
    <g
       id="g1040">
      <symbol
         overflow="visible"
         id="symbol4939">
        <path
           style="stroke:none;"
           d=""
           id="path7302" />
      </symbol>
      <symbol
         overflow="visible"
         id="symbol9969">
        <path
           style="stroke:none;"
           d="M 6.5625 -2.296875 C 6.734375 -2.296875 6.921875 -2.296875 6.921875 -2.5 C 6.921875 -2.6875 6.734375 -2.6875 6.5625 -2.6875 L 1.171875 -2.6875 C 1 -2.6875 0.828125 -2.6875 0.828125 -2.5 C 0.828125 -2.296875 1 -2.296875 1.171875 -2.296875 Z M 6.5625 -2.296875 "
           id="path1930" />
      </symbol>
      <symbol
         overflow="visible"
         id="symbol2557">
        <path
           style="stroke:none;"
           d="M 3.875 -2.765625 L 1.890625 -4.75 C 1.765625 -4.875 1.75 -4.890625 1.671875 -4.890625 C 1.5625 -4.890625 1.46875 -4.8125 1.46875 -4.6875 C 1.46875 -4.625 1.484375 -4.609375 1.59375 -4.5 L 3.59375 -2.5 L 1.59375 -0.484375 C 1.484375 -0.375 1.46875 -0.359375 1.46875 -0.296875 C 1.46875 -0.171875 1.5625 -0.09375 1.671875 -0.09375 C 1.75 -0.09375 1.765625 -0.109375 1.890625 -0.234375 L 3.875 -2.21875 L 5.9375 -0.15625 C 5.953125 -0.140625 6.015625 -0.09375 6.078125 -0.09375 C 6.203125 -0.09375 6.28125 -0.171875 6.28125 -0.296875 C 6.28125 -0.3125 6.28125 -0.34375 6.25 -0.40625 C 6.234375 -0.421875 4.65625 -1.984375 4.15625 -2.5 L 5.984375 -4.3125 C 6.03125 -4.375 6.1875 -4.5 6.234375 -4.5625 C 6.234375 -4.578125 6.28125 -4.625 6.28125 -4.6875 C 6.28125 -4.8125 6.203125 -4.890625 6.078125 -4.890625 C 6 -4.890625 5.96875 -4.859375 5.859375 -4.75 Z M 3.875 -2.765625 "
           id="path2483" />
      </symbol>
      <symbol
         overflow="visible"
         id="symbol241">
        <path
           style="stroke:none;"
           d=""
           id="path8568" />
      </symbol>
      <symbol
         overflow="visible"
         id="symbol2156">
        <path
           style="stroke:none;"
           d="M 2.890625 -3.515625 C 3.703125 -3.78125 4.28125 -4.46875 4.28125 -5.265625 C 4.28125 -6.078125 3.40625 -6.640625 2.453125 -6.640625 C 1.453125 -6.640625 0.6875 -6.046875 0.6875 -5.28125 C 0.6875 -4.953125 0.90625 -4.765625 1.203125 -4.765625 C 1.5 -4.765625 1.703125 -4.984375 1.703125 -5.28125 C 1.703125 -5.765625 1.234375 -5.765625 1.09375 -5.765625 C 1.390625 -6.265625 2.046875 -6.390625 2.40625 -6.390625 C 2.828125 -6.390625 3.375 -6.171875 3.375 -5.28125 C 3.375 -5.15625 3.34375 -4.578125 3.09375 -4.140625 C 2.796875 -3.65625 2.453125 -3.625 2.203125 -3.625 C 2.125 -3.609375 1.890625 -3.59375 1.8125 -3.59375 C 1.734375 -3.578125 1.671875 -3.5625 1.671875 -3.46875 C 1.671875 -3.359375 1.734375 -3.359375 1.90625 -3.359375 L 2.34375 -3.359375 C 3.15625 -3.359375 3.53125 -2.6875 3.53125 -1.703125 C 3.53125 -0.34375 2.84375 -0.0625 2.40625 -0.0625 C 1.96875 -0.0625 1.21875 -0.234375 0.875 -0.8125 C 1.21875 -0.765625 1.53125 -0.984375 1.53125 -1.359375 C 1.53125 -1.71875 1.265625 -1.921875 0.984375 -1.921875 C 0.734375 -1.921875 0.421875 -1.78125 0.421875 -1.34375 C 0.421875 -0.4375 1.34375 0.21875 2.4375 0.21875 C 3.65625 0.21875 4.5625 -0.6875 4.5625 -1.703125 C 4.5625 -2.515625 3.921875 -3.296875 2.890625 -3.515625 Z M 2.890625 -3.515625 "
           id="path649" />
      </symbol>
      <symbol
         overflow="visible"
         id="symbol5335">
        <path
           style="stroke:none;"
           d="M 4.46875 -2 C 4.46875 -3.1875 3.65625 -4.1875 2.578125 -4.1875 C 2.109375 -4.1875 1.671875 -4.03125 1.3125 -3.671875 L 1.3125 -5.625 C 1.515625 -5.5625 1.84375 -5.5 2.15625 -5.5 C 3.390625 -5.5 4.09375 -6.40625 4.09375 -6.53125 C 4.09375 -6.59375 4.0625 -6.640625 3.984375 -6.640625 C 3.984375 -6.640625 3.953125 -6.640625 3.90625 -6.609375 C 3.703125 -6.515625 3.21875 -6.3125 2.546875 -6.3125 C 2.15625 -6.3125 1.6875 -6.390625 1.21875 -6.59375 C 1.140625 -6.625 1.125 -6.625 1.109375 -6.625 C 1 -6.625 1 -6.546875 1 -6.390625 L 1 -3.4375 C 1 -3.265625 1 -3.1875 1.140625 -3.1875 C 1.21875 -3.1875 1.234375 -3.203125 1.28125 -3.265625 C 1.390625 -3.421875 1.75 -3.96875 2.5625 -3.96875 C 3.078125 -3.96875 3.328125 -3.515625 3.40625 -3.328125 C 3.5625 -2.953125 3.59375 -2.578125 3.59375 -2.078125 C 3.59375 -1.71875 3.59375 -1.125 3.34375 -0.703125 C 3.109375 -0.3125 2.734375 -0.0625 2.28125 -0.0625 C 1.5625 -0.0625 0.984375 -0.59375 0.8125 -1.171875 C 0.84375 -1.171875 0.875 -1.15625 0.984375 -1.15625 C 1.3125 -1.15625 1.484375 -1.40625 1.484375 -1.640625 C 1.484375 -1.890625 1.3125 -2.140625 0.984375 -2.140625 C 0.84375 -2.140625 0.5 -2.0625 0.5 -1.609375 C 0.5 -0.75 1.1875 0.21875 2.296875 0.21875 C 3.453125 0.21875 4.46875 -0.734375 4.46875 -2 Z M 4.46875 -2 "
           id="path9780" />
      </symbol>
      <symbol
         overflow="visible"
         id="symbol491">
        <path
           style="stroke:none;"
           d="M 2.9375 -6.375 C 2.9375 -6.625 2.9375 -6.640625 2.703125 -6.640625 C 2.078125 -6 1.203125 -6 0.890625 -6 L 0.890625 -5.6875 C 1.09375 -5.6875 1.671875 -5.6875 2.1875 -5.953125 L 2.1875 -0.78125 C 2.1875 -0.421875 2.15625 -0.3125 1.265625 -0.3125 L 0.953125 -0.3125 L 0.953125 0 C 1.296875 -0.03125 2.15625 -0.03125 2.5625 -0.03125 C 2.953125 -0.03125 3.828125 -0.03125 4.171875 0 L 4.171875 -0.3125 L 3.859375 -0.3125 C 2.953125 -0.3125 2.9375 -0.421875 2.9375 -0.78125 Z M 2.9375 -6.375 "
           id="path5168" />
      </symbol>
      <symbol
         overflow="visible"
         id="symbol4798">
        <path
           style="stroke:none;"
           d=""
           id="path1413" />
      </symbol>
      <symbol
         overflow="visible"
         id="symbol9089">
        <path
           style="stroke:none;"
           d="M 1.90625 -0.53125 C 1.90625 -0.8125 1.671875 -1.0625 1.390625 -1.0625 C 1.09375 -1.0625 0.859375 -0.8125 0.859375 -0.53125 C 0.859375 -0.234375 1.09375 0 1.390625 0 C 1.671875 0 1.90625 -0.234375 1.90625 -0.53125 Z M 1.90625 -0.53125 "
           id="path6751" />
      </symbol>
    </g>
  </defs>
  <metadata
     id="metadata1052">
    <rdf:RDF>
      <cc:Work
         rdf:about="">
        <dc:format>image/svg+xml</dc:format>
        <dc:type
           rdf:resource="http://purl.org/dc/dcmitype/StillImage" />
        <dc:title />
      </cc:Work>
    </rdf:RDF>
  </metadata>
  <g
     id="layer1"
     inkscape:groupmode="layer"
     inkscape:label="Calque 1">
    <rect
       style="opacity:1;fill:none;fill-opacity:1;stroke:none;stroke-width:0.9139275;stroke-miterlimit:4;stroke-dasharray:none;stroke-dashoffset:0;stroke-opacity:1"
       id="rect1594"
       width="289.45416"
       height="124.35416"
       x="184.15001"
       y="-20.500006" />
    <circle
       style="opacity:1;fill:none;fill-opacity:1;stroke:#000000;stroke-width:0.84666669;stroke-miterlimit:4;stroke-dasharray:none;stroke-dashoffset:0;stroke-opacity:1"
       id="path3370-6-5-4"
       cx="318.97476"
       cy="35.100616"
       r="32.455559" />
    <circle
       r="12.7"
       cy="19.860615"
       cx="293.57477"
       id="path4618-8"
       style="opacity:1;fill:#ffffff;fill-opacity:1;stroke:#000000;stroke-width:0.56444448;stroke-miterlimit:4;stroke-dasharray:none;stroke-dashoffset:0;stroke-opacity:1" />
    <circle
       r="12.7"
       cy="51.469501"
       cx="293.57477"
       id="path4618-8-9"
       style="opacity:1;fill:#ffffff;fill-opacity:1;stroke:#000000;stroke-width:0.56444448;stroke-miterlimit:4;stroke-dasharray:none;stroke-dashoffset:0;stroke-opacity:1" />
    <path
       style="fill:none;fill-rule:evenodd;stroke:#000000;stroke-width:0.865;stroke-linecap:butt;stroke-linejoin:miter;stroke-miterlimit:4;stroke-dasharray:none;stroke-opacity:1"
       d="m 351.4725,35.415271 h 48.04833"
       id="path5683"
       inkscape:connector-curvature="0" />
    <g
       id="g2023"
       transform="translate(381.5405,-61.927175)"
       style="stroke:#000000;stroke-opacity:1">
      <g
         id="g2021"
         transform="matrix(0.3,0,0,-0.3,-52.5,222.75)"
         xml:space="preserve"
         stroke-miterlimit="10.433"
         font-style="normal"
         font-variant="normal"
         font-weight="normal"
         font-stretch="normal"
         font-size-adjust="none"
         letter-spacing="normal"
         word-spacing="normal"
         style="font-style:normal;font-variant:normal;font-weight:normal;font-stretch:normal;letter-spacing:normal;word-spacing:normal;text-anchor:start;fill:none;fill-opacity:1;fill-rule:evenodd;stroke:#000000;stroke-linecap:butt;stroke-linejoin:miter;stroke-miterlimit:10.43299961;stroke-dasharray:none;stroke-dashoffset:0;stroke-opacity:1"><path
           d="m 468.38,440.23 v 0 0.01 0 0.01 0.02 0.01 l -0.01,0.02 v 0.02 0.02 l -0.01,0.02 v 0.02 l -0.01,0.02 -0.01,0.02 v 0.03 l -0.02,0.02 -0.01,0.03 -0.01,0.02 -0.02,0.03 -0.02,0.02 -0.02,0.02 -0.02,0.03 -0.01,0.01 -0.02,0.01 -0.01,0.01 -0.01,0.01 -0.02,0.01 -0.01,0.01 -0.02,0.01 -0.02,0.01 -0.02,0.01 -0.01,0.01 h -0.02 l -0.02,0.01 -0.02,0.01 h -0.03 l -0.02,0.01 -0.02,0.01 h -0.02 -0.03 l -0.02,0.01 h -0.03 -0.03 l -0.03,0.01 h -0.03 -0.03 c -1.14,0 -4.78,-0.41 -6.08,-0.5 -0.39,-0.05 -0.93,-0.1 -0.93,-1.05 0,-0.55 0.48,-0.55 1.23,-0.55 2.39,0 2.45,-0.45 2.45,-0.84 l -0.15,-1 -6.28,-24.91 c -0.14,-0.54 -0.25,-0.9 -0.25,-1.7 0,-2.83 2.2,-4.58 4.53,-4.58 1.65,0 2.89,1 3.75,2.78 0.89,1.91 1.48,4.8 1.48,4.89 0,0.5 -0.43,0.5 -0.59,0.5 -0.5,0 -0.55,-0.2 -0.7,-0.9 -0.85,-3.24 -1.79,-6.17 -3.79,-6.17 -1.5,0 -1.5,1.59 -1.5,2.29 0,1.19 0.07,1.44 0.3,2.39 z"
           id="path2019"
           inkscape:connector-curvature="0"
           style="fill:#000000;stroke-width:0;stroke:#000000;stroke-opacity:1" /></g>
    </g>
    <path
       style="fill:none;fill-rule:evenodd;stroke:#000000;stroke-width:0.87;stroke-linecap:butt;stroke-linejoin:miter;stroke-miterlimit:4;stroke-dasharray:none;stroke-opacity:1"
       d="m 254,-4.625008 29.10417,18.520833"
       id="path5639"
       inkscape:connector-type="polyline"
       inkscape:connector-curvature="0" />
    <path
       style="fill:none;fill-rule:evenodd;stroke:#000000;stroke-width:0.84899998;stroke-linecap:butt;stroke-linejoin:miter;stroke-miterlimit:4;stroke-dasharray:none;stroke-opacity:1"
       d="M 187.85416,-4.625008 H 254"
       id="path2735"
       inkscape:connector-curvature="0" />
    <path
       style="fill:none;fill-rule:evenodd;stroke:#000000;stroke-width:0.87;stroke-linecap:butt;stroke-linejoin:miter;stroke-miterlimit:4;stroke-dasharray:none;stroke-opacity:1"
       d="M 254,77.395825 283.10417,58.874992"
       id="path5639-3"
       inkscape:connector-type="polyline"
       inkscape:connector-curvature="0" />
    <path
       style="fill:none;fill-rule:evenodd;stroke:#000000;stroke-width:0.85604697;stroke-linecap:butt;stroke-linejoin:miter;stroke-miterlimit:4;stroke-dasharray:none;stroke-opacity:1"
       d="M 187.85416,77.395825 H 254"
       id="path2735-9"
       inkscape:connector-curvature="0" />
    <path
       style="fill:none;fill-rule:evenodd;stroke:#000000;stroke-width:0.86500001;stroke-linecap:butt;stroke-linejoin:miter;stroke-miterlimit:4;stroke-dasharray:none;stroke-dashoffset:0;stroke-opacity:1;marker-end:url(#Arrow2Mend)"
       d="m 446.0875,35.062492 h 15.87499"
       id="path2762"
       inkscape:connector-curvature="0" />
    <g
       transform="translate(111.93533,-111.58334)"
       id="g1719"
       style="stroke:#000000;stroke-opacity:1">
      <g
         style="font-style:normal;font-variant:normal;font-weight:normal;font-stretch:normal;letter-spacing:normal;word-spacing:normal;text-anchor:start;fill:none;fill-opacity:1;fill-rule:evenodd;stroke:#000000;stroke-linecap:butt;stroke-linejoin:miter;stroke-miterlimit:10.43299961;stroke-dasharray:none;stroke-dashoffset:0;stroke-opacity:1"
         id="g1717"
         transform="matrix(0.3,0,0,-0.3,-52.5,222.75)"
         xml:space="preserve"
         stroke-miterlimit="10.433"
         font-style="normal"
         font-variant="normal"
         font-weight="normal"
         font-stretch="normal"
         font-size-adjust="none"
         letter-spacing="normal"
         word-spacing="normal"><path
           style="fill:#000000;stroke-width:0;stroke:#000000;stroke-opacity:1"
           inkscape:connector-curvature="0"
           d="m 472.16,421.25 0.03,0.13 0.04,0.15 0.04,0.16 0.04,0.18 0.06,0.19 0.06,0.21 0.06,0.22 0.07,0.22 0.08,0.23 0.09,0.24 0.1,0.25 0.1,0.24 0.11,0.25 0.12,0.25 0.13,0.25 0.14,0.25 0.15,0.24 0.15,0.24 0.17,0.23 0.18,0.22 0.18,0.22 0.2,0.2 0.21,0.19 0.22,0.18 0.23,0.16 0.25,0.14 0.12,0.07 0.13,0.06 0.14,0.05 0.13,0.05 0.14,0.05 0.14,0.04 0.15,0.03 0.15,0.03 0.15,0.02 0.16,0.02 0.16,0.01 h 0.16 c 0.25,0 1.44,0 2.48,-0.64 -1.39,-0.25 -2.39,-1.5 -2.39,-2.69 0,-0.79 0.55,-1.75 1.89,-1.75 1.1,0 2.69,0.89 2.69,2.89 0,2.6 -2.94,3.28 -4.63,3.28 -2.89,0 -4.64,-2.64 -5.23,-3.78 -1.25,3.28 -3.94,3.78 -5.37,3.78 -5.19,0 -8.04,-6.42 -8.04,-7.67 0,-0.5 0.5,-0.5 0.61,-0.5 0.39,0 0.55,0.11 0.64,0.55 1.69,5.28 4.99,6.53 6.68,6.53 0.95,0 2.68,-0.44 2.68,-3.33 0,-1.54 -0.84,-4.89 -2.68,-11.86 -0.8,-3.09 -2.54,-5.18 -4.74,-5.18 -0.3,0 -1.44,0 -2.48,0.65 1.25,0.24 2.34,1.28 2.34,2.69 0,1.34 -1.09,1.73 -1.84,1.73 -1.5,0 -2.75,-1.29 -2.75,-2.89 0,-2.28 2.5,-3.28 4.68,-3.28 3.3,0 5.08,3.49 5.24,3.78 0.59,-1.84 2.39,-3.78 5.37,-3.78 5.14,0 7.99,6.42 7.99,7.67 0,0.5 -0.45,0.5 -0.61,0.5 -0.44,0 -0.55,-0.2 -0.64,-0.54 -1.64,-5.33 -5.03,-6.53 -6.63,-6.53 -1.95,0 -2.75,1.59 -2.75,3.29 0,1.1 0.3,2.19 0.86,4.38 z"
           id="path1705" /><path
           style="fill:#000000;stroke-width:0;stroke:#000000;stroke-opacity:1"
           inkscape:connector-curvature="0"
           d="m 532.11,422.5 h 0.14 0.15 0.14 l 0.07,0.01 h 0.08 l 0.07,0.01 0.07,0.01 0.07,0.01 0.07,0.01 0.07,0.01 0.06,0.02 0.07,0.02 0.06,0.02 0.06,0.02 0.06,0.03 0.06,0.03 0.05,0.04 0.05,0.03 0.05,0.05 0.04,0.04 0.04,0.05 0.02,0.03 0.02,0.03 0.01,0.02 0.02,0.03 0.01,0.03 0.02,0.04 0.01,0.03 0.01,0.04 0.01,0.03 0.01,0.04 v 0.04 l 0.01,0.04 v 0.04 l 0.01,0.04 v 0.04 0.05 c 0,1 -0.95,1 -1.64,1 h -29.84 c -0.71,0 -1.64,0 -1.64,-1 0,-0.98 0.93,-0.98 1.68,-0.98 z"
           id="path1707" /><path
           style="fill:#000000;stroke-width:0;stroke:#000000;stroke-opacity:1"
           inkscape:connector-curvature="0"
           d="m 532.16,412.82 h 0.07 0.06 l 0.14,0.01 h 0.14 0.07 l 0.07,0.01 0.07,0.01 h 0.07 l 0.06,0.01 0.07,0.02 0.07,0.01 0.06,0.02 0.07,0.02 0.06,0.02 0.06,0.02 0.06,0.03 0.05,0.03 0.05,0.04 0.05,0.04 0.05,0.04 0.04,0.05 0.02,0.02 0.02,0.03 0.02,0.02 0.02,0.03 0.01,0.03 0.02,0.03 0.01,0.03 0.02,0.03 0.01,0.04 0.01,0.03 0.01,0.04 0.01,0.04 v 0.04 l 0.01,0.04 v 0.04 l 0.01,0.04 v 0.05 0.04 c 0,1 -0.95,1 -1.69,1 h -29.75 c -0.75,0 -1.68,0 -1.68,-1 0,-1 0.93,-1 1.64,-1 z"
           id="path1709" /><path
           style="fill:#000000;stroke-width:0;stroke:#000000;stroke-opacity:1"
           inkscape:connector-curvature="0"
           d="m 565.07,438.09 v 0.05 0.06 0.05 0.05 0.05 0.05 0.04 0.05 0.04 0.04 0.04 0.04 l -0.01,0.04 v 0.03 0.04 0.03 l -0.01,0.07 -0.01,0.06 -0.01,0.05 -0.02,0.05 -0.01,0.05 -0.02,0.04 -0.02,0.04 -0.03,0.03 -0.03,0.03 -0.03,0.03 -0.03,0.03 -0.04,0.02 -0.05,0.02 -0.02,0.01 -0.03,0.01 h -0.02 l -0.03,0.01 -0.03,0.01 h -0.03 l -0.03,0.01 h -0.03 l -0.03,0.01 h -0.04 -0.03 l -0.04,0.01 h -0.04 -0.04 -0.04 -0.04 -0.05 l -0.05,0.01 h -0.04 -0.05 -0.05 -0.06 c -3.09,-3.19 -7.46,-3.19 -9.06,-3.19 v -1.55 c 1,0 3.94,0 6.52,1.3 v -25.81 c 0,-1.8 -0.14,-2.39 -4.63,-2.39 h -1.59 v -1.55 c 1.75,0.16 6.08,0.16 8.06,0.16 2,0 6.33,0 8.08,-0.16 v 1.55 h -1.59 c -4.49,0 -4.65,0.54 -4.65,2.39 z"
           id="path1711" /><path
           style="fill:#000000;stroke-width:0;stroke:#000000;stroke-opacity:1"
           inkscape:connector-curvature="0"
           d="m 584.95,408.84 v 0.13 l -0.01,0.14 -0.02,0.13 -0.02,0.13 -0.03,0.12 -0.04,0.13 -0.04,0.12 -0.05,0.12 -0.05,0.12 -0.06,0.11 -0.06,0.11 -0.07,0.11 -0.07,0.1 -0.08,0.1 -0.08,0.1 -0.09,0.09 -0.09,0.09 -0.1,0.08 -0.1,0.08 -0.1,0.07 -0.11,0.07 -0.11,0.07 -0.11,0.06 -0.12,0.05 -0.12,0.05 -0.12,0.04 -0.13,0.04 -0.13,0.03 -0.13,0.02 -0.13,0.02 -0.13,0.01 h -0.14 c -1.43,0 -2.64,-1.2 -2.64,-2.64 0,-1.44 1.21,-2.64 2.64,-2.64 1.46,0 2.64,1.2 2.64,2.64 z"
           id="path1713" /><path
           style="fill:#000000;stroke-width:0;stroke:#000000;stroke-opacity:1"
           inkscape:connector-curvature="0"
           d="m 611.56,416.21 -0.01,0.56 -0.03,0.54 -0.06,0.54 -0.08,0.53 -0.11,0.53 -0.12,0.51 -0.15,0.5 -0.16,0.5 -0.19,0.48 -0.2,0.47 -0.22,0.46 -0.25,0.44 -0.26,0.43 -0.27,0.41 -0.3,0.4 -0.31,0.38 -0.32,0.36 -0.34,0.35 -0.36,0.32 -0.37,0.31 -0.38,0.29 -0.4,0.26 -0.41,0.25 -0.42,0.22 -0.43,0.2 -0.45,0.17 -0.45,0.15 -0.47,0.13 -0.47,0.09 -0.48,0.07 -0.5,0.05 -0.5,0.01 c -2.39,0 -4.53,-0.8 -6.32,-2.53 v 9.7 c 1,-0.29 2.64,-0.64 4.23,-0.64 6.12,0 9.61,4.53 9.61,5.19 0,0.3 -0.14,0.55 -0.5,0.55 -0.05,0 -0.14,0 -0.39,-0.16 -1,-0.45 -3.44,-1.44 -6.78,-1.44 -1.99,0 -4.28,0.35 -6.63,1.39 -0.39,0.14 -0.5,0.14 -0.59,0.14 -0.5,0 -0.5,-0.39 -0.5,-1.18 v -14.75 c 0,-0.89 0,-1.3 0.7,-1.3 0.35,0 0.44,0.16 0.64,0.45 0.55,0.8 2.39,3.49 6.42,3.49 2.6,0 3.85,-2.3 4.24,-3.19 0.81,-1.84 0.9,-3.78 0.9,-6.28 0,-1.74 0,-4.74 -1.2,-6.83 -1.19,-1.94 -3.03,-3.23 -5.33,-3.23 -3.64,0 -6.47,2.64 -7.32,5.57 0.15,-0.04 0.31,-0.09 0.85,-0.09 1.65,0 2.49,1.25 2.49,2.44 0,1.2 -0.84,2.44 -2.49,2.44 -0.7,0 -2.45,-0.35 -2.45,-2.65 0,-4.28 3.44,-9.1 9.03,-9.1 5.77,0 10.86,4.78 10.86,11.1 z"
           id="path1715" /></g>
    </g>
    <g
       id="g1923"
       transform="translate(224.0225,-62.092508)"
       style="stroke:#000000;stroke-opacity:1">
      <g
         word-spacing="normal"
         letter-spacing="normal"
         font-size-adjust="none"
         font-stretch="normal"
         font-weight="normal"
         font-variant="normal"
         font-style="normal"
         stroke-miterlimit="10.433"
         xml:space="preserve"
         transform="matrix(0.3,0,0,-0.3,-52.5,222.75)"
         id="content"
         style="font-style:normal;font-variant:normal;font-weight:normal;font-stretch:normal;letter-spacing:normal;word-spacing:normal;text-anchor:start;fill:none;fill-opacity:1;fill-rule:evenodd;stroke:#000000;stroke-linecap:butt;stroke-linejoin:miter;stroke-miterlimit:10.43299961;stroke-dasharray:none;stroke-dashoffset:0;stroke-opacity:1"><path
           id="path1916"
           d="m 472.16,421.25 0.03,0.13 0.04,0.15 0.04,0.16 0.04,0.18 0.06,0.19 0.06,0.21 0.06,0.22 0.07,0.22 0.08,0.23 0.09,0.24 0.1,0.25 0.1,0.24 0.11,0.25 0.12,0.25 0.13,0.25 0.14,0.25 0.15,0.24 0.15,0.24 0.17,0.23 0.18,0.22 0.18,0.22 0.2,0.2 0.21,0.19 0.22,0.18 0.23,0.16 0.25,0.14 0.12,0.07 0.13,0.06 0.14,0.05 0.13,0.05 0.14,0.05 0.14,0.04 0.15,0.03 0.15,0.03 0.15,0.02 0.16,0.02 0.16,0.01 h 0.16 c 0.25,0 1.44,0 2.48,-0.64 -1.39,-0.25 -2.39,-1.5 -2.39,-2.69 0,-0.79 0.55,-1.75 1.89,-1.75 1.1,0 2.69,0.89 2.69,2.89 0,2.6 -2.94,3.28 -4.63,3.28 -2.89,0 -4.64,-2.64 -5.23,-3.78 -1.25,3.28 -3.94,3.78 -5.37,3.78 -5.19,0 -8.04,-6.42 -8.04,-7.67 0,-0.5 0.5,-0.5 0.61,-0.5 0.39,0 0.55,0.11 0.64,0.55 1.69,5.28 4.99,6.53 6.68,6.53 0.95,0 2.68,-0.44 2.68,-3.33 0,-1.54 -0.84,-4.89 -2.68,-11.86 -0.8,-3.09 -2.54,-5.18 -4.74,-5.18 -0.3,0 -1.44,0 -2.48,0.65 1.25,0.24 2.34,1.28 2.34,2.69 0,1.34 -1.09,1.73 -1.84,1.73 -1.5,0 -2.75,-1.29 -2.75,-2.89 0,-2.28 2.5,-3.28 4.68,-3.28 3.3,0 5.08,3.49 5.24,3.78 0.59,-1.84 2.39,-3.78 5.37,-3.78 5.14,0 7.99,6.42 7.99,7.67 0,0.5 -0.45,0.5 -0.61,0.5 -0.44,0 -0.55,-0.2 -0.64,-0.54 -1.64,-5.33 -5.03,-6.53 -6.63,-6.53 -1.95,0 -2.75,1.59 -2.75,3.29 0,1.1 0.3,2.19 0.86,4.38 z"
           inkscape:connector-curvature="0"
           style="fill:#000000;stroke-width:0;stroke:#000000;stroke-opacity:1" /><path
           id="path1918"
           d="m 514.49,420.04 -9.95,9.92 c -0.61,0.6 -0.7,0.71 -1.11,0.71 -0.48,0 -0.98,-0.46 -0.98,-1 0,-0.36 0.09,-0.46 0.64,-1 l 9.96,-10.02 -9.96,-10.01 c -0.55,-0.55 -0.64,-0.64 -0.64,-1 0,-0.55 0.5,-0.99 0.98,-0.99 0.41,0 0.5,0.1 1.11,0.69 l 9.91,9.92 10.31,-10.31 c 0.11,-0.05 0.45,-0.3 0.75,-0.3 0.59,0 1,0.44 1,0.99 0,0.11 0,0.31 -0.16,0.56 -0.05,0.09 -7.97,7.92 -10.45,10.45 l 9.11,9.13 c 0.25,0.29 1,0.93 1.25,1.23 0.04,0.11 0.25,0.3 0.25,0.66 0,0.54 -0.41,1 -1,1 -0.39,0 -0.6,-0.21 -1.14,-0.75 z"
           inkscape:connector-curvature="0"
           style="fill:#000000;stroke-width:0;stroke:#000000;stroke-opacity:1" /><path
           id="path1920"
           d="m 569.13,425.18 0.01,0.04 0.01,0.03 0.02,0.06 0.01,0.05 0.01,0.06 0.02,0.05 0.01,0.04 0.01,0.05 0.01,0.04 0.01,0.04 0.01,0.04 0.01,0.04 v 0.04 l 0.01,0.03 0.01,0.03 v 0.03 l 0.01,0.03 v 0.03 0.03 l 0.01,0.05 v 0.06 l 0.01,0.05 v 0.05 0.05 0.03 0.03 0.03 0.03 c 0,0.91 -0.69,1.35 -1.44,1.35 -0.5,0 -1.29,-0.3 -1.75,-1.05 -0.09,-0.25 -0.5,-1.78 -0.68,-2.69 -0.36,-1.29 -0.71,-2.64 -1,-3.98 l -2.25,-8.97 c -0.19,-0.75 -2.33,-4.23 -5.63,-4.23 -2.53,0 -3.09,2.18 -3.09,4.03 0,2.29 0.86,5.39 2.54,9.76 0.8,2.05 1,2.6 1,3.6 0,2.23 -1.59,4.07 -4.09,4.07 -4.73,0 -6.58,-7.21 -6.58,-7.67 0,-0.5 0.5,-0.5 0.61,-0.5 0.5,0 0.55,0.11 0.8,0.91 1.34,4.69 3.33,6.17 5.03,6.17 0.39,0 1.25,0 1.25,-1.59 0,-1.25 -0.5,-2.53 -0.86,-3.49 -1.98,-5.28 -2.89,-8.12 -2.89,-10.47 0,-4.42 3.14,-5.92 6.08,-5.92 1.95,0 3.64,0.85 5.03,2.24 -0.64,-2.58 -1.24,-5.03 -3.24,-7.68 -1.29,-1.68 -3.18,-3.14 -5.48,-3.14 -0.69,0 -2.94,0.16 -3.78,2.1 0.8,0 1.45,0 2.14,0.61 0.5,0.43 1,1.09 1,2.03 0,1.55 -1.34,1.75 -1.84,1.75 -1.15,0 -2.8,-0.8 -2.8,-3.24 0,-2.5 2.2,-4.34 5.28,-4.34 5.14,0 10.27,4.55 11.67,10.17 z"
           inkscape:connector-curvature="0"
           style="fill:#000000;stroke-width:0;stroke:#000000;stroke-opacity:1" /></g>
    </g>
    <g
       transform="translate(105.74767,-27.996675)"
       id="g2588"
       style="stroke:#000000;stroke-opacity:1">
      <g
         style="font-style:normal;font-variant:normal;font-weight:normal;font-stretch:normal;letter-spacing:normal;word-spacing:normal;text-anchor:start;fill:none;fill-opacity:1;fill-rule:evenodd;stroke:#000000;stroke-linecap:butt;stroke-linejoin:miter;stroke-miterlimit:10.43299961;stroke-dasharray:none;stroke-dashoffset:0;stroke-opacity:1"
         id="g2586"
         transform="matrix(0.3,0,0,-0.3,-52.5,222.75)"
         xml:space="preserve"
         stroke-miterlimit="10.433"
         font-style="normal"
         font-variant="normal"
         font-weight="normal"
         font-stretch="normal"
         font-size-adjust="none"
         letter-spacing="normal"
         word-spacing="normal"><path
           style="fill:#000000;stroke-width:0;stroke:#000000;stroke-opacity:1"
           inkscape:connector-curvature="0"
           d="m 479.74,425.18 0.01,0.04 0.01,0.03 0.01,0.06 0.02,0.05 0.01,0.06 0.01,0.05 0.02,0.04 0.01,0.05 0.01,0.04 0.01,0.04 v 0.04 l 0.01,0.04 0.01,0.04 0.01,0.03 v 0.03 l 0.01,0.03 v 0.03 l 0.01,0.03 v 0.03 l 0.01,0.05 v 0.06 0.05 0.05 l 0.01,0.05 v 0.03 0.03 0.03 0.03 c 0,0.91 -0.69,1.35 -1.44,1.35 -0.5,0 -1.3,-0.3 -1.75,-1.05 -0.1,-0.25 -0.5,-1.78 -0.69,-2.69 -0.36,-1.29 -0.7,-2.64 -1,-3.98 l -2.25,-8.97 c -0.19,-0.75 -2.33,-4.23 -5.62,-4.23 -2.54,0 -3.1,2.18 -3.1,4.03 0,2.29 0.86,5.39 2.55,9.76 0.8,2.05 1,2.6 1,3.6 0,2.23 -1.59,4.07 -4.09,4.07 -4.74,0 -6.58,-7.21 -6.58,-7.67 0,-0.5 0.5,-0.5 0.61,-0.5 0.5,0 0.54,0.11 0.79,0.91 1.35,4.69 3.33,6.17 5.03,6.17 0.4,0 1.25,0 1.25,-1.59 0,-1.25 -0.5,-2.53 -0.85,-3.49 -1.99,-5.28 -2.9,-8.12 -2.9,-10.47 0,-4.42 3.15,-5.92 6.08,-5.92 1.96,0 3.64,0.85 5.03,2.24 -0.64,-2.58 -1.23,-5.03 -3.23,-7.68 -1.3,-1.68 -3.19,-3.14 -5.48,-3.14 -0.69,0 -2.94,0.16 -3.79,2.1 0.8,0 1.46,0 2.14,0.61 0.5,0.43 1,1.09 1,2.03 0,1.55 -1.34,1.75 -1.84,1.75 -1.14,0 -2.8,-0.8 -2.8,-3.24 0,-2.5 2.21,-4.34 5.29,-4.34 5.14,0 10.26,4.55 11.67,10.17 z"
           id="path2572" /><path
           style="fill:#000000;stroke-width:0;stroke:#000000;stroke-opacity:1"
           inkscape:connector-curvature="0"
           d="m 529.83,422.5 h 0.14 0.15 0.14 l 0.07,0.01 h 0.08 l 0.07,0.01 0.07,0.01 0.07,0.01 0.07,0.01 0.07,0.01 0.06,0.02 0.07,0.02 0.06,0.02 0.06,0.02 0.06,0.03 0.06,0.03 0.05,0.04 0.05,0.03 0.05,0.05 0.04,0.04 0.04,0.05 0.02,0.03 0.02,0.03 0.01,0.02 0.02,0.03 0.01,0.03 0.01,0.04 0.02,0.03 0.01,0.04 0.01,0.03 0.01,0.04 v 0.04 l 0.01,0.04 v 0.04 l 0.01,0.04 v 0.04 0.05 c 0,1 -0.95,1 -1.64,1 h -29.84 c -0.71,0 -1.65,0 -1.65,-1 0,-0.98 0.94,-0.98 1.69,-0.98 z"
           id="path2574" /><path
           style="fill:#000000;stroke-width:0;stroke:#000000;stroke-opacity:1"
           inkscape:connector-curvature="0"
           d="m 529.88,412.82 h 0.06 0.07 l 0.14,0.01 h 0.14 0.07 l 0.07,0.01 0.06,0.01 h 0.07 l 0.07,0.01 0.07,0.02 0.07,0.01 0.06,0.02 0.07,0.02 0.06,0.02 0.06,0.02 0.05,0.03 0.06,0.03 0.05,0.04 0.05,0.04 0.05,0.04 0.04,0.05 0.02,0.02 0.02,0.03 0.02,0.02 0.02,0.03 0.01,0.03 0.02,0.03 0.01,0.03 0.01,0.03 0.02,0.04 0.01,0.03 0.01,0.04 0.01,0.04 v 0.04 l 0.01,0.04 v 0.04 l 0.01,0.04 v 0.05 0.04 c 0,1 -0.95,1 -1.69,1 h -29.75 c -0.75,0 -1.69,0 -1.69,-1 0,-1 0.94,-1 1.65,-1 z"
           id="path2576" /><path
           style="fill:#000000;stroke-width:0;stroke:#000000;stroke-opacity:1"
           inkscape:connector-curvature="0"
           d="m 580.98,417.65 h 0.16 0.16 l 0.16,0.01 h 0.08 l 0.07,0.01 h 0.08 l 0.07,0.01 0.08,0.01 0.07,0.01 0.07,0.02 0.07,0.02 0.06,0.02 0.07,0.02 0.06,0.02 0.05,0.03 0.06,0.03 0.05,0.04 0.05,0.03 0.05,0.05 0.04,0.04 0.04,0.05 0.02,0.03 0.01,0.03 0.02,0.03 0.01,0.03 0.02,0.03 0.01,0.03 0.01,0.04 0.01,0.03 0.01,0.04 0.01,0.04 0.01,0.04 v 0.04 l 0.01,0.04 v 0.04 0.05 0.04 c 0,1 -0.9,1 -1.75,1 h -26.95 c -0.84,0 -1.73,0 -1.73,-1 0,-1 0.89,-1 1.73,-1 z"
           id="path2578" /><path
           style="fill:#000000;stroke-width:0;stroke:#000000;stroke-opacity:1"
           inkscape:connector-curvature="0"
           d="m 609.84,422.14 -0.01,0.74 -0.01,0.75 -0.02,0.75 -0.03,0.74 -0.05,0.75 -0.06,0.74 -0.07,0.74 -0.1,0.73 -0.11,0.73 -0.14,0.73 -0.16,0.72 -0.19,0.72 -0.22,0.72 -0.25,0.7 -0.27,0.7 -0.15,0.35 -0.16,0.34 c -2.29,4.8 -6.38,5.6 -8.47,5.6 -2.99,0 -6.63,-1.3 -8.67,-5.94 -1.6,-3.44 -1.85,-7.33 -1.85,-11.31 0,-3.74 0.2,-8.22 2.25,-12 2.14,-4.03 5.78,-5.03 8.22,-5.03 v 1.09 c -1.94,0 -4.89,1.25 -5.78,6.03 -0.55,2.98 -0.55,7.56 -0.55,10.52 0,3.18 0,6.46 0.41,9.15 0.94,5.94 4.67,6.38 5.92,6.38 1.64,0 4.94,-0.89 5.88,-5.83 0.5,-2.78 0.5,-6.58 0.5,-9.7 0,-3.75 0,-7.13 -0.55,-10.32 -0.75,-4.73 -3.6,-6.23 -5.83,-6.23 v 0 -1.09 c 2.69,0 6.47,1.04 8.67,5.78 1.6,3.43 1.85,7.31 1.85,11.25 z"
           id="path2580" /><path
           style="fill:#000000;stroke-width:0;stroke:#000000;stroke-opacity:1"
           inkscape:connector-curvature="0"
           d="m 621.43,408.84 v 0.13 l -0.01,0.14 -0.02,0.13 -0.02,0.13 -0.03,0.12 -0.04,0.13 -0.04,0.12 -0.04,0.12 -0.06,0.12 -0.06,0.11 -0.06,0.11 -0.07,0.11 -0.07,0.1 -0.08,0.1 -0.08,0.1 -0.09,0.09 -0.09,0.09 -0.1,0.08 -0.1,0.08 -0.1,0.07 -0.11,0.07 -0.11,0.07 -0.11,0.06 -0.12,0.05 -0.12,0.05 -0.12,0.04 -0.13,0.04 -0.13,0.03 -0.13,0.02 -0.13,0.02 -0.13,0.01 h -0.14 c -1.44,0 -2.64,-1.2 -2.64,-2.64 0,-1.44 1.2,-2.64 2.64,-2.64 1.46,0 2.64,1.2 2.64,2.64 z"
           id="path2582" /><path
           style="fill:#000000;stroke-width:0;stroke:#000000;stroke-opacity:1"
           inkscape:connector-curvature="0"
           d="m 648.04,416.21 -0.01,0.56 -0.03,0.54 -0.06,0.54 -0.08,0.53 -0.11,0.53 -0.12,0.51 -0.15,0.5 -0.16,0.5 -0.19,0.48 -0.2,0.47 -0.22,0.46 -0.25,0.44 -0.26,0.43 -0.27,0.41 -0.3,0.4 -0.31,0.38 -0.32,0.36 -0.34,0.35 -0.36,0.32 -0.37,0.31 -0.38,0.29 -0.4,0.26 -0.41,0.25 -0.42,0.22 -0.43,0.2 -0.45,0.17 -0.45,0.15 -0.47,0.13 -0.47,0.09 -0.48,0.07 -0.5,0.05 -0.5,0.01 c -2.39,0 -4.53,-0.8 -6.32,-2.53 v 9.7 c 1,-0.29 2.64,-0.64 4.23,-0.64 6.12,0 9.61,4.53 9.61,5.19 0,0.3 -0.14,0.55 -0.5,0.55 -0.05,0 -0.14,0 -0.39,-0.16 -1,-0.45 -3.44,-1.44 -6.78,-1.44 -1.99,0 -4.28,0.35 -6.63,1.39 -0.39,0.14 -0.5,0.14 -0.59,0.14 -0.5,0 -0.5,-0.39 -0.5,-1.18 v -14.75 c 0,-0.89 0,-1.3 0.7,-1.3 0.35,0 0.44,0.16 0.64,0.45 0.55,0.8 2.39,3.49 6.43,3.49 2.59,0 3.84,-2.3 4.23,-3.19 0.81,-1.84 0.9,-3.78 0.9,-6.28 0,-1.74 0,-4.74 -1.2,-6.83 -1.18,-1.94 -3.03,-3.23 -5.33,-3.23 -3.64,0 -6.47,2.64 -7.32,5.57 0.15,-0.04 0.31,-0.09 0.85,-0.09 1.65,0 2.49,1.25 2.49,2.44 0,1.2 -0.84,2.44 -2.49,2.44 -0.7,0 -2.45,-0.35 -2.45,-2.65 0,-4.28 3.44,-9.1 9.03,-9.1 5.77,0 10.86,4.78 10.86,11.1 z"
           id="path2584" /></g>
    </g>
    <g
       id="g2817"
       transform="matrix(0.6620312,0,0,0.6620312,298.17124,-36.462478)"
       style="stroke:#000000;stroke-opacity:1">
      <g
         word-spacing="normal"
         letter-spacing="normal"
         font-size-adjust="none"
         font-stretch="normal"
         font-weight="normal"
         font-variant="normal"
         font-style="normal"
         stroke-miterlimit="10.433"
         xml:space="preserve"
         transform="matrix(0.3,0,0,-0.3,-52.5,222.75)"
         id="g2815"
         style="font-style:normal;font-variant:normal;font-weight:normal;font-stretch:normal;letter-spacing:normal;word-spacing:normal;text-anchor:start;fill:none;fill-opacity:1;fill-rule:evenodd;stroke:#000000;stroke-linecap:butt;stroke-linejoin:miter;stroke-miterlimit:10.43299961;stroke-dasharray:none;stroke-dashoffset:0;stroke-opacity:1"><path
           id="path2799"
           d="m 462.14,410.34 0.25,0.27 0.24,0.25 0.24,0.25 0.23,0.24 0.22,0.23 0.22,0.22 0.21,0.22 0.2,0.21 0.2,0.2 0.2,0.19 0.19,0.19 0.19,0.19 0.18,0.17 0.19,0.18 0.35,0.33 0.34,0.32 0.33,0.3 0.33,0.29 0.32,0.29 0.65,0.56 0.33,0.29 0.33,0.28 c 0,0.05 3.08,2.69 4.88,4.49 4.73,4.64 5.83,7.03 5.83,7.21 0,0.5 -0.46,0.5 -0.55,0.5 -0.35,0 -0.5,-0.09 -0.75,-0.54 -1.49,-2.39 -2.53,-3.19 -3.74,-3.19 -1.2,0 -1.79,0.75 -2.54,1.59 -0.94,1.16 -1.78,2.14 -3.44,2.14 -3.73,0 -6.02,-4.62 -6.02,-5.67 0,-0.25 0.14,-0.54 0.6,-0.54 0.45,0 0.54,0.25 0.64,0.54 0.95,2.3 3.84,2.35 4.23,2.35 1.05,0 2,-0.36 3.14,-0.75 2,-0.75 2.55,-0.75 3.85,-0.75 -1.8,-2.14 -5.99,-5.74 -6.92,-6.53 l -4.49,-4.18 c -3.39,-3.34 -5.14,-6.18 -5.14,-6.53 0,-0.5 0.5,-0.5 0.59,-0.5 0.41,0 0.5,0.1 0.8,0.64 1.16,1.75 2.64,3.1 4.24,3.1 1.15,0 1.65,-0.46 2.89,-1.89 0.86,-1.05 1.75,-1.85 3.18,-1.85 4.94,0 7.83,6.33 7.83,7.67 0,0.25 -0.2,0.5 -0.59,0.5 -0.46,0 -0.55,-0.29 -0.71,-0.65 -1.14,-3.24 -4.32,-4.17 -5.98,-4.17 -0.98,0 -1.89,0.29 -2.94,0.64 -1.68,0.64 -2.43,0.84 -3.48,0.84 -0.1,0 -0.89,0 -1.35,-0.14 z"
           inkscape:connector-curvature="0"
           style="fill:#000000;stroke-width:0;stroke:#000000;stroke-opacity:1" /><path
           id="path2801"
           d="m 528.99,422.5 h 0.14 0.15 0.14 l 0.07,0.01 h 0.08 l 0.07,0.01 0.07,0.01 0.07,0.01 0.07,0.01 0.07,0.01 0.06,0.02 0.07,0.02 0.06,0.02 0.06,0.02 0.06,0.03 0.06,0.03 0.05,0.04 0.05,0.03 0.05,0.05 0.04,0.04 0.04,0.05 0.02,0.03 0.02,0.03 0.01,0.02 0.02,0.03 0.01,0.03 0.01,0.04 0.02,0.03 0.01,0.04 0.01,0.03 0.01,0.04 v 0.04 l 0.01,0.04 v 0.04 l 0.01,0.04 v 0.04 0.05 c 0,1 -0.95,1 -1.64,1 H 499.2 c -0.71,0 -1.65,0 -1.65,-1 0,-0.98 0.94,-0.98 1.69,-0.98 z"
           inkscape:connector-curvature="0"
           style="fill:#000000;stroke-width:0;stroke:#000000;stroke-opacity:1" /><path
           id="path2803"
           d="m 529.04,412.82 h 0.06 0.07 l 0.14,0.01 h 0.14 0.07 l 0.07,0.01 0.07,0.01 h 0.06 l 0.07,0.01 0.07,0.02 0.07,0.01 0.06,0.02 0.07,0.02 0.06,0.02 0.06,0.02 0.05,0.03 0.06,0.03 0.05,0.04 0.05,0.04 0.05,0.04 0.04,0.05 0.02,0.02 0.02,0.03 0.02,0.02 0.02,0.03 0.01,0.03 0.02,0.03 0.01,0.03 0.01,0.03 0.02,0.04 0.01,0.03 0.01,0.04 0.01,0.04 v 0.04 l 0.01,0.04 v 0.04 l 0.01,0.04 v 0.05 0.04 c 0,1 -0.95,1 -1.69,1 h -29.75 c -0.75,0 -1.69,0 -1.69,-1 0,-1 0.94,-1 1.65,-1 z"
           inkscape:connector-curvature="0"
           style="fill:#000000;stroke-width:0;stroke:#000000;stroke-opacity:1" /><path
           id="path2805"
           d="m 580.14,417.65 h 0.16 0.16 l 0.16,0.01 h 0.07 l 0.08,0.01 h 0.08 l 0.07,0.01 0.07,0.01 0.08,0.01 0.06,0.02 0.07,0.02 0.07,0.02 0.06,0.02 0.06,0.02 0.06,0.03 0.06,0.03 0.05,0.04 0.05,0.03 0.04,0.05 0.05,0.04 0.04,0.05 0.01,0.03 0.02,0.03 0.02,0.03 0.01,0.03 0.02,0.03 0.01,0.03 0.01,0.04 0.01,0.03 0.01,0.04 0.01,0.04 v 0.04 l 0.01,0.04 0.01,0.04 v 0.04 0.05 0.04 c 0,1 -0.91,1 -1.75,1 h -26.95 c -0.85,0 -1.74,0 -1.74,-1 0,-1 0.89,-1 1.74,-1 z"
           inkscape:connector-curvature="0"
           style="fill:#000000;stroke-width:0;stroke:#000000;stroke-opacity:1" /><path
           id="path2807"
           d="m 608.99,422.14 v 0.74 l -0.01,0.75 -0.02,0.75 -0.03,0.74 -0.05,0.75 -0.06,0.74 -0.08,0.74 -0.09,0.73 -0.12,0.73 -0.14,0.73 -0.16,0.72 -0.19,0.72 -0.21,0.72 -0.25,0.7 -0.28,0.7 -0.15,0.35 -0.16,0.34 c -2.28,4.8 -6.37,5.6 -8.47,5.6 -2.98,0 -6.62,-1.3 -8.67,-5.94 -1.59,-3.44 -1.84,-7.33 -1.84,-11.31 0,-3.74 0.2,-8.22 2.25,-12 2.14,-4.03 5.78,-5.03 8.22,-5.03 v 1.09 c -1.94,0 -4.89,1.25 -5.78,6.03 -0.55,2.98 -0.55,7.56 -0.55,10.52 0,3.18 0,6.46 0.4,9.15 0.94,5.94 4.68,6.38 5.93,6.38 1.64,0 4.93,-0.89 5.87,-5.83 0.5,-2.78 0.5,-6.58 0.5,-9.7 0,-3.75 0,-7.13 -0.55,-10.32 -0.75,-4.73 -3.59,-6.23 -5.82,-6.23 v 0 -1.09 c 2.68,0 6.47,1.04 8.67,5.78 1.59,3.43 1.84,7.31 1.84,11.25 z"
           inkscape:connector-curvature="0"
           style="fill:#000000;stroke-width:0;stroke:#000000;stroke-opacity:1" /><path
           id="path2809"
           d="m 620.59,408.84 v 0.13 l -0.01,0.14 -0.02,0.13 -0.02,0.13 -0.03,0.12 -0.04,0.13 -0.04,0.12 -0.05,0.12 -0.05,0.12 -0.06,0.11 -0.06,0.11 -0.07,0.11 -0.08,0.1 -0.07,0.1 -0.09,0.1 -0.09,0.09 -0.09,0.09 -0.09,0.08 -0.1,0.08 -0.11,0.07 -0.1,0.07 -0.11,0.07 -0.12,0.06 -0.12,0.05 -0.12,0.05 -0.12,0.04 -0.12,0.04 -0.13,0.03 -0.13,0.02 -0.13,0.02 -0.14,0.01 h -0.13 c -1.44,0 -2.64,-1.2 -2.64,-2.64 0,-1.44 1.2,-2.64 2.64,-2.64 1.45,0 2.64,1.2 2.64,2.64 z"
           inkscape:connector-curvature="0"
           style="fill:#000000;stroke-width:0;stroke:#000000;stroke-opacity:1" /><path
           id="path2811"
           d="m 648.54,436.54 0.04,0.06 0.04,0.05 0.03,0.05 0.04,0.05 0.03,0.04 0.03,0.04 0.02,0.05 0.03,0.04 0.02,0.04 0.02,0.04 0.02,0.04 0.01,0.04 0.02,0.04 0.01,0.04 0.01,0.04 0.02,0.04 v 0.04 l 0.01,0.05 0.01,0.05 0.01,0.04 v 0.06 l 0.01,0.05 v 0.06 0.06 l 0.01,0.06 v 0.07 0.07 0.08 0.08 0.08 0.09 0.05 0.05 h -12.09 c -6.08,0 -6.19,0.65 -6.39,1.59 h -1.24 l -1.64,-10.25 h 1.23 c 0.16,0.8 0.62,3.94 1.25,4.53 0.35,0.3 4.24,0.3 4.88,0.3 h 10.33 c -0.56,-0.8 -4.49,-6.24 -5.59,-7.88 -4.49,-6.71 -6.13,-13.65 -6.13,-18.73 0,-0.5 0,-2.73 2.3,-2.73 2.29,0 2.29,2.23 2.29,2.73 v 2.55 c 0,2.73 0.14,5.48 0.55,8.17 0.19,1.14 0.89,5.42 3.08,8.51 z"
           inkscape:connector-curvature="0"
           style="fill:#000000;stroke-width:0;stroke:#000000;stroke-opacity:1" /><path
           id="path2813"
           d="m 672.16,416.21 -0.02,0.56 -0.03,0.54 -0.06,0.54 -0.08,0.53 -0.1,0.53 -0.13,0.51 -0.14,0.5 -0.17,0.5 -0.18,0.48 -0.21,0.47 -0.22,0.46 -0.24,0.44 -0.26,0.43 -0.28,0.41 -0.29,0.4 -0.31,0.38 -0.33,0.36 -0.34,0.35 -0.35,0.32 -0.37,0.31 -0.39,0.29 -0.39,0.26 -0.41,0.25 -0.43,0.22 -0.43,0.2 -0.44,0.17 -0.46,0.15 -0.46,0.13 -0.48,0.09 -0.48,0.07 -0.49,0.05 -0.5,0.01 c -2.39,0 -4.53,-0.8 -6.33,-2.53 v 9.7 c 1,-0.29 2.64,-0.64 4.23,-0.64 6.13,0 9.61,4.53 9.61,5.19 0,0.3 -0.14,0.55 -0.5,0.55 -0.04,0 -0.14,0 -0.39,-0.16 -1,-0.45 -3.43,-1.44 -6.78,-1.44 -1.98,0 -4.28,0.35 -6.62,1.39 -0.39,0.14 -0.5,0.14 -0.6,0.14 -0.5,0 -0.5,-0.39 -0.5,-1.18 v -14.75 c 0,-0.89 0,-1.3 0.71,-1.3 0.34,0 0.43,0.16 0.64,0.45 0.54,0.8 2.39,3.49 6.42,3.49 2.59,0 3.84,-2.3 4.23,-3.19 0.81,-1.84 0.91,-3.78 0.91,-6.28 0,-1.74 0,-4.74 -1.2,-6.83 -1.19,-1.94 -3.04,-3.23 -5.33,-3.23 -3.64,0 -6.47,2.64 -7.33,5.57 0.16,-0.04 0.31,-0.09 0.86,-0.09 1.64,0 2.48,1.25 2.48,2.44 0,1.2 -0.84,2.44 -2.48,2.44 -0.7,0 -2.45,-0.35 -2.45,-2.65 0,-4.28 3.43,-9.1 9.03,-9.1 5.76,0 10.86,4.78 10.86,11.1 z"
           inkscape:connector-curvature="0"
           style="fill:#000000;stroke-width:0;stroke:#000000;stroke-opacity:1" /></g>
    </g>
    <g
       id="g3849"
       style="stroke:#000000;stroke-opacity:1">
      <circle
         r="23.264809"
         cy="35.19125"
         cx="422.5654"
         id="path3370-6-5-4-0"
         style="opacity:1;fill:none;fill-opacity:1;stroke:#000000;stroke-width:0.85299999;stroke-miterlimit:4;stroke-dasharray:none;stroke-dashoffset:0;stroke-opacity:1" />
      <g
         id="g3711"
         transform="matrix(0.73676375,0,0,0.73676375,341.82221,-36.73882)"
         style="stroke:#000000;stroke-opacity:1">
        <g
           word-spacing="normal"
           letter-spacing="normal"
           font-size-adjust="none"
           font-stretch="normal"
           font-weight="normal"
           font-variant="normal"
           font-style="normal"
           stroke-miterlimit="10.433"
           xml:space="preserve"
           transform="matrix(0.3,0,0,-0.3,-52.5,222.75)"
           id="g3709"
           style="font-style:normal;font-variant:normal;font-weight:normal;font-stretch:normal;letter-spacing:normal;word-spacing:normal;text-anchor:start;fill:none;fill-opacity:1;fill-rule:evenodd;stroke:#000000;stroke-linecap:butt;stroke-linejoin:miter;stroke-miterlimit:10.43299961;stroke-dasharray:none;stroke-dashoffset:0;stroke-opacity:1"><path
             id="path3697"
             d="m 472,394.25 v 0.02 0.03 0.01 0.02 0.01 l -0.01,0.02 v 0.01 l -0.01,0.02 -0.01,0.02 -0.01,0.02 -0.01,0.02 -0.02,0.03 -0.01,0.02 -0.02,0.03 -0.02,0.03 -0.03,0.03 -0.02,0.03 -0.03,0.04 -0.02,0.02 -0.01,0.02 -0.02,0.02 -0.02,0.02 -0.02,0.02 -0.02,0.03 -0.02,0.02 -0.02,0.02 -0.02,0.03 -0.03,0.02 -0.02,0.03 -0.03,0.03 -0.03,0.03 -0.02,0.03 -0.03,0.03 -0.03,0.03 -0.03,0.03 -0.03,0.03 -0.04,0.04 -0.03,0.03 -0.04,0.04 -0.03,0.03 -0.04,0.04 -0.04,0.04 c -6.22,6.28 -7.81,15.69 -7.81,23.31 0,8.67 1.89,17.35 8.01,23.56 0.64,0.61 0.64,0.71 0.64,0.86 0,0.35 -0.18,0.49 -0.48,0.49 -0.5,0 -4.98,-3.38 -7.92,-9.7 -2.55,-5.49 -3.14,-11.02 -3.14,-15.21 0,-3.89 0.54,-9.9 3.28,-15.54 2.98,-6.13 7.28,-9.36 7.78,-9.36 0.3,0 0.48,0.14 0.48,0.5 z"
             inkscape:connector-curvature="0"
             style="fill:#000000;stroke-width:0;stroke:#000000;stroke-opacity:1" /><path
             id="path3699"
             d="m 489.48,438.09 v 0.05 0.06 0.05 0.05 0.05 0.05 0.04 l -0.01,0.05 v 0.04 0.04 0.04 0.04 0.04 0.03 l -0.01,0.04 v 0.03 l -0.01,0.07 -0.01,0.06 -0.01,0.05 -0.01,0.05 -0.02,0.05 -0.02,0.04 -0.02,0.04 -0.03,0.03 -0.02,0.03 -0.04,0.03 -0.03,0.03 -0.04,0.02 -0.05,0.02 -0.02,0.01 -0.02,0.01 h -0.03 l -0.03,0.01 -0.02,0.01 H 489 l -0.04,0.01 h -0.03 l -0.03,0.01 h -0.04 -0.03 l -0.04,0.01 h -0.04 -0.04 -0.04 -0.04 -0.05 l -0.04,0.01 h -0.05 -0.05 -0.05 -0.05 c -3.1,-3.19 -7.47,-3.19 -9.07,-3.19 v -1.55 c 1,0 3.94,0 6.52,1.3 v -25.81 c 0,-1.8 -0.14,-2.39 -4.63,-2.39 h -1.59 v -1.55 c 1.75,0.16 6.08,0.16 8.06,0.16 2,0 6.33,0 8.08,-0.16 v 1.55 h -1.59 c -4.49,0 -4.64,0.54 -4.64,2.39 z"
             inkscape:connector-curvature="0"
             style="fill:#000000;stroke-width:0;stroke:#000000;stroke-opacity:1" /><path
             id="path3701"
             d="m 543.78,417.65 h 0.16 0.16 l 0.16,0.01 h 0.07 l 0.08,0.01 h 0.08 l 0.07,0.01 0.07,0.01 0.08,0.01 0.07,0.02 0.06,0.02 0.07,0.02 0.06,0.02 0.06,0.02 0.06,0.03 0.06,0.03 0.05,0.04 0.05,0.03 0.05,0.05 0.04,0.04 0.04,0.05 0.01,0.03 0.02,0.03 0.02,0.03 0.01,0.03 0.02,0.03 0.01,0.03 0.01,0.04 0.01,0.03 0.01,0.04 0.01,0.04 v 0.04 l 0.01,0.04 0.01,0.04 v 0.04 0.05 0.04 c 0,1 -0.91,1 -1.75,1 h -26.95 c -0.85,0 -1.74,0 -1.74,-1 0,-1 0.89,-1 1.74,-1 z"
             inkscape:connector-curvature="0"
             style="fill:#000000;stroke-width:0;stroke:#000000;stroke-opacity:1" /><path
             id="path3703"
             d="m 567.38,410.34 0.24,0.27 0.24,0.25 0.24,0.25 0.23,0.24 0.22,0.23 0.22,0.22 0.21,0.22 0.2,0.21 0.21,0.2 0.19,0.19 0.19,0.19 0.19,0.19 0.19,0.17 0.18,0.18 0.35,0.33 0.34,0.32 0.33,0.3 0.33,0.29 0.33,0.29 0.64,0.56 0.33,0.29 0.33,0.28 c 0,0.05 3.08,2.69 4.88,4.49 4.73,4.64 5.83,7.03 5.83,7.21 0,0.5 -0.46,0.5 -0.55,0.5 -0.35,0 -0.5,-0.09 -0.75,-0.54 -1.49,-2.39 -2.53,-3.19 -3.74,-3.19 -1.2,0 -1.79,0.75 -2.54,1.59 -0.94,1.16 -1.78,2.14 -3.44,2.14 -3.73,0 -6.02,-4.62 -6.02,-5.67 0,-0.25 0.14,-0.54 0.6,-0.54 0.45,0 0.54,0.25 0.64,0.54 0.95,2.3 3.84,2.35 4.23,2.35 1.05,0 2,-0.36 3.14,-0.75 2,-0.75 2.55,-0.75 3.85,-0.75 -1.8,-2.14 -5.99,-5.74 -6.92,-6.53 l -4.49,-4.18 c -3.39,-3.34 -5.14,-6.18 -5.14,-6.53 0,-0.5 0.5,-0.5 0.59,-0.5 0.41,0 0.5,0.1 0.8,0.64 1.16,1.75 2.64,3.1 4.24,3.1 1.15,0 1.65,-0.46 2.89,-1.89 0.86,-1.05 1.75,-1.85 3.18,-1.85 4.94,0 7.83,6.33 7.83,7.67 0,0.25 -0.2,0.5 -0.59,0.5 -0.45,0 -0.55,-0.29 -0.71,-0.65 -1.14,-3.24 -4.32,-4.17 -5.98,-4.17 -0.98,0 -1.89,0.29 -2.94,0.64 -1.68,0.64 -2.43,0.84 -3.48,0.84 -0.1,0 -0.89,0 -1.34,-0.14 z"
             inkscape:connector-curvature="0"
             style="fill:#000000;stroke-width:0;stroke:#000000;stroke-opacity:1" /><path
             id="path3705"
             d="m 600.46,418.65 v 0.37 l -0.01,0.39 -0.01,0.39 -0.01,0.41 -0.04,0.84 -0.06,0.88 -0.08,0.92 -0.11,0.95 -0.13,0.97 -0.17,1.01 -0.19,1.02 -0.23,1.03 -0.27,1.05 -0.31,1.06 -0.35,1.07 -0.39,1.07 -0.21,0.53 -0.23,0.53 -0.23,0.53 -0.25,0.53 c -2.99,6.12 -7.27,9.36 -7.77,9.36 -0.3,0 -0.5,-0.19 -0.5,-0.49 0,-0.15 0,-0.25 0.94,-1.15 4.89,-4.92 7.73,-12.85 7.73,-23.27 0,-8.51 -1.84,-17.28 -8.03,-23.56 -0.64,-0.59 -0.64,-0.7 -0.64,-0.84 0,-0.3 0.2,-0.5 0.5,-0.5 0.5,0 4.97,3.39 7.92,9.71 2.53,5.47 3.13,11 3.13,15.19 z"
             inkscape:connector-curvature="0"
             style="fill:#000000;stroke-width:0;stroke:#000000;stroke-opacity:1" /><path
             id="path3707"
             d="m 622.99,430.54 h -1.19 c -0.09,-0.76 -0.45,-2.83 -0.9,-3.17 -0.27,-0.2 -2.95,-0.2 -3.44,-0.2 h -6.42 c 3.66,3.23 4.87,4.2 6.97,5.84 2.58,2.06 4.98,4.22 4.98,7.53 0,4.22 -3.69,6.8 -8.15,6.8 -4.32,0 -7.25,-3.03 -7.25,-6.23 0,-1.79 1.5,-1.96 1.86,-1.96 0.82,0 1.84,0.6 1.84,1.85 0,0.62 -0.25,1.84 -2.06,1.84 1.07,2.47 3.45,3.23 5.09,3.23 3.48,0 5.3,-2.7 5.3,-5.53 0,-3.03 -2.16,-5.43 -3.28,-6.68 l -8.39,-8.3 c -0.36,-0.31 -0.36,-0.39 -0.36,-1.36 h 14.36 z"
             inkscape:connector-curvature="0"
             style="fill:#000000;stroke-width:0;stroke:#000000;stroke-opacity:1" /></g>
      </g>
    </g>
    <g
       transform="matrix(0.70802018,0,0,0.70802018,221.88195,-48.541907)"
       id="g4204"
       style="stroke:#000000;stroke-opacity:1">
      <g
         style="font-style:normal;font-variant:normal;font-weight:normal;font-stretch:normal;letter-spacing:normal;word-spacing:normal;text-anchor:start;fill:none;fill-opacity:1;fill-rule:evenodd;stroke:#000000;stroke-linecap:butt;stroke-linejoin:miter;stroke-miterlimit:10.43299961;stroke-dasharray:none;stroke-dashoffset:0;stroke-opacity:1"
         id="g4202"
         transform="matrix(0.3,0,0,-0.3,-52.5,222.75)"
         xml:space="preserve"
         stroke-miterlimit="10.433"
         font-style="normal"
         font-variant="normal"
         font-weight="normal"
         font-stretch="normal"
         font-size-adjust="none"
         letter-spacing="normal"
         word-spacing="normal"><path
           style="fill:#000000;stroke-width:0;stroke:#000000;stroke-opacity:1"
           inkscape:connector-curvature="0"
           d="m 488.35,417.65 h 0.16 0.16 l 0.15,0.01 h 0.08 l 0.08,0.01 h 0.07 l 0.08,0.01 0.07,0.01 0.07,0.01 0.07,0.02 0.07,0.02 0.07,0.02 0.06,0.02 0.06,0.02 0.06,0.03 0.05,0.03 0.06,0.04 0.05,0.03 0.04,0.05 0.04,0.04 0.04,0.05 0.02,0.03 0.02,0.03 0.01,0.03 0.02,0.03 0.01,0.03 0.02,0.03 0.01,0.04 0.01,0.03 0.01,0.04 v 0.04 l 0.01,0.04 0.01,0.04 v 0.04 l 0.01,0.04 v 0.05 0.04 c 0,1 -0.91,1 -1.75,1 h -26.96 c -0.84,0 -1.73,0 -1.73,-1 0,-1 0.89,-1 1.73,-1 z"
           id="path4194" /><path
           style="fill:#000000;stroke-width:0;stroke:#000000;stroke-opacity:1"
           inkscape:connector-curvature="0"
           d="m 517.2,422.14 v 0.74 l -0.02,0.75 -0.02,0.75 -0.03,0.74 -0.04,0.75 -0.06,0.74 -0.08,0.74 -0.09,0.73 -0.12,0.73 -0.14,0.73 -0.16,0.72 -0.19,0.72 -0.22,0.72 -0.24,0.7 -0.28,0.7 -0.15,0.35 -0.16,0.34 c -2.28,4.8 -6.38,5.6 -8.47,5.6 -2.98,0 -6.62,-1.3 -8.67,-5.94 -1.6,-3.44 -1.85,-7.33 -1.85,-11.31 0,-3.74 0.21,-8.22 2.25,-12 2.15,-4.03 5.79,-5.03 8.22,-5.03 v 1.09 c -1.93,0 -4.89,1.25 -5.78,6.03 -0.54,2.98 -0.54,7.56 -0.54,10.52 0,3.18 0,6.46 0.4,9.15 0.94,5.94 4.67,6.38 5.92,6.38 1.64,0 4.94,-0.89 5.88,-5.83 0.5,-2.78 0.5,-6.58 0.5,-9.7 0,-3.75 0,-7.13 -0.55,-10.32 -0.75,-4.73 -3.59,-6.23 -5.83,-6.23 v 0 -1.09 c 2.69,0 6.47,1.04 8.67,5.78 1.6,3.43 1.85,7.31 1.85,11.25 z"
           id="path4196" /><path
           style="fill:#000000;stroke-width:0;stroke:#000000;stroke-opacity:1"
           inkscape:connector-curvature="0"
           d="m 528.8,408.84 -0.01,0.13 -0.01,0.14 -0.01,0.13 -0.03,0.13 -0.03,0.12 -0.03,0.13 -0.04,0.12 -0.05,0.12 -0.05,0.12 -0.06,0.11 -0.07,0.11 -0.07,0.11 -0.07,0.1 -0.08,0.1 -0.08,0.1 -0.09,0.09 -0.09,0.09 -0.1,0.08 -0.1,0.08 -0.1,0.07 -0.11,0.07 -0.11,0.07 -0.11,0.06 -0.12,0.05 -0.12,0.05 -0.12,0.04 -0.13,0.04 -0.12,0.03 -0.13,0.02 -0.13,0.02 -0.14,0.01 h -0.13 c -1.44,0 -2.64,-1.2 -2.64,-2.64 0,-1.44 1.2,-2.64 2.64,-2.64 1.45,0 2.64,1.2 2.64,2.64 z"
           id="path4198" /><path
           style="fill:#000000;stroke-width:0;stroke:#000000;stroke-opacity:1"
           inkscape:connector-curvature="0"
           d="m 555.41,416.21 -0.02,0.56 -0.03,0.54 -0.06,0.54 -0.08,0.53 -0.1,0.53 -0.13,0.51 -0.14,0.5 -0.17,0.5 -0.18,0.48 -0.21,0.47 -0.22,0.46 -0.24,0.44 -0.26,0.43 -0.28,0.41 -0.29,0.4 -0.31,0.38 -0.33,0.36 -0.34,0.35 -0.35,0.32 -0.37,0.31 -0.39,0.29 -0.39,0.26 -0.41,0.25 -0.43,0.22 -0.43,0.2 -0.44,0.17 -0.46,0.15 -0.46,0.13 -0.48,0.09 -0.48,0.07 -0.49,0.05 -0.5,0.01 c -2.39,0 -4.53,-0.8 -6.33,-2.53 v 9.7 c 1,-0.29 2.64,-0.64 4.23,-0.64 6.13,0 9.61,4.53 9.61,5.19 0,0.3 -0.14,0.55 -0.5,0.55 -0.04,0 -0.14,0 -0.39,-0.16 -1,-0.45 -3.44,-1.44 -6.78,-1.44 -1.98,0 -4.28,0.35 -6.62,1.39 -0.39,0.14 -0.5,0.14 -0.6,0.14 -0.5,0 -0.5,-0.39 -0.5,-1.18 v -14.75 c 0,-0.89 0,-1.3 0.71,-1.3 0.34,0 0.43,0.16 0.64,0.45 0.54,0.8 2.39,3.49 6.42,3.49 2.59,0 3.84,-2.3 4.23,-3.19 0.82,-1.84 0.91,-3.78 0.91,-6.28 0,-1.74 0,-4.74 -1.2,-6.83 -1.19,-1.94 -3.04,-3.23 -5.33,-3.23 -3.64,0 -6.47,2.64 -7.33,5.57 0.16,-0.04 0.31,-0.09 0.86,-0.09 1.64,0 2.48,1.25 2.48,2.44 0,1.2 -0.84,2.44 -2.48,2.44 -0.7,0 -2.45,-0.35 -2.45,-2.65 0,-4.28 3.43,-9.1 9.03,-9.1 5.76,0 10.86,4.78 10.86,11.1 z"
           id="path4200" /></g>
    </g>
    <g
       id="g4442"
       transform="matrix(0.74508963,0,0,0.74508963,223.14039,-19.547452)"
       style="stroke:#000000;stroke-opacity:1">
      <g
         word-spacing="normal"
         letter-spacing="normal"
         font-size-adjust="none"
         font-stretch="normal"
         font-weight="normal"
         font-variant="normal"
         font-style="normal"
         stroke-miterlimit="10.433"
         xml:space="preserve"
         transform="matrix(0.3,0,0,-0.3,-52.5,222.75)"
         id="g4440"
         style="font-style:normal;font-variant:normal;font-weight:normal;font-stretch:normal;letter-spacing:normal;word-spacing:normal;text-anchor:start;fill:none;fill-opacity:1;fill-rule:evenodd;stroke:#000000;stroke-linecap:butt;stroke-linejoin:miter;stroke-miterlimit:10.43299961;stroke-dasharray:none;stroke-dashoffset:0;stroke-opacity:1"><path
           id="path4434"
           d="m 470.16,438.09 v 0.05 0.06 0.05 0.05 0.05 0.05 0.04 0.05 0.04 0.04 l -0.01,0.04 v 0.04 0.04 0.03 0.04 l -0.01,0.03 -0.01,0.07 v 0.06 l -0.02,0.05 -0.01,0.05 -0.02,0.05 -0.02,0.04 -0.02,0.04 -0.02,0.03 -0.03,0.03 -0.03,0.03 -0.04,0.03 -0.04,0.02 -0.04,0.02 -0.03,0.01 -0.02,0.01 h -0.03 l -0.02,0.01 -0.03,0.01 h -0.03 l -0.03,0.01 h -0.03 l -0.04,0.01 h -0.03 -0.04 l -0.03,0.01 h -0.04 -0.04 -0.05 -0.04 -0.04 l -0.05,0.01 h -0.05 -0.05 -0.05 -0.05 c -3.09,-3.19 -7.47,-3.19 -9.06,-3.19 v -1.55 c 1,0 3.93,0 6.51,1.3 v -25.81 c 0,-1.8 -0.14,-2.39 -4.62,-2.39 h -1.6 v -1.55 c 1.75,0.16 6.08,0.16 8.07,0.16 2,0 6.32,0 8.07,-0.16 v 1.55 h -1.59 c -4.48,0 -4.64,0.54 -4.64,2.39 z"
           inkscape:connector-curvature="0"
           style="fill:#000000;stroke-width:0;stroke:#000000;stroke-opacity:1" /><path
           id="path4436"
           d="m 490.04,408.84 v 0.13 l -0.01,0.14 -0.02,0.13 -0.02,0.13 -0.03,0.12 -0.04,0.13 -0.04,0.12 -0.05,0.12 -0.05,0.12 -0.06,0.11 -0.06,0.11 -0.07,0.11 -0.08,0.1 -0.08,0.1 -0.08,0.1 -0.09,0.09 -0.09,0.09 -0.09,0.08 -0.1,0.08 -0.11,0.07 -0.1,0.07 -0.12,0.07 -0.11,0.06 -0.12,0.05 -0.12,0.05 -0.12,0.04 -0.12,0.04 -0.13,0.03 -0.13,0.02 -0.13,0.02 -0.14,0.01 h -0.13 c -1.44,0 -2.64,-1.2 -2.64,-2.64 0,-1.44 1.2,-2.64 2.64,-2.64 1.45,0 2.64,1.2 2.64,2.64 z"
           inkscape:connector-curvature="0"
           style="fill:#000000;stroke-width:0;stroke:#000000;stroke-opacity:1" /><path
           id="path4438"
           d="m 516.65,416.21 -0.01,0.56 -0.04,0.54 -0.06,0.54 -0.08,0.53 -0.1,0.53 -0.13,0.51 -0.14,0.5 -0.17,0.5 -0.18,0.48 -0.21,0.47 -0.22,0.46 -0.24,0.44 -0.26,0.43 -0.28,0.41 -0.29,0.4 -0.31,0.38 -0.33,0.36 -0.34,0.35 -0.35,0.32 -0.37,0.31 -0.39,0.29 -0.39,0.26 -0.41,0.25 -0.42,0.22 -0.44,0.2 -0.44,0.17 -0.46,0.15 -0.46,0.13 -0.47,0.09 -0.49,0.07 -0.49,0.05 -0.5,0.01 c -2.39,0 -4.53,-0.8 -6.33,-2.53 v 9.7 c 1,-0.29 2.64,-0.64 4.24,-0.64 6.12,0 9.61,4.53 9.61,5.19 0,0.3 -0.15,0.55 -0.5,0.55 -0.05,0 -0.15,0 -0.4,-0.16 -1,-0.45 -3.43,-1.44 -6.78,-1.44 -1.98,0 -4.28,0.35 -6.62,1.39 -0.39,0.14 -0.5,0.14 -0.6,0.14 -0.5,0 -0.5,-0.39 -0.5,-1.18 v -14.75 c 0,-0.89 0,-1.3 0.71,-1.3 0.34,0 0.44,0.16 0.64,0.45 0.55,0.8 2.39,3.49 6.42,3.49 2.59,0 3.84,-2.3 4.23,-3.19 0.82,-1.84 0.91,-3.78 0.91,-6.28 0,-1.74 0,-4.74 -1.2,-6.83 -1.19,-1.94 -3.03,-3.23 -5.33,-3.23 -3.64,0 -6.47,2.64 -7.33,5.57 0.16,-0.04 0.31,-0.09 0.86,-0.09 1.64,0 2.49,1.25 2.49,2.44 0,1.2 -0.85,2.44 -2.49,2.44 -0.7,0 -2.45,-0.35 -2.45,-2.65 0,-4.28 3.44,-9.1 9.03,-9.1 5.76,0 10.86,4.78 10.86,11.1 z"
           inkscape:connector-curvature="0"
           style="fill:#000000;stroke-width:0;stroke:#000000;stroke-opacity:1" /></g>
    </g>
    <g
       inkscape:label=""
       transform="translate(272.27604,-36.171875)"
       id="g1211">
      <g
         id="g8744">
        <g
           style="fill:#000000;fill-opacity:1"
           id="g6374">
          <use
             xlink:href="#symbol1808"
             x="91.925003"
             y="81.962997"
             id="use7033"
             width="100%"
             height="100%" />
        </g>
        <g
           style="fill:#000000;fill-opacity:1"
           id="g4102">
          <use
             xlink:href="#symbol1863"
             x="99.674004"
             y="81.962997"
             id="use4101"
             width="100%"
             height="100%" />
        </g>
        <g
           style="fill:#000000;fill-opacity:1"
           id="g4716">
          <use
             xlink:href="#symbol8321"
             x="104.655"
             y="81.962997"
             id="use1939"
             width="100%"
             height="100%" />
        </g>
        <g
           style="fill:#000000;fill-opacity:1"
           id="g621">
          <use
             xlink:href="#symbol3880"
             x="107.423"
             y="81.962997"
             id="use3330"
             width="100%"
             height="100%" />
        </g>
      </g>
    </g>
    <g
       inkscape:label=""
       transform="translate(101.09945,-75.062655)"
       id="g1478">
      <g
         id="g7640">
        <g
           style="fill:#000000;fill-opacity:1"
           id="g33">
          <use
             xlink:href="#symbol7961"
             x="91.925003"
             y="81.962997"
             id="use517"
             width="100%"
             height="100%" />
        </g>
        <g
           style="fill:#000000;fill-opacity:1"
           id="g2184">
          <use
             xlink:href="#symbol4526"
             x="99.674004"
             y="81.962997"
             id="use9834"
             width="100%"
             height="100%" />
        </g>
        <g
           style="fill:#000000;fill-opacity:1"
           id="g6226">
          <use
             xlink:href="#symbol7896"
             x="104.655"
             y="81.962997"
             id="use1775"
             width="100%"
             height="100%" />
        </g>
        <g
           style="fill:#000000;fill-opacity:1"
           id="g1189">
          <use
             xlink:href="#symbol7208"
             x="107.423"
             y="81.962997"
             id="use7470"
             width="100%"
             height="100%" />
        </g>
        <g
           style="fill:#000000;fill-opacity:1"
           id="g6900">
          <use
             xlink:href="#symbol5173"
             x="114.618"
             y="81.962997"
             id="use2544"
             width="100%"
             height="100%" />
        </g>
        <g
           style="fill:#000000;fill-opacity:1"
           id="g7231">
          <use
             xlink:href="#symbol7961"
             x="124.57861"
             y="81.962997"
             id="use5385"
             width="100%"
             height="100%" />
        </g>
        <g
           style="fill:#000000;fill-opacity:1"
           id="g8088">
          <use
             xlink:href="#symbol4161"
             x="132.32899"
             y="81.962997"
             id="use3121"
             width="100%"
             height="100%" />
        </g>
        <g
           style="fill:#000000;fill-opacity:1"
           id="g3994">
          <use
             xlink:href="#symbol7896"
             x="137.311"
             y="81.962997"
             id="use8461"
             width="100%"
             height="100%" />
        </g>
        <g
           style="fill:#000000;fill-opacity:1"
           id="g9424">
          <use
             xlink:href="#symbol7208"
             x="140.078"
             y="81.962997"
             id="use8084"
             width="100%"
             height="100%" />
        </g>
      </g>
    </g>
    <g
       inkscape:label=""
       transform="translate(103.92998,7.0177115)"
       id="g1796">
      <g
         id="g9636">
        <g
           style="fill:#000000;fill-opacity:1"
           id="g9969">
          <use
             xlink:href="#symbol9969"
             x="91.925003"
             y="81.962997"
             id="use4470"
             width="100%"
             height="100%" />
        </g>
        <g
           style="fill:#000000;fill-opacity:1"
           id="g5173">
          <use
             xlink:href="#symbol2156"
             x="99.674004"
             y="81.962997"
             id="use7542"
             width="100%"
             height="100%" />
        </g>
        <g
           style="fill:#000000;fill-opacity:1"
           id="g271">
          <use
             xlink:href="#symbol9089"
             x="104.655"
             y="81.962997"
             id="use6043"
             width="100%"
             height="100%" />
        </g>
        <g
           style="fill:#000000;fill-opacity:1"
           id="g8868">
          <use
             xlink:href="#symbol5335"
             x="107.423"
             y="81.962997"
             id="use75"
             width="100%"
             height="100%" />
        </g>
        <g
           style="fill:#000000;fill-opacity:1"
           id="g316">
          <use
             xlink:href="#symbol2557"
             x="114.618"
             y="81.962997"
             id="use2152"
             width="100%"
             height="100%" />
        </g>
        <g
           style="fill:#000000;fill-opacity:1"
           id="g499">
          <use
             xlink:href="#symbol491"
             x="124.581"
             y="81.962997"
             id="use3042"
             width="100%"
             height="100%" />
        </g>
        <g
           style="fill:#000000;fill-opacity:1"
           id="g3013">
          <use
             xlink:href="#symbol9089"
             x="129.562"
             y="81.962997"
             id="use4777"
             width="100%"
             height="100%" />
        </g>
        <g
           style="fill:#000000;fill-opacity:1"
           id="g6608">
          <use
             xlink:href="#symbol5335"
             x="132.32899"
             y="81.962997"
             id="use5526"
             width="100%"
             height="100%" />
        </g>
      </g>
    </g>
  </g>
</svg>
