<?xml version="1.0" encoding="UTF-8" standalone="no"?>
<!-- Created with Inkscape (http://www.inkscape.org/) -->

<svg
   xmlns:dc="http://purl.org/dc/elements/1.1/"
   xmlns:cc="http://creativecommons.org/ns#"
   xmlns:rdf="http://www.w3.org/1999/02/22-rdf-syntax-ns#"
   xmlns:svg="http://www.w3.org/2000/svg"
   xmlns="http://www.w3.org/2000/svg"
   xmlns:sodipodi="http://sodipodi.sourceforge.net/DTD/sodipodi-0.dtd"
   xmlns:inkscape="http://www.inkscape.org/namespaces/inkscape"
   inkscape:export-ydpi="300"
   inkscape:export-xdpi="300"
   inkscape:export-filename="/home/decencie/Documents/DeepLearningForImageAnalysis/slides/Lecture1/graphics/neurone_simple.png"
   width="150mm"
   height="100mm"
   viewBox="0 0 531.49607 354.33071"
   id="svg2"
   version="1.1"
   inkscape:version="0.91 r13725"
   sodipodi:docname="neurone_simple.svg">
  <sodipodi:namedview
     id="base"
     pagecolor="#ffffff"
     bordercolor="#666666"
     borderopacity="1.0"
     inkscape:pageopacity="0.0"
     inkscape:pageshadow="2"
     inkscape:zoom="1.63"
     inkscape:cx="265.84621"
     inkscape:cy="185.41483"
     inkscape:document-units="px"
     inkscape:current-layer="svg2"
     showgrid="false"
     inkscape:window-width="1855"
     inkscape:window-height="1056"
     inkscape:window-x="65"
     inkscape:window-y="24"
     inkscape:window-maximized="1" />
  <defs
     id="defs4">
    <marker
       inkscape:stockid="Arrow1Lend"
       orient="auto"
       refY="0.0"
       refX="0.0"
       id="Arrow1Lend"
       style="overflow:visible;"
       inkscape:isstock="true">
      <path
         id="path6096"
         d="M 0.0,0.0 L 5.0,-5.0 L -12.5,0.0 L 5.0,5.0 L 0.0,0.0 z "
         style="fill-rule:evenodd;stroke:#000000;stroke-width:1pt;stroke-opacity:1;fill:#000000;fill-opacity:1"
         transform="scale(0.8) rotate(180) translate(12.5,0)" />
    </marker>
    <marker
       inkscape:stockid="Arrow1Lend"
       orient="auto"
       refY="0"
       refX="0"
       id="Arrow1Lend-7"
       style="overflow:visible"
       inkscape:isstock="true">
      <path
         inkscape:connector-curvature="0"
         id="path6096-5"
         d="M 0,0 5,-5 -12.5,0 5,5 0,0 Z"
         style="fill:#000000;fill-opacity:1;fill-rule:evenodd;stroke:#000000;stroke-width:1pt;stroke-opacity:1"
         transform="matrix(-0.8,0,0,-0.8,-10,0)" />
    </marker>
  </defs>
  <metadata
     id="metadata7">
    <rdf:RDF>
      <cc:Work
         rdf:about="">
        <dc:format>image/svg+xml</dc:format>
        <dc:type
           rdf:resource="http://purl.org/dc/dcmitype/StillImage" />
        <dc:title />
      </cc:Work>
    </rdf:RDF>
  </metadata>
  <g
     inkscape:label="Calque 1"
     inkscape:groupmode="layer"
     id="layer1"
     transform="translate(0,-698.0315)">
    <circle
       inkscape:export-ydpi="300"
       inkscape:export-xdpi="300"
       style="fill:#ffffff;fill-opacity:1;fill-rule:evenodd;stroke:#000000;stroke-width:1px;stroke-linecap:butt;stroke-linejoin:miter;stroke-opacity:1"
       id="path3336"
       cx="160.1227"
       cy="863.40515"
       r="46.625767" />
    <path
       inkscape:export-ydpi="300"
       inkscape:export-xdpi="300"
       style="fill:none;fill-rule:evenodd;stroke:#000000;stroke-width:0.9251954px;stroke-linecap:butt;stroke-linejoin:miter;stroke-opacity:1"
       d="M 112.30024,872.94322 64.386875,894.97141"
       id="path4140"
       inkscape:connector-curvature="0" />
    <circle
       inkscape:export-ydpi="300"
       inkscape:export-xdpi="300"
       style="fill:#000000;fill-opacity:1"
       id="path4146"
       cx="64.72393"
       cy="818.92657"
       r="4.6012268" />
    <circle
       inkscape:export-ydpi="300"
       inkscape:export-xdpi="300"
       style="fill:#000000;fill-opacity:1"
       id="path4146-3"
       cx="61.349697"
       cy="895.04932"
       r="4.6012268" />
    <path
       inkscape:export-ydpi="300"
       inkscape:export-xdpi="300"
       style="fill:none;fill-rule:evenodd;stroke:#000000;stroke-width:0.74767417px;stroke-linecap:butt;stroke-linejoin:miter;stroke-opacity:1"
       d="m 66.782082,817.3352 45.576938,35.08472"
       id="path4178"
       inkscape:connector-curvature="0" />
    <path
       inkscape:export-ydpi="300"
       inkscape:export-xdpi="300"
       style="fill:none;fill-rule:evenodd;stroke:#000000;stroke-width:1px;stroke-linecap:butt;stroke-linejoin:miter;stroke-opacity:1"
       d="m 65.030675,817.3929 -49.693251,0"
       id="path4182"
       inkscape:connector-curvature="0" />
    <path
       inkscape:export-ydpi="300"
       inkscape:export-xdpi="300"
       style="fill:none;fill-rule:evenodd;stroke:#000000;stroke-width:1px;stroke-linecap:butt;stroke-linejoin:miter;stroke-opacity:1"
       d="m 62.269941,896.27632 -49.69325,0"
       id="path4182-6"
       inkscape:connector-curvature="0" />
    <ellipse
       inkscape:export-ydpi="300"
       inkscape:export-xdpi="300"
       style="fill:#ffffff;fill-opacity:1;fill-rule:evenodd;stroke:#000000;stroke-width:0.64199698px;stroke-linecap:butt;stroke-linejoin:miter;stroke-opacity:1"
       id="path3336-3"
       cx="284.96939"
       cy="864.14142"
       rx="29.933605"
       ry="29.933607" />
    <path
       style="fill:none;fill-rule:evenodd;stroke:#000000;stroke-width:0.81643844;stroke-linecap:butt;stroke-linejoin:miter;stroke-miterlimit:4;stroke-dasharray:none;stroke-opacity:1;marker-end:url(#Arrow1Lend)"
       d="m 206.13499,864.01869 46.61912,0"
       id="path5287"
       inkscape:connector-curvature="0" />
    <path
       style="fill:none;fill-rule:evenodd;stroke:#000000;stroke-width:0.81643844;stroke-linecap:butt;stroke-linejoin:miter;stroke-miterlimit:4;stroke-dasharray:none;stroke-opacity:1;marker-end:url(#Arrow1Lend-7)"
       d="m 315.95977,864.47264 46.61912,0"
       id="path5287-3"
       inkscape:connector-curvature="0" />
  </g>
  <g
     inkscape:export-ydpi="300"
     inkscape:export-xdpi="300"
     id="g5839"
     transform="translate(-120.24541,-82.208605)">
    <g
       word-spacing="normal"
       letter-spacing="normal"
       font-size-adjust="none"
       font-stretch="normal"
       font-weight="normal"
       font-variant="normal"
       font-style="normal"
       stroke-miterlimit="10.433"
       xml:space="preserve"
       transform="matrix(0.50618673,0,0,-0.50618673,-88.582677,398.62205)"
       id="g5841"
       style="font-style:normal;font-variant:normal;font-weight:normal;font-stretch:normal;letter-spacing:normal;word-spacing:normal;text-anchor:start;fill:none;fill-opacity:1;fill-rule:evenodd;stroke:#000000;stroke-linecap:butt;stroke-linejoin:miter;stroke-miterlimit:10.43299961;stroke-dasharray:none;stroke-dashoffset:0;stroke-opacity:1"><path
         id="path5843"
         d="m 472.64,421.04 0.03,0.13 0.03,0.15 0.05,0.17 0.04,0.18 0.06,0.19 0.06,0.21 0.06,0.21 0.07,0.23 0.08,0.23 0.09,0.24 0.1,0.25 0.1,0.24 0.11,0.25 0.12,0.25 0.13,0.25 0.14,0.25 0.15,0.24 0.15,0.24 0.17,0.23 0.18,0.22 0.18,0.22 0.2,0.2 0.21,0.19 0.22,0.18 0.23,0.16 0.25,0.14 0.12,0.07 0.13,0.06 0.13,0.05 0.14,0.05 0.14,0.05 0.14,0.04 0.14,0.03 0.15,0.03 0.15,0.02 0.16,0.02 0.16,0.01 0.16,0 c 0.25,0 1.45,0 2.49,-0.65 -1.4,-0.25 -2.39,-1.49 -2.39,-2.68 0,-0.8 0.54,-1.75 1.89,-1.75 1.1,0 2.69,0.9 2.69,2.89 0,2.59 -2.94,3.29 -4.63,3.29 -2.89,0 -4.64,-2.64 -5.23,-3.79 -1.25,3.29 -3.94,3.79 -5.38,3.79 -5.18,0 -8.02,-6.43 -8.02,-7.67 0,-0.5 0.5,-0.5 0.6,-0.5 0.39,0 0.54,0.1 0.64,0.54 1.7,5.29 4.98,6.53 6.68,6.53 0.95,0 2.69,-0.45 2.69,-3.33 0,-1.55 -0.85,-4.89 -2.69,-11.86 -0.8,-3.09 -2.54,-5.18 -4.73,-5.18 -0.3,0 -1.45,0 -2.49,0.65 1.24,0.25 2.34,1.29 2.34,2.69 0,1.34 -1.1,1.74 -1.85,1.74 -1.49,0 -2.73,-1.3 -2.73,-2.89 0,-2.29 2.48,-3.29 4.68,-3.29 3.28,0 5.08,3.49 5.23,3.79 0.6,-1.85 2.39,-3.79 5.38,-3.79 5.13,0 7.97,6.43 7.97,7.67 0,0.5 -0.45,0.5 -0.6,0.5 -0.45,0 -0.55,-0.2 -0.65,-0.55 -1.64,-5.33 -5.03,-6.52 -6.62,-6.52 -1.95,0 -2.74,1.59 -2.74,3.29 0,1.09 0.29,2.19 0.85,4.38 z"
         inkscape:connector-curvature="0"
         style="fill:#000000;stroke-width:0" /><path
         id="path5845"
         d="m 495.68,421.18 0,0.04 0,0.04 0,0.04 0,0.04 0,0.04 0,0.04 0,0.03 0,0.04 -0.01,0.03 0,0.03 0,0.04 0,0.03 -0.01,0.02 0,0.03 0,0.03 -0.01,0.03 0,0.02 0,0.02 -0.02,0.05 -0.01,0.04 -0.01,0.04 -0.02,0.03 -0.02,0.03 -0.02,0.03 -0.03,0.03 -0.02,0.02 -0.03,0.02 -0.04,0.02 -0.03,0.01 -0.04,0.01 -0.05,0.02 -0.05,0 -0.02,0.01 -0.03,0 -0.03,0.01 -0.02,0 -0.03,0 -0.03,0 -0.04,0 -0.03,0.01 -0.03,0 -0.04,0 -0.03,0 -0.04,0 -0.04,0 -0.04,0 -0.04,0 -0.04,0 -0.05,0 -0.04,0 c -2.24,-2.19 -5.41,-2.23 -6.84,-2.23 l 0,-1.25 c 0.84,0 3.14,0 5.06,0.97 l 0,-17.78 c 0,-1.15 0,-1.61 -3.49,-1.61 l -1.33,0 0,-1.25 12.45,0 0,1.25 -1.32,0 c -3.49,0 -3.49,0.46 -3.49,1.61 z"
         inkscape:connector-curvature="0"
         style="fill:#000000;stroke-width:0" /></g>  </g>
  <path
     inkscape:export-ydpi="300"
     inkscape:export-xdpi="300"
     inkscape:connector-curvature="0"
     id="path6069"
     d="m 160.1227,117.52087 0,-59.5092"
     style="fill:none;fill-rule:evenodd;stroke:#000000;stroke-width:1px;stroke-linecap:butt;stroke-linejoin:miter;stroke-opacity:1" />
  <g
     inkscape:export-ydpi="300"
     inkscape:export-xdpi="300"
     id="g6146"
     transform="translate(24.53988,-117.17794)">
    <g
       word-spacing="normal"
       letter-spacing="normal"
       font-size-adjust="none"
       font-stretch="normal"
       font-weight="normal"
       font-variant="normal"
       font-style="normal"
       stroke-miterlimit="10.433"
       xml:space="preserve"
       transform="matrix(0.50618673,0,0,-0.50618673,-88.582677,398.62205)"
       id="g6148"
       style="font-style:normal;font-variant:normal;font-weight:normal;font-stretch:normal;letter-spacing:normal;word-spacing:normal;text-anchor:start;fill:none;fill-opacity:1;fill-rule:evenodd;stroke:#000000;stroke-linecap:butt;stroke-linejoin:miter;stroke-miterlimit:10.43299961;stroke-dasharray:none;stroke-dashoffset:0;stroke-opacity:1"><path
         id="path6150"
         d="m 467.91,440.02 0,0.01 0,0 0,0.01 0,0.01 -0.01,0.01 0,0.01 0,0.02 0,0.02 0,0.02 -0.01,0.02 0,0.02 -0.01,0.02 -0.01,0.03 -0.01,0.02 -0.01,0.03 -0.01,0.02 -0.01,0.02 -0.02,0.03 -0.02,0.02 -0.02,0.03 -0.02,0.02 -0.01,0.01 -0.02,0.01 -0.01,0.01 -0.01,0.01 -0.02,0.01 -0.01,0.01 -0.02,0.01 -0.02,0.01 -0.01,0.01 -0.02,0.01 -0.02,0.01 -0.02,0 -0.02,0.01 -0.02,0.01 -0.03,0 -0.02,0.01 -0.02,0 -0.03,0.01 -0.02,0 -0.03,0 -0.03,0.01 -0.02,0 -0.03,0 -0.03,0 c -1.15,0 -4.78,-0.4 -6.08,-0.5 -0.4,-0.05 -0.95,-0.1 -0.95,-1 0,-0.59 0.45,-0.59 1.2,-0.59 2.39,0 2.49,-0.35 2.49,-0.85 0,-0.35 -0.45,-2.04 -0.7,-3.09 l -4.08,-16.24 c -0.6,-2.49 -0.8,-3.28 -0.8,-5.03 0,-4.73 2.64,-7.82 6.33,-7.82 l 0,1.1 c -1.7,0 -3.34,1.34 -3.34,5.03 0,0.95 0,1.89 0.8,5.03 l 1.09,4.58 c 0.3,1.1 0.3,1.2 0.75,1.75 2.44,3.24 4.68,3.98 5.98,3.98 1.79,0 3.14,-1.49 3.14,-4.68 0,-2.94 -1.65,-8.67 -2.54,-10.56 -1.65,-3.34 -3.94,-5.13 -5.88,-5.13 l 0,-1.1 c 5.88,0 12,7.43 12,14.6 0,4.53 -2.64,7.97 -6.62,7.97 -2.29,0 -4.34,-1.45 -5.83,-2.99 z"
         inkscape:connector-curvature="0"
         style="fill:#000000;stroke-width:0" /></g>  </g>
  <g
     inkscape:export-ydpi="300"
     inkscape:export-xdpi="300"
     id="g6476"
     transform="translate(-58.895713,-69.325166)">
    <g
       word-spacing="normal"
       letter-spacing="normal"
       font-size-adjust="none"
       font-stretch="normal"
       font-weight="normal"
       font-variant="normal"
       font-style="normal"
       stroke-miterlimit="10.433"
       xml:space="preserve"
       transform="matrix(0.50618673,0,0,-0.50618673,-88.582677,398.62205)"
       id="g6478"
       style="font-style:normal;font-variant:normal;font-weight:normal;font-stretch:normal;letter-spacing:normal;word-spacing:normal;text-anchor:start;fill:none;fill-opacity:1;fill-rule:evenodd;stroke:#000000;stroke-linecap:butt;stroke-linejoin:miter;stroke-miterlimit:10.43299961;stroke-dasharray:none;stroke-dashoffset:0;stroke-opacity:1"><path
         id="path6480"
         d="m 479.02,422.89 0.02,0.1 0.02,0.11 0.03,0.11 0.03,0.12 0.03,0.12 0.03,0.12 0.06,0.24 0.06,0.25 0.06,0.25 0.06,0.25 0.06,0.24 0.03,0.12 0.03,0.12 0.02,0.11 0.03,0.11 0.03,0.1 0.02,0.1 0.02,0.1 0.02,0.09 0.02,0.08 0.01,0.08 0.02,0.07 0.01,0.06 0.01,0.06 0.01,0.05 0,0.04 0,0.03 c 0,0.9 -0.7,1.35 -1.44,1.35 -0.6,0 -1.5,-0.4 -1.85,-1.4 -0.15,-0.34 -2.49,-9.86 -2.84,-11.15 -0.34,-1.5 -0.45,-2.39 -0.45,-3.29 0,-0.55 0,-0.65 0.05,-0.9 -1.14,-2.64 -2.64,-4.18 -4.58,-4.18 -3.98,0 -3.98,3.68 -3.98,4.53 0,1.6 0.25,3.54 2.59,9.67 0.54,1.49 0.85,2.19 0.85,3.18 0,2.25 -1.65,4.09 -4.09,4.09 -4.73,0 -6.57,-7.23 -6.57,-7.67 0,-0.5 0.49,-0.5 0.59,-0.5 0.5,0 0.55,0.1 0.8,0.9 1.34,4.63 3.29,6.17 5.03,6.17 0.45,0 1.25,-0.05 1.25,-1.64 0,-1.25 -0.55,-2.64 -0.9,-3.49 -2.19,-5.88 -2.79,-8.17 -2.79,-10.06 0,-4.53 3.34,-6.28 7.07,-6.28 0.85,0 3.19,0 5.18,3.49 1.3,-3.19 4.73,-3.49 6.23,-3.49 3.73,0 5.93,3.14 7.22,6.13 1.7,3.88 3.29,10.56 3.29,12.95 0,2.74 -1.35,3.49 -2.19,3.49 -1.25,0 -2.49,-1.3 -2.49,-2.4 0,-0.64 0.3,-0.94 0.74,-1.34 0.56,-0.55 1.8,-1.84 1.8,-4.23 0,-1.69 -1.44,-6.58 -2.74,-9.12 -1.3,-2.64 -3.04,-4.38 -5.48,-4.38 -2.34,0 -3.68,1.49 -3.68,4.33 0,1.4 0.34,2.94 0.54,3.64 z"
         inkscape:connector-curvature="0"
         style="fill:#000000;stroke-width:0" /><path
         id="path6482"
         d="m 502.68,421.18 0,0.04 0,0.04 0,0.04 0,0.04 0,0.04 0,0.04 0,0.03 0,0.04 -0.01,0.03 0,0.03 0,0.04 0,0.03 -0.01,0.02 0,0.03 0,0.03 -0.01,0.03 0,0.02 0,0.02 -0.02,0.05 -0.01,0.04 -0.01,0.04 -0.02,0.03 -0.02,0.03 -0.02,0.03 -0.03,0.03 -0.02,0.02 -0.03,0.02 -0.04,0.02 -0.03,0.01 -0.04,0.01 -0.05,0.02 -0.05,0 -0.02,0.01 -0.03,0 -0.03,0.01 -0.02,0 -0.03,0 -0.03,0 -0.04,0 -0.03,0.01 -0.03,0 -0.04,0 -0.03,0 -0.04,0 -0.04,0 -0.04,0 -0.04,0 -0.04,0 -0.05,0 -0.04,0 c -2.24,-2.19 -5.41,-2.23 -6.84,-2.23 l 0,-1.25 c 0.84,0 3.14,0 5.06,0.97 l 0,-17.78 c 0,-1.15 0,-1.61 -3.49,-1.61 l -1.33,0 0,-1.25 12.45,0 0,1.25 -1.32,0 c -3.49,0 -3.49,0.46 -3.49,1.61 z"
         inkscape:connector-curvature="0"
         style="fill:#000000;stroke-width:0" /></g>  </g>
  <g
     id="g4478"
     transform="translate(-62.576693,9.8159527)"
     inkscape:export-xdpi="300"
     inkscape:export-ydpi="300">
    <g
       word-spacing="normal"
       letter-spacing="normal"
       font-size-adjust="none"
       font-stretch="normal"
       font-weight="normal"
       font-variant="normal"
       font-style="normal"
       stroke-miterlimit="10.433"
       xml:space="preserve"
       transform="matrix(0.50618673,0,0,-0.50618673,-88.582677,398.62205)"
       id="g4115"
       style="font-style:normal;font-variant:normal;font-weight:normal;font-stretch:normal;letter-spacing:normal;word-spacing:normal;text-anchor:start;fill:none;fill-opacity:1;fill-rule:evenodd;stroke:#000000;stroke-linecap:butt;stroke-linejoin:miter;stroke-miterlimit:10.43299961;stroke-dasharray:none;stroke-dashoffset:0;stroke-opacity:1"><path
         id="path4481"
         d="m 479.02,422.89 0.02,0.1 0.02,0.11 0.03,0.11 0.03,0.12 0.03,0.12 0.03,0.12 0.06,0.24 0.06,0.25 0.06,0.25 0.06,0.25 0.06,0.24 0.03,0.12 0.03,0.12 0.02,0.11 0.03,0.11 0.03,0.1 0.02,0.1 0.02,0.1 0.02,0.09 0.02,0.08 0.01,0.08 0.02,0.07 0.01,0.06 0.01,0.06 0.01,0.05 0,0.04 0,0.03 c 0,0.9 -0.7,1.35 -1.44,1.35 -0.6,0 -1.5,-0.4 -1.85,-1.4 -0.15,-0.34 -2.49,-9.86 -2.84,-11.15 -0.34,-1.5 -0.45,-2.39 -0.45,-3.29 0,-0.55 0,-0.65 0.05,-0.9 -1.14,-2.64 -2.64,-4.18 -4.58,-4.18 -3.98,0 -3.98,3.68 -3.98,4.53 0,1.6 0.25,3.54 2.59,9.67 0.54,1.49 0.85,2.19 0.85,3.18 0,2.25 -1.65,4.09 -4.09,4.09 -4.73,0 -6.57,-7.23 -6.57,-7.67 0,-0.5 0.49,-0.5 0.59,-0.5 0.5,0 0.55,0.1 0.8,0.9 1.34,4.63 3.29,6.17 5.03,6.17 0.45,0 1.25,-0.05 1.25,-1.64 0,-1.25 -0.55,-2.64 -0.9,-3.49 -2.19,-5.88 -2.79,-8.17 -2.79,-10.06 0,-4.53 3.34,-6.28 7.07,-6.28 0.85,0 3.19,0 5.18,3.49 1.3,-3.19 4.73,-3.49 6.23,-3.49 3.73,0 5.93,3.14 7.22,6.13 1.7,3.88 3.29,10.56 3.29,12.95 0,2.74 -1.35,3.49 -2.19,3.49 -1.25,0 -2.49,-1.3 -2.49,-2.4 0,-0.64 0.3,-0.94 0.74,-1.34 0.56,-0.55 1.8,-1.84 1.8,-4.23 0,-1.69 -1.44,-6.58 -2.74,-9.12 -1.3,-2.64 -3.04,-4.38 -5.48,-4.38 -2.34,0 -3.68,1.49 -3.68,4.33 0,1.4 0.34,2.94 0.54,3.64 z"
         inkscape:connector-curvature="0"
         style="fill:#000000;stroke-width:0" /><path
         id="path4483"
         d="m 508.61,405.35 -1.19,0 c -0.1,-0.77 -0.45,-2.83 -0.9,-3.18 -0.28,-0.21 -2.97,-0.21 -3.45,-0.21 l -6.42,0 c 3.66,3.25 4.88,4.22 6.97,5.86 2.58,2.06 4.99,4.22 4.99,7.54 0,4.21 -3.7,6.79 -8.16,6.79 -4.33,0 -7.25,-3.03 -7.25,-6.24 0,-1.78 1.5,-1.95 1.84,-1.95 0.84,0 1.85,0.59 1.85,1.85 0,0.62 -0.24,1.85 -2.05,1.85 1.08,2.47 3.45,3.24 5.09,3.24 3.48,0 5.3,-2.72 5.3,-5.54 0,-3.04 -2.16,-5.45 -3.28,-6.7 l -8.4,-8.3 c -0.35,-0.31 -0.35,-0.38 -0.35,-1.36 l 14.36,0 z"
         inkscape:connector-curvature="0"
         style="fill:#000000;stroke-width:0" /></g>  </g>
  <g
     transform="translate(-120.24541,-2.0981707)"
     id="g4615"
     inkscape:export-xdpi="300"
     inkscape:export-ydpi="300">
    <g
       style="font-style:normal;font-variant:normal;font-weight:normal;font-stretch:normal;letter-spacing:normal;word-spacing:normal;text-anchor:start;fill:none;fill-opacity:1;fill-rule:evenodd;stroke:#000000;stroke-linecap:butt;stroke-linejoin:miter;stroke-miterlimit:10.43299961;stroke-dasharray:none;stroke-dashoffset:0;stroke-opacity:1"
       id="g4617"
       transform="matrix(0.50618673,0,0,-0.50618673,-88.582677,398.62205)"
       xml:space="preserve"
       stroke-miterlimit="10.433"
       font-style="normal"
       font-variant="normal"
       font-weight="normal"
       font-stretch="normal"
       font-size-adjust="none"
       letter-spacing="normal"
       word-spacing="normal"><path
         style="fill:#000000;stroke-width:0"
         inkscape:connector-curvature="0"
         d="m 472.64,421.04 0.03,0.13 0.03,0.15 0.05,0.17 0.04,0.18 0.06,0.19 0.06,0.21 0.06,0.21 0.07,0.23 0.08,0.23 0.09,0.24 0.1,0.25 0.1,0.24 0.11,0.25 0.12,0.25 0.13,0.25 0.14,0.25 0.15,0.24 0.15,0.24 0.17,0.23 0.18,0.22 0.18,0.22 0.2,0.2 0.21,0.19 0.22,0.18 0.23,0.16 0.25,0.14 0.12,0.07 0.13,0.06 0.13,0.05 0.14,0.05 0.14,0.05 0.14,0.04 0.14,0.03 0.15,0.03 0.15,0.02 0.16,0.02 0.16,0.01 0.16,0 c 0.25,0 1.45,0 2.49,-0.65 -1.4,-0.25 -2.39,-1.49 -2.39,-2.68 0,-0.8 0.54,-1.75 1.89,-1.75 1.1,0 2.69,0.9 2.69,2.89 0,2.59 -2.94,3.29 -4.63,3.29 -2.89,0 -4.64,-2.64 -5.23,-3.79 -1.25,3.29 -3.94,3.79 -5.38,3.79 -5.18,0 -8.02,-6.43 -8.02,-7.67 0,-0.5 0.5,-0.5 0.6,-0.5 0.39,0 0.54,0.1 0.64,0.54 1.7,5.29 4.98,6.53 6.68,6.53 0.95,0 2.69,-0.45 2.69,-3.33 0,-1.55 -0.85,-4.89 -2.69,-11.86 -0.8,-3.09 -2.54,-5.18 -4.73,-5.18 -0.3,0 -1.45,0 -2.49,0.65 1.24,0.25 2.34,1.29 2.34,2.69 0,1.34 -1.1,1.74 -1.85,1.74 -1.49,0 -2.73,-1.3 -2.73,-2.89 0,-2.29 2.48,-3.29 4.68,-3.29 3.28,0 5.08,3.49 5.23,3.79 0.6,-1.85 2.39,-3.79 5.38,-3.79 5.13,0 7.97,6.43 7.97,7.67 0,0.5 -0.45,0.5 -0.6,0.5 -0.45,0 -0.55,-0.2 -0.65,-0.55 -1.64,-5.33 -5.03,-6.52 -6.62,-6.52 -1.95,0 -2.74,1.59 -2.74,3.29 0,1.09 0.29,2.19 0.85,4.38 z"
         id="path4619" /><path
         style="fill:#000000;stroke-width:0"
         inkscape:connector-curvature="0"
         d="m 501.61,405.35 -1.19,0 c -0.1,-0.77 -0.45,-2.83 -0.9,-3.18 -0.28,-0.21 -2.97,-0.21 -3.45,-0.21 l -6.42,0 c 3.66,3.25 4.88,4.22 6.97,5.86 2.58,2.06 4.99,4.22 4.99,7.54 0,4.21 -3.7,6.79 -8.16,6.79 -4.33,0 -7.25,-3.03 -7.25,-6.24 0,-1.78 1.5,-1.95 1.84,-1.95 0.84,0 1.85,0.59 1.85,1.85 0,0.62 -0.24,1.85 -2.05,1.85 1.08,2.47 3.45,3.24 5.09,3.24 3.48,0 5.3,-2.72 5.3,-5.54 0,-3.04 -2.16,-5.45 -3.28,-6.7 l -8.4,-8.3 c -0.35,-0.31 -0.35,-0.38 -0.35,-1.36 l 14.36,0 z"
         id="path4621" /></g>  </g>
  <g
     id="g3965"
     transform="matrix(1.6708947,0,0,1.8273019,-101.89599,-178.20307)">
    <g
       word-spacing="normal"
       letter-spacing="normal"
       font-size-adjust="none"
       font-stretch="normal"
       font-weight="normal"
       font-variant="normal"
       font-style="normal"
       stroke-miterlimit="10.433"
       xml:space="preserve"
       transform="matrix(0.50618673,0,0,-0.50618673,-88.582677,398.62205)"
       id="g3967"
       style="font-style:normal;font-variant:normal;font-weight:normal;font-stretch:normal;letter-spacing:normal;word-spacing:normal;text-anchor:start;fill:none;fill-opacity:1;fill-rule:evenodd;stroke:#000000;stroke-linecap:butt;stroke-linejoin:miter;stroke-miterlimit:10.43299961;stroke-dasharray:none;stroke-dashoffset:0;stroke-opacity:1"><path
         id="path3969"
         d="m 476.97,417.4 -17.68,-21.87 c -0.4,-0.49 -0.45,-0.6 -0.45,-0.8 0,-0.54 0.45,-0.54 1.34,-0.54 l 41.3,0 4.28,12.4 -1.24,0 c -1.25,-3.73 -4.59,-6.77 -8.82,-8.22 -0.8,-0.25 -4.23,-1.44 -11.56,-1.44 l -21.17,0 17.29,21.37 c 0.35,0.45 0.45,0.59 0.45,0.79 0,0.2 -0.05,0.25 -0.35,0.7 l -16.19,22.22 19.72,0 c 5.68,0 17.14,-0.35 20.63,-9.67 l 1.24,0 -4.28,11.66 -41.3,0 c -1.34,0 -1.39,-0.05 -1.39,-1.59 z"
         inkscape:connector-curvature="0"
         style="fill:#000000;stroke-width:0" /></g>  </g>
  <g
     id="g8834"
     transform="translate(117.63192,-18.404911)">
    <g
       word-spacing="normal"
       letter-spacing="normal"
       font-size-adjust="none"
       font-stretch="normal"
       font-weight="normal"
       font-variant="normal"
       font-style="normal"
       stroke-miterlimit="10.433"
       xml:space="preserve"
       transform="matrix(0.50618673,0,0,-0.50618673,-88.582677,398.62205)"
       id="g8836"
       style="font-style:normal;font-variant:normal;font-weight:normal;font-stretch:normal;letter-spacing:normal;word-spacing:normal;text-anchor:start;fill:none;fill-opacity:1;fill-rule:evenodd;stroke:#000000;stroke-linecap:butt;stroke-linejoin:miter;stroke-miterlimit:10.43299961;stroke-dasharray:none;stroke-dashoffset:0;stroke-opacity:1"><path
         id="path8838"
         d="m 489.62,417.36 0.11,0.04 0.09,0.05 0.05,0.02 0.05,0.03 0.04,0.02 0.04,0.03 0.05,0.02 0.04,0.03 0.04,0.03 0.03,0.02 0.04,0.03 0.04,0.03 0.03,0.03 0.03,0.03 0.03,0.04 0.03,0.03 0.03,0.03 0.03,0.04 0.02,0.04 0.02,0.03 0.02,0.04 0.02,0.04 0.02,0.05 0.01,0.04 0.01,0.05 0.01,0.04 0.01,0.05 0.01,0.05 0,0.06 0,0.05 c 0,0.6 -0.4,0.85 -0.95,1.1 l -27.59,13 c -0.65,0.35 -0.75,0.35 -0.9,0.35 -0.55,0 -1,-0.45 -1,-1 0,-0.45 0.25,-0.74 0.95,-1.09 l 26.15,-12.36 -26.15,-12.35 c -0.7,-0.35 -0.95,-0.65 -0.95,-1.1 0,-0.54 0.45,-0.99 1,-0.99 0.15,0 0.25,0 0.9,0.35 z"
         inkscape:connector-curvature="0"
         style="fill:#000000;stroke-width:0" /><path
         id="path8840"
         d="m 530.91,421.94 0,0.75 -0.01,0.74 -0.02,0.75 -0.03,0.74 -0.05,0.75 -0.06,0.74 -0.07,0.74 -0.1,0.73 -0.11,0.73 -0.14,0.73 -0.16,0.72 -0.19,0.72 -0.22,0.71 -0.24,0.71 -0.28,0.7 -0.15,0.35 -0.16,0.35 c -2.29,4.78 -6.37,5.58 -8.47,5.58 -2.98,0 -6.62,-1.3 -8.66,-5.93 -1.6,-3.44 -1.85,-7.32 -1.85,-11.31 0,-3.74 0.2,-8.22 2.24,-12.01 2.15,-4.03 5.78,-5.03 8.22,-5.03 l 0,1.1 c -1.94,0 -4.88,1.25 -5.78,6.03 -0.54,2.99 -0.54,7.57 -0.54,10.51 0,3.19 0,6.47 0.4,9.16 0.94,5.93 4.68,6.38 5.92,6.38 1.65,0 4.94,-0.9 5.88,-5.83 0.5,-2.79 0.5,-6.57 0.5,-9.71 0,-3.74 0,-7.13 -0.55,-10.31 -0.75,-4.73 -3.58,-6.23 -5.83,-6.23 l 0,0 0,-1.1 c 2.69,0 6.48,1.05 8.67,5.78 1.59,3.44 1.84,7.32 1.84,11.26 z"
         inkscape:connector-curvature="0"
         style="fill:#000000;stroke-width:0" /><path
         id="path8842"
         d="m 544.71,418.4 0.01,0.58 0.04,0.57 0.07,0.55 0.09,0.53 0.11,0.52 0.13,0.5 0.16,0.48 0.17,0.47 0.19,0.46 0.2,0.44 0.22,0.42 0.23,0.41 0.24,0.4 0.25,0.38 0.26,0.36 0.26,0.35 0.27,0.34 0.27,0.32 0.28,0.31 0.28,0.29 0.27,0.28 0.27,0.26 0.27,0.26 0.27,0.23 0.26,0.22 0.25,0.21 0.24,0.2 0.23,0.18 0.22,0.17 0.2,0.15 0.19,0.14 0.17,0.13 c 1.34,1 2.39,2.79 2.39,4.88 0,2.89 -1.99,6.73 -9.41,6.73 -5.38,0 -8.47,-3.39 -8.47,-6.63 0,-1.69 1.14,-2.39 2.29,-2.39 1.4,0 2.29,1 2.29,2.29 0,2.25 -2.09,2.25 -2.79,2.25 1.55,2.63 4.44,3.38 6.53,3.38 5.43,0 5.43,-3.38 5.43,-5.33 0,-2.94 -0.8,-3.83 -1.7,-4.73 -3.28,-3.58 -4.38,-8.17 -4.38,-11.21 l 0,-2.24 c 0,-0.9 0,-1.19 0.6,-1.19 0.65,0 0.65,0.44 0.65,1.34 z"
         inkscape:connector-curvature="0"
         style="fill:#000000;stroke-width:0" /><path
         id="path8844"
         d="m 546.7,408.64 0,0.14 -0.01,0.13 -0.02,0.13 -0.03,0.13 -0.02,0.13 -0.04,0.12 -0.04,0.12 -0.05,0.12 -0.05,0.12 -0.06,0.11 -0.07,0.11 -0.07,0.11 -0.07,0.1 -0.08,0.1 -0.08,0.1 -0.09,0.09 -0.09,0.09 -0.1,0.08 -0.1,0.08 -0.1,0.08 -0.11,0.07 -0.11,0.06 -0.11,0.06 -0.12,0.05 -0.12,0.05 -0.12,0.04 -0.13,0.04 -0.12,0.03 -0.13,0.02 -0.13,0.02 -0.14,0.01 -0.13,0 c -1.45,0 -2.64,-1.19 -2.64,-2.64 0,-1.44 1.19,-2.64 2.64,-2.64 1.44,0 2.64,1.2 2.64,2.64 z"
         inkscape:connector-curvature="0"
         style="fill:#000000;stroke-width:0" /></g>  </g>
  <g
     id="g9169"
     transform="translate(236.19635,3.6809823)">
    <g
       id="content"
       transform="matrix(0.50618673,0,0,-0.50618673,-88.582677,398.62205)"
       xml:space="preserve"
       stroke-miterlimit="10.433"
       font-style="normal"
       font-variant="normal"
       font-weight="normal"
       font-stretch="normal"
       font-size-adjust="none"
       letter-spacing="normal"
       word-spacing="normal"
       style="font-style:normal;font-variant:normal;font-weight:normal;font-stretch:normal;letter-spacing:normal;word-spacing:normal;text-anchor:start;fill:none;fill-opacity:1;fill-rule:evenodd;stroke:#000000;stroke-linecap:butt;stroke-linejoin:miter;stroke-miterlimit:10.43299961;stroke-dasharray:none;stroke-dashoffset:0;stroke-opacity:1"><path
         d="m 478.91,421.94 0,0.75 -0.01,0.74 -0.02,0.75 -0.03,0.74 -0.05,0.75 -0.06,0.74 -0.07,0.74 -0.1,0.73 -0.11,0.73 -0.14,0.73 -0.16,0.72 -0.19,0.72 -0.22,0.71 -0.24,0.71 -0.28,0.7 -0.15,0.35 -0.16,0.35 c -2.29,4.78 -6.37,5.58 -8.47,5.58 -2.99,0 -6.62,-1.3 -8.66,-5.93 -1.6,-3.44 -1.85,-7.32 -1.85,-11.31 0,-3.74 0.2,-8.22 2.24,-12.01 2.15,-4.03 5.78,-5.03 8.22,-5.03 l 0,1.1 c -1.94,0 -4.88,1.25 -5.78,6.03 -0.54,2.99 -0.54,7.57 -0.54,10.51 0,3.19 0,6.47 0.4,9.16 0.94,5.93 4.68,6.38 5.92,6.38 1.65,0 4.94,-0.9 5.88,-5.83 0.5,-2.79 0.5,-6.57 0.5,-9.71 0,-3.74 0,-7.13 -0.55,-10.31 -0.75,-4.73 -3.59,-6.23 -5.83,-6.23 l 0,0 0,-1.1 c 2.69,0 6.48,1.05 8.67,5.78 1.59,3.44 1.84,7.32 1.84,11.26 z"
         id="path9172"
         inkscape:connector-curvature="0"
         style="fill:#000000;stroke-width:0" /></g>  </g>
  <g
     id="g9274"
     transform="translate(235.58285,-35.582829)">
    <g
       word-spacing="normal"
       letter-spacing="normal"
       font-size-adjust="none"
       font-stretch="normal"
       font-weight="normal"
       font-variant="normal"
       font-style="normal"
       stroke-miterlimit="10.433"
       xml:space="preserve"
       transform="matrix(0.50618673,0,0,-0.50618673,-88.582677,398.62205)"
       id="g9276"
       style="font-style:normal;font-variant:normal;font-weight:normal;font-stretch:normal;letter-spacing:normal;word-spacing:normal;text-anchor:start;fill:none;fill-opacity:1;fill-rule:evenodd;stroke:#000000;stroke-linecap:butt;stroke-linejoin:miter;stroke-miterlimit:10.43299961;stroke-dasharray:none;stroke-dashoffset:0;stroke-opacity:1"><path
         id="path9278"
         d="m 470.64,437.88 0,0.05 0,0.06 0,0.05 0,0.05 0,0.05 0,0.05 0,0.04 0,0.05 0,0.04 0,0.04 0,0.04 0,0.04 0,0.04 -0.01,0.04 0,0.03 0,0.04 -0.01,0.03 0,0.03 -0.01,0.06 -0.01,0.05 -0.02,0.05 -0.01,0.05 -0.02,0.04 -0.02,0.04 -0.03,0.04 -0.03,0.03 -0.03,0.02 -0.03,0.03 -0.04,0.02 -0.05,0.02 -0.02,0.01 -0.03,0.01 -0.02,0 -0.03,0.01 -0.03,0.01 -0.03,0 -0.03,0.01 -0.03,0 -0.03,0.01 -0.04,0 -0.04,0 -0.03,0 -0.04,0.01 -0.04,0 -0.04,0 -0.05,0 -0.04,0 -0.05,0 -0.05,0.01 -0.05,0 -0.05,0 -0.05,0 c -3.09,-3.19 -7.47,-3.19 -9.07,-3.19 l 0,-1.55 c 1,0 3.94,0 6.53,1.3 l 0,-25.81 c 0,-1.79 -0.15,-2.39 -4.63,-2.39 l -1.6,0 0,-1.54 16.14,0 0,1.54 -1.59,0 c -4.49,0 -4.64,0.55 -4.64,2.39 z"
         inkscape:connector-curvature="0"
         style="fill:#000000;stroke-width:0" /></g>  </g>
</svg>
